<svg width="134" height="143" viewBox="0 0 134 143" fill="none" xmlns="http://www.w3.org/2000/svg">
<path d="M87.9143 42.667C87.9912 42.5101 88.0374 42.312 88.0143 42.1139C87.8681 40.9169 87.1757 39.753 86.5986 39.0018C86.0831 38.3248 85.4676 37.78 84.8137 37.4993C83.8442 36.3519 81.7207 36.9628 80.659 36.938C78.2585 36.8885 75.858 36.8637 73.4575 36.8637C68.6566 36.8637 63.8556 36.9628 59.0546 37.1609C56.7619 37.2599 53.6382 36.3436 53.1381 40.9499C52.8072 43.9878 53.2227 47.4796 53.3689 50.5423C53.5612 54.645 53.8382 58.7312 54.169 62.8175C54.1767 62.9413 54.2075 63.0403 54.2383 63.1394C54.1152 63.2715 54.0613 63.5026 54.0613 63.7338C54.0613 63.8328 54.0613 63.9401 54.0921 64.0474C54.523 65.5829 54.9461 67.2504 55.4847 68.7198C55.3693 69.0417 55.4616 69.5453 55.7771 69.57C55.8001 69.57 55.8155 69.57 55.8386 69.57C56.0079 69.7847 56.2464 69.7764 56.4156 69.6031C62.94 70.0241 69.4798 70.0076 76.0042 69.9333C78.7047 69.9002 81.9823 70.6267 84.6136 69.5783C86.0678 69.0004 87.0756 67.5723 87.068 65.1454C87.068 65.0628 87.0526 64.9968 87.0372 64.9225C88.0912 57.7902 88.299 49.9066 87.9143 42.6752V42.667ZM56.4926 38.9027C58.0544 38.3414 60.0318 38.7458 61.6321 38.6881C65.0635 38.5725 68.4873 38.5065 71.9188 38.4899C73.8037 38.4899 75.6887 38.4899 77.5737 38.5147C78.9356 38.5312 81.513 37.7305 82.7132 38.6138C85.7292 40.8261 84.7136 51.6897 84.6598 56.0731C84.629 58.5001 84.729 59.1522 83.5519 61.0922C82.367 63.0486 82.3285 62.8422 80.859 62.8587C79.1664 62.8752 77.4737 62.8587 75.7888 62.8587C68.9335 62.867 62.0552 62.6606 55.1923 62.966C55.1923 62.9165 55.2077 62.867 55.1923 62.8092C54.7768 57.7076 54.4537 52.5977 54.2614 47.4631C54.1229 43.8887 53.4304 40.0089 56.4772 38.9109L56.4926 38.9027ZM86.3447 64.5262C86.2601 64.6088 86.1985 64.7409 86.1832 64.939C85.7215 69.6031 79.6049 68.2575 77.5737 68.2905C75.1502 68.3318 72.7343 68.34 70.3107 68.3566C65.6867 68.3813 61.0627 68.3318 56.4387 68.4309C56.0771 67.044 55.5847 65.7067 55.1 64.4107C59.9625 64.617 64.8481 64.4932 69.7106 64.485C72.0803 64.485 74.4423 64.485 76.812 64.485C78.8355 64.485 81.1514 64.9555 83.1441 64.3529C85.86 63.5356 85.66 59.6971 85.6984 56.0814C85.7446 52.251 85.6985 48.4207 85.5907 44.5986C85.5523 43.3687 85.7215 41.0573 85.4676 39.3237C85.6754 39.5466 85.8831 39.786 86.0754 40.0667C86.4832 40.6693 86.7371 41.3875 87.0372 42.0809C87.0218 42.1634 87.0064 42.246 86.9987 42.3533C86.9218 49.7993 86.5909 57.1215 86.3447 64.5345V64.5262Z" fill="#222221"/>
<path d="M133.422 37.6188C133.543 36.0814 133.787 34.5737 133.964 33.0435C134.073 32.0869 133.952 31.1561 133.388 30.2651C133.146 29.8871 132.759 29.6291 132.452 29.312C131.95 28.7757 131.299 28.4973 130.523 28.3969C129.955 28.3235 129.411 28.2808 128.835 28.3589C128.986 25.1337 125.339 21.9302 121.039 23.6761C120.816 22.0803 120.52 20.5028 118.623 19.6611C116.898 18.8972 115.17 18.7432 113.354 19.6037C113.505 18.9438 113.729 18.3626 113.743 17.7683C113.768 16.5096 114.098 15.2904 114.22 14.0443C114.357 12.6893 114.311 11.3382 114.391 9.98963C114.457 8.73637 114.243 7.4745 114.112 6.22338C114.059 5.80061 114.268 5.4255 114.229 5.00452C114.108 3.97661 113.786 2.97807 113.534 1.97488C113.291 1.01433 112.492 0.481194 111.475 0.294154C110.432 0.0899162 109.435 0.349294 108.726 1.0619C108.215 1.57817 107.779 2.15966 107.581 2.85508C107.176 4.20328 106.73 5.54611 106.421 6.92046C106.154 8.0924 106.082 9.28941 105.732 10.4506C105.526 11.1034 105.276 11.7644 105.153 12.4279C104.998 13.2122 104.844 13.9965 104.555 14.7356C104.22 15.5937 104.177 16.4894 104.008 17.369C103.701 18.9239 103.489 20.505 102.976 22.0194C102.491 23.4404 102.197 24.9 101.947 26.3514C101.742 27.4896 101.057 28.4272 100.866 29.6644C100.29 29.257 99.9881 28.8991 99.7321 28.5193C99.1009 27.6057 98.5152 26.6702 97.7773 25.8121C96.9064 24.7981 96.0198 23.796 94.8449 23.0339C93.8503 22.3922 92.7292 21.8451 91.5121 21.6738C89.3826 21.3707 87.3217 21.6727 85.4342 22.5379C84.7839 22.8421 84.2192 23.3376 84.1118 23.9893C83.9793 24.9151 84.2919 25.7875 85.1421 26.4521C85.6872 26.8831 86.3171 27.2142 86.9922 27.4263C88.584 27.9373 89.7378 28.9462 90.8638 29.9515C91.6409 30.6344 92.1493 31.5183 92.721 32.3549C93.4197 33.3882 93.7745 34.5573 94.487 35.5924C95.2791 36.7625 95.6163 38.0541 96.0148 39.3121C96.4412 40.6707 96.6185 42.0941 96.8709 43.4857C97.2116 45.4433 97.8646 47.2889 99.2512 48.938C99.6837 49.4654 100.008 50.062 100.304 50.6549C100.741 51.5435 101.032 52.4686 101.528 53.3371C102.293 54.6978 102.583 56.0249 102.2 57.5146C101.936 58.5758 101.958 59.7019 101.61 60.7524C101.009 62.5882 100.598 64.4763 100.16 66.3473C100.088 66.6568 100.073 66.9599 100.157 67.262C100.25 67.593 100.502 67.8058 100.884 67.8969C101.47 68.042 101.818 67.879 102.05 67.3405C102.338 66.712 102.281 66.0252 102.513 65.3896C102.965 64.1031 103.158 62.7552 103.568 61.4633C103.977 60.1849 104.194 58.8679 104.424 57.5526C104.51 57.0507 104.679 56.5595 104.613 56.0378C104.484 55.0644 104.225 54.1156 103.865 53.1816C103.423 52.029 102.775 50.933 102.051 49.8825C101.688 49.3641 101.548 48.7636 101.123 48.2788C99.9967 46.9822 99.74 45.4237 99.1136 43.9837C99.0499 43.8368 99.0298 43.6817 99.0235 43.5284C98.9025 41.613 98.2337 39.7793 97.6796 37.9327C97.3906 36.994 96.9869 36.0682 96.5674 35.1542C96.2135 34.3735 95.7232 33.6584 95.397 32.8813C94.7964 31.4585 93.7115 30.2644 92.7333 29.0147C92.2433 28.3966 91.5874 27.9513 90.9512 27.4669C89.7899 26.6095 88.5893 25.8302 87.2031 25.2627C86.9238 25.1434 86.6742 25.014 86.4779 24.8084C86.2182 24.5529 86.2454 24.3623 86.5675 24.1821C86.9212 23.9782 87.2829 23.817 87.6804 23.702C89.4757 23.1854 91.2086 23.1045 92.9301 24.0898C94.5466 25.0199 95.6614 26.3011 96.6952 27.6551C97.5028 28.7163 98.1405 29.8804 99.1437 30.856C99.5641 31.2709 100.081 31.5041 100.681 31.651C101.089 31.7593 101.492 31.7005 101.778 31.4741C102.411 31.0011 103.005 30.4956 103.033 29.7088C103.048 29.2116 103.254 28.753 103.487 28.3116C103.583 28.1299 103.708 27.9518 103.723 27.7458C103.878 26.3654 104.39 25.0587 104.711 23.6998C105.329 21.1589 106.043 18.6305 106.485 16.0391C106.567 15.5643 106.68 15.066 106.883 14.6346C107.289 13.7719 107.475 12.8669 107.52 11.9576C107.581 10.8422 107.941 9.80716 108.11 8.71978C108.317 7.27663 108.977 5.91983 109.266 4.48743C109.352 4.08258 109.411 3.67414 109.578 3.29365C109.814 2.72792 110.181 2.23458 110.911 2.06548C111.231 1.99598 111.582 2.01354 111.616 2.36466C111.703 3.13855 112.08 3.85297 112.124 4.63509C112.173 5.66766 111.972 6.68159 112.051 7.70412C112.255 10.4206 112.275 13.141 111.889 15.8367C111.825 16.286 111.676 16.7382 111.611 17.1874C111.399 18.6714 111.379 20.1941 111.069 21.6656C110.762 23.1234 110.457 24.5676 110.149 26.0255C110.102 26.2551 110.027 26.4812 110.01 26.7008C109.972 27.1673 110.378 27.5804 110.968 27.6983C111.366 27.7775 111.864 27.5507 112.029 27.1838C112.155 26.8951 112.267 26.6045 112.296 26.3032C112.388 25.4691 112.506 24.6386 113.037 23.8891C113.248 23.5975 113.342 23.2353 113.448 22.8884C113.641 22.2339 114.033 21.6606 114.489 21.1372C114.759 20.8255 115.109 20.5518 115.61 20.6026C116.29 20.6768 116.961 20.8191 117.565 21.1329C118.679 21.7345 119.08 22.6739 118.996 23.6613C118.875 25.2958 119.12 26.936 118.959 28.5515C118.93 28.7557 118.914 28.9617 118.943 29.1595C118.977 29.6077 119.261 29.894 119.726 29.9958C120.179 30.0821 120.717 29.8743 120.912 29.4974C121.048 29.2377 121.142 28.9725 121.142 28.6812C121.132 27.8619 121.263 27.0468 121.085 26.2195C120.977 25.6925 121.14 25.5334 121.747 25.3346C122.192 25.1841 122.635 25.0472 123.08 24.8968C123.465 24.7664 123.895 24.8219 124.226 24.9756C124.754 25.2243 125.283 25.4729 125.739 25.8369C126.258 26.2508 126.556 26.733 126.554 27.3428C126.551 27.7584 126.52 28.1704 126.618 28.5714C126.983 29.9636 126.655 31.2663 126.12 32.5422C125.909 33.028 126.132 33.5421 126.598 33.741C127.105 33.9452 127.597 33.7593 127.908 33.2588C127.983 33.1298 128.034 32.97 128.109 32.841C128.418 32.257 128.455 31.61 128.588 30.9754C128.758 30.0823 129.015 29.963 130.093 30.1163C130.62 30.1844 130.98 30.4252 131.252 30.7931C131.548 31.1919 131.725 31.6308 131.726 32.1163C131.724 33.7106 131.389 35.262 131.331 36.8491C131.299 37.6632 130.988 38.455 130.901 39.2618C130.762 40.5333 130.515 41.7633 130.223 43.0151C129.915 44.2788 129.392 45.4729 128.805 46.6173C128.054 48.1149 127.195 49.5845 125.979 50.8833C124.994 51.9484 124.241 53.1683 123.125 54.1611C122.657 54.5721 122.38 55.1324 121.975 55.5931C120.988 56.769 120.713 58.2032 120.102 59.5109C119.263 61.3299 118.775 63.2635 118.386 65.1961C118.012 67.0197 117.666 68.8469 117.486 70.6957C117.447 70.968 117.483 71.2084 117.634 71.4359C117.832 71.725 118.135 71.8751 118.529 71.8845C118.951 71.8974 119.215 71.7236 119.371 71.4248C119.45 71.2686 119.519 71.0834 119.544 70.9064C119.83 68.6137 120.432 66.3759 120.854 64.1148C121.15 62.5445 121.649 61.0283 122.459 59.6077C122.607 59.3633 122.689 59.0828 122.809 58.8349C123.187 58.0657 123.393 57.2187 123.944 56.5272C125.009 55.1951 126.138 53.9129 127.243 52.5998C128.484 51.1241 129.66 49.6121 130.495 47.9175C131.413 46.0394 132.061 44.071 132.613 42.0901C132.811 41.3947 133.065 40.7064 133.055 39.9841C133.045 39.5667 133.143 39.1773 133.229 38.7724C133.315 38.3676 133.415 37.9645 133.444 37.5661L133.422 37.6188Z" fill="#222221"/>
<path d="M125.364 92.6665C125.056 91.8092 124.803 90.9438 124.398 90.1006C123.79 88.8707 121.961 88.959 121.173 89.7413C120.954 89.9539 120.795 90.1857 120.622 90.4194C120.253 90.9181 120.032 91.4643 119.969 92.0291C119.854 93.143 119.813 94.2739 119.728 95.3973C119.719 95.5098 119.77 95.655 119.559 95.7416C119.569 95.1985 119.639 94.6744 119.594 94.1394C119.552 93.5346 119.693 92.9306 119.622 92.3162C119.524 91.3723 119.526 90.4278 119.598 89.4867C119.714 88.1227 119.578 86.7678 119.54 85.4124C119.509 84.6116 119.447 83.8013 119.319 83.0146C119.084 81.5634 117.837 81.3438 116.62 81.7311C115.684 82.0352 114.913 82.6623 114.38 83.4489C114.086 83.8948 113.825 84.3637 113.545 84.8075C113.298 85.1911 113.106 85.5665 112.963 85.9901C112.77 86.6157 112.592 87.2529 112.398 87.8785C112.185 88.5624 111.975 89.2599 111.952 89.9854C111.933 90.4742 111.992 91.0072 111.824 91.4484C111.589 92.0801 111.631 92.685 111.607 93.3135C111.598 93.6898 111.746 94.0846 111.696 94.4669C111.614 95.0899 111.725 95.6847 111.739 96.2936C111.767 97.0672 111.806 97.8253 111.636 98.6001C111.596 98.7866 111.547 99.0021 111.66 99.1799C111.76 99.3597 111.658 99.5135 111.6 99.6748C111.473 99.499 111.602 99.3412 111.66 99.1799C111.344 99.2263 111.382 98.943 111.396 98.8575C111.486 98.3722 111.113 97.9826 111.082 97.529C111.058 97.2964 111.089 97.0557 111.011 96.8312C110.777 96.1712 110.653 95.4951 110.471 94.8135C110.265 94.0661 110.266 93.2884 110.211 92.5188C110.087 91.0649 109.702 89.6495 109.647 88.1856C109.635 87.854 109.376 87.5588 109.474 87.2944C109.665 86.7387 109.364 86.2692 109.351 85.7572C109.34 84.9117 109.132 84.0673 109.108 83.2238C109.1 82.9194 108.972 82.6467 108.937 82.3463C108.85 81.637 108.843 80.902 108.306 80.2865C108.236 80.1996 108.257 80.0715 108.21 79.9535C107.92 79.1212 107.213 77.9753 105.815 78.2085C105.018 78.3256 104.325 78.5663 103.777 79.1746C103.037 79.9915 102.596 80.9173 102.186 81.8525C101.879 82.5642 101.824 83.3499 101.693 84.1051C101.618 84.5051 101.572 84.9146 101.594 85.314C101.619 85.7269 101.628 86.1283 101.61 86.5338C101.586 87.426 101.548 88.3203 101.595 89.216C101.645 90.1253 101.806 91.032 101.927 91.9448C101.989 92.5049 102.096 93.0725 102.118 93.6387C102.131 93.9838 102.232 94.344 102.062 94.7716C101.914 94.2935 101.793 93.8947 101.642 93.4863C101.442 92.9464 101.469 92.3315 101.098 91.8721C100.765 91.4629 100.678 91.0173 100.603 90.5562C100.537 90.1493 100.429 89.7485 100.308 89.3496C100.116 88.6836 99.9366 88.0156 99.7576 87.3475C99.675 87.0125 99.473 86.7228 99.4157 86.3701C99.3099 85.7191 99.204 85.0681 98.9766 84.4488C98.7784 83.9225 98.5896 83.367 98.3249 82.8643C97.7685 81.7795 97.586 80.5704 96.8026 79.5607C96.3371 78.9486 95.7641 78.7134 94.8888 78.8699C94.2312 78.9804 93.8877 79.378 93.4189 79.6969C92.4717 80.3638 91.9492 81.2182 91.5108 82.1575C91.3043 82.6184 91.3518 83.0836 91.3008 83.5493C91.2088 84.3683 91.0893 85.1913 91.0682 86.0137C91.0623 86.2368 91.1916 86.4261 91.1444 86.6552C91.0023 87.426 91.0868 88.2052 91.0706 88.9713C91.0567 89.751 91.0356 90.5735 91.489 91.2845C91.5275 91.3483 91.5088 91.4066 91.5176 91.4608C91.5816 91.8542 91.634 92.2631 91.7485 92.6212C91.8834 93.018 92.048 93.4243 92.1554 93.8251C92.428 94.896 92.7809 95.9412 93.0789 96.9945C93.3096 97.8077 93.4854 98.629 93.6886 99.4462C93.8786 100.182 93.8762 100.946 94.1762 101.666C94.3386 102.059 94.4526 102.5 94.4775 102.913C94.5136 103.741 94.6712 104.537 94.8288 105.333C94.993 106.17 94.9626 107.022 95.0581 107.869C95.1343 108.51 95.0433 109.162 95.037 109.816C95.0174 110.388 95.0138 110.972 94.5599 111.469C94.5137 111.532 94.4219 111.573 94.3961 111.674C94.1863 112.288 93.6872 112.681 93.0105 112.933C92.5608 113.11 92.0885 113.235 91.6074 113.306C90.8399 113.432 90.0493 113.59 89.2855 113.48C88.1626 113.326 87.0518 113.073 85.9454 112.846C85.3053 112.718 84.6817 112.518 84.0323 112.419C82.9919 112.253 81.9445 112.476 80.9339 112.666C79.5935 112.905 78.3632 113.475 77.2352 114.154C76.5162 114.579 75.9743 115.228 75.483 115.842C74.8186 116.69 74.863 117.655 75.0586 118.598C75.1694 119.193 75.5649 119.635 76.1979 119.806C77.1118 120.06 78.0675 120.225 79.0671 119.967C80.0688 119.723 81.0943 119.711 82.1055 119.785C83.0023 119.847 83.8871 120.009 84.7434 120.341C85.7184 120.712 86.5736 121.211 87.3849 121.786C87.8475 122.121 88.2595 122.491 88.6231 122.91C88.9208 123.269 89.3954 123.504 89.6677 123.881C89.8333 124.121 90.0473 124.311 90.2773 124.514C90.4252 124.645 90.5616 124.791 90.6475 124.973C91.1175 125.959 92.024 126.687 92.7743 127.493C93.32 128.08 93.8036 128.717 94.4389 129.249C95.0105 129.734 95.5429 130.239 96.1996 130.642C96.5758 130.879 97.04 130.963 97.4139 131.186C98.1207 131.638 98.9407 131.92 99.7353 132.22C100.126 132.371 100.574 132.444 100.976 132.579C101.558 132.785 102.187 132.929 102.798 132.964C103.807 133.024 104.528 133.39 105.275 133.919C106.103 134.506 106.691 135.266 107.477 135.859C108.233 136.442 108.803 137.178 109.536 137.792C110.14 138.301 110.669 138.876 111.222 139.419C111.709 139.903 112.246 140.352 112.747 140.834C113.448 141.509 114.381 141.969 115.061 142.688C115.179 142.809 115.307 142.902 115.483 142.945C115.764 143.029 116.061 143.041 116.262 142.803C116.449 142.567 116.478 142.313 116.269 142.066C115.742 141.421 115.256 140.771 114.717 140.142C114.281 139.622 113.82 139.121 113.335 138.651C112.668 138.012 111.85 137.48 111.268 136.76C111.057 136.499 110.828 136.214 110.568 136.002C109.962 135.48 109.405 134.909 108.813 134.385C108.126 133.792 107.463 133.181 106.801 132.57C106.619 132.402 106.375 132.285 106.179 132.12C105.849 131.821 105.457 131.49 104.968 131.423C104.321 131.337 103.686 131.153 103.041 131.081C102.066 130.974 101.155 130.65 100.25 130.366C99.581 130.145 98.9996 129.773 98.3974 129.444C97.5625 128.984 96.8013 128.457 96.0885 127.881C95.3597 127.294 94.6655 126.66 94.0977 125.938C93.8298 125.589 93.4607 125.309 93.1834 124.989C92.9425 124.719 92.7383 124.416 92.4952 124.132C92.0133 123.592 91.4533 123.091 91.0451 122.484C90.732 122.03 90.2486 121.74 89.8481 121.355C88.617 120.189 87.1875 119.274 85.4745 118.693C84.7733 118.448 84.0793 118.162 83.3034 118.151C82.5001 118.144 81.7236 117.869 80.8895 118.019C80.7246 118.044 80.5277 118.045 80.3518 118.001C79.616 117.804 78.9007 117.992 78.2173 118.204C77.4537 118.441 77.1798 118.314 77.2092 117.63C77.2342 116.918 77.6271 116.305 78.2136 115.843C78.7242 115.435 79.3487 115.121 80.0117 114.871C80.9271 114.528 81.8848 114.36 82.858 114.286C83.8725 114.206 84.8645 114.422 85.829 114.641C86.5742 114.809 87.2775 115.067 88.0364 115.233C89.4491 115.525 90.8754 115.469 92.2961 115.204C92.924 115.084 93.4957 114.792 94.0922 114.565C94.4385 114.445 94.7211 114.279 95.0152 114.096C95.5622 113.738 95.9474 113.251 96.3211 112.78C96.5079 112.544 96.8432 112.356 96.8909 112.043C96.9583 111.506 97.1836 110.987 97.2372 110.451C97.3123 109.787 97.2729 109.113 97.3183 108.439C97.3336 108.187 97.2411 107.965 97.2173 107.732C97.1724 106.85 97.0863 105.974 97.0298 105.107C96.9584 104.062 96.4241 103.113 96.3686 102.08C96.3298 101.322 96.1491 100.557 96.0004 99.8147C95.8356 99.0613 95.6275 98.3003 95.4193 97.5393C95.0767 96.2982 94.8716 95.0368 94.4488 93.8214C94.0711 92.7103 93.8584 91.5751 93.5472 90.4404C93.3683 89.7724 93.3999 89.1012 93.3858 88.4089C93.3701 87.6196 93.3956 86.8243 93.2814 86.0357C93.1932 85.4932 93.4118 84.9333 93.3258 84.4044C93.2354 83.8483 93.3506 83.3453 93.5164 82.8071C93.7827 81.9348 94.4044 81.3435 95.1107 80.7537C95.4556 81.2307 95.7709 81.6981 95.9025 82.2482C96.135 83.1583 96.3949 84.0644 96.7857 84.9097C97.2623 85.9367 97.4525 87.0197 97.8329 88.0609C98.069 88.7344 98.2706 89.4547 98.3484 90.1931C98.392 90.5478 98.4263 90.9316 98.5364 91.2626C98.7908 91.9612 99.1138 92.6498 99.5265 93.2835C99.9232 93.9056 99.8982 94.6175 100.201 95.2674C100.307 95.4879 100.257 95.7868 100.327 96.0405C100.443 96.4956 100.651 96.9094 100.792 97.3469C100.952 97.8094 101.018 98.2997 101.056 98.794C101.088 99.1643 101.411 99.4223 101.482 99.7729C101.566 100.288 101.703 100.782 101.814 101.293C102.028 102.262 102.216 103.248 102.485 104.208C102.693 104.969 102.915 105.728 103.325 106.432C103.558 106.828 103.96 107.047 104.411 106.966C104.808 106.894 104.965 106.649 105.027 106.168C105.133 105.347 104.957 104.525 105.047 103.693C105.179 102.424 105.152 101.136 104.807 99.8814C104.582 99.0119 104.727 98.0879 104.526 97.2008C104.384 96.583 104.514 95.9112 104.359 95.309C104.145 94.5073 104.054 93.6875 103.965 92.8812C103.919 92.4296 104.014 91.9713 103.955 91.5217C103.832 90.5954 103.543 89.6798 103.727 88.7361C103.824 88.2081 103.74 87.6927 103.782 87.1727C103.807 86.8913 103.802 86.6004 103.797 86.3095C103.775 85.7434 103.639 85.1662 103.748 84.6226C103.965 83.5352 104.21 82.4438 104.701 81.3995C104.901 80.9813 105.192 80.6053 105.482 80.2293C105.655 79.9956 105.941 80.023 106.075 80.2394C106.567 81.0142 106.843 81.8485 106.973 82.7321C107.085 83.4238 107.031 84.1262 107.143 84.8179C107.245 85.4418 107.387 86.0596 107.404 86.6821C107.429 87.8727 107.566 89.0608 107.535 90.2595C107.526 90.7192 107.562 91.2 107.634 91.6476C107.776 92.4322 108.014 93.2027 108.117 94.0069C108.193 94.6484 108.324 95.2818 108.51 95.9072C108.669 96.4532 108.732 97.0133 108.919 97.5552C109.195 98.3895 109.364 99.2535 109.587 100.109C109.735 100.671 109.885 101.246 109.975 101.802C110.143 102.833 110.365 103.856 110.725 104.858C110.883 105.307 111.146 105.713 111.652 105.972C112.084 106.2 112.512 106.151 112.745 105.769C113.011 105.328 113.328 104.851 113.233 104.351C113.133 103.74 113.277 103.15 113.376 102.552C113.545 101.514 113.842 100.484 113.769 99.4255C113.703 98.5046 113.764 97.5792 113.896 96.6572C114.015 95.8342 113.78 94.9939 113.826 94.1538C113.86 93.5796 113.705 92.9773 113.878 92.3964C114.156 91.5085 114.011 90.6133 114.231 89.7199C114.494 88.6536 114.801 87.5949 115.166 86.5551C115.245 86.3491 115.183 86.1361 115.328 85.9064C115.516 85.5873 115.781 85.3123 115.938 84.9836C116.156 84.5071 116.393 84.0558 116.905 83.7444C116.994 83.6896 116.993 83.5093 117.185 83.5644C117.377 83.6195 117.358 83.7612 117.366 83.8988C117.451 84.5946 117.326 85.2935 117.422 85.9737C117.563 86.9251 117.463 87.8702 117.492 88.8242C117.505 89.2527 117.28 89.6885 117.305 90.1014C117.364 90.9815 117.297 91.8663 117.44 92.7479C117.513 93.1955 117.368 93.6889 117.475 94.0898C117.641 94.6764 117.598 95.2798 117.577 95.8385C117.54 96.566 117.503 97.2935 117.494 98.0169C117.491 98.6007 117.586 99.1839 117.511 99.7643C117.396 100.614 117.464 101.465 117.475 102.311C117.512 103.666 117.797 104.985 118.125 106.312C118.233 106.713 118.48 107.024 118.958 107.106C119.438 107.202 119.906 107.134 120.27 106.775C120.486 106.548 120.385 106.272 120.489 106.048C120.897 105.266 120.79 104.435 120.898 103.627C121.025 102.595 121.011 101.555 121.123 100.511C121.179 99.9891 121.287 99.4454 121.302 98.9294C121.335 97.6608 121.711 96.4252 121.785 95.1506C121.839 94.1844 122.307 93.2546 122.217 92.268C122.194 92.0354 122.294 91.7847 122.37 91.5651C122.422 91.3631 122.419 91.0857 122.7 90.9057C122.74 90.983 122.779 91.0468 122.801 91.099C123.045 91.6464 123.113 92.2337 123.29 92.8048C123.409 93.19 123.518 93.6044 123.598 94.0093C123.687 94.4684 123.668 94.9572 123.741 95.4048C123.886 96.3 123.922 97.2113 123.855 98.096C123.807 98.8391 123.88 99.5504 123.901 100.283C123.903 101.075 123.976 101.869 123.95 102.665C123.921 103.349 123.765 104.039 123.761 104.706C123.756 105.971 123.083 107.111 122.947 108.353C122.951 108.38 122.942 108.409 122.93 108.425C122.283 109.548 121.93 110.752 121.647 111.96C121.29 113.485 120.579 114.909 119.943 116.363C119.585 117.193 119.077 117.962 118.868 118.84C118.807 119.071 118.709 119.336 118.474 119.537C118.29 119.703 118.158 119.93 118.116 120.187C118.073 120.443 117.961 120.709 117.797 120.914C117.588 121.181 117.428 121.496 117.332 121.774C117.033 122.706 116.993 123.67 117.477 124.571C117.982 125.511 118.5 126.449 119.113 127.358C119.596 128.079 120.293 128.643 120.774 129.35C121.275 130.096 121.895 130.796 122.477 131.516C122.954 132.113 123.47 132.689 124.048 133.216C124.462 133.599 124.853 134.014 125.268 134.397C125.934 135.035 126.424 135.797 127.116 136.417C127.61 136.858 128.17 136.929 128.641 136.623C129.062 136.353 129.079 135.851 128.745 135.358C128.333 134.725 127.706 134.247 127.257 133.647C127.059 133.384 126.924 133.071 126.689 132.841C126.025 132.217 125.514 131.5 124.861 130.86C124.329 130.355 123.859 129.799 123.388 129.244C122.986 128.761 122.517 128.302 122.168 127.798C121.694 127.132 121.118 126.536 120.731 125.801C120.345 125.067 119.783 124.385 119.475 123.611C119.236 123.008 119.02 122.373 119.495 121.747C120.005 121.075 120.216 120.294 120.637 119.594C121.102 118.817 121.462 118.001 121.792 117.174C121.952 116.776 122.259 116.411 122.376 116.005C122.686 114.974 123.159 113.988 123.571 112.969C123.873 112.23 124.159 111.48 124.402 110.722C124.764 109.572 125.082 108.414 125.414 107.254C125.601 106.588 125.773 105.91 125.788 105.228C125.806 104.642 125.967 104.076 126.042 103.496C126.116 102.916 126.147 102.328 126.137 101.746C126.115 100.833 126.05 99.912 125.987 99.0047C125.957 98.6481 125.998 98.2949 125.982 97.9362C125.964 97.5639 125.831 97.1807 125.897 96.8099C125.994 96.2818 125.973 95.7156 125.852 95.2334C125.647 94.4026 125.702 93.5334 125.412 92.7012L125.364 92.6665Z" fill="#222221"/>
<path d="M75.8564 48.4464H72.9481C72.895 48.0913 72.7865 47.7759 72.6227 47.5002C72.459 47.2202 72.2487 46.9821 71.9919 46.7858C71.7352 46.5894 71.4386 46.439 71.1022 46.3346C70.7702 46.2301 70.4094 46.1779 70.0199 46.1779C69.3161 46.1779 68.703 46.3429 68.1806 46.673C67.6583 46.9988 67.2533 47.4751 66.9655 48.1018C66.6778 48.7242 66.5339 49.4804 66.5339 50.3703C66.5339 51.2852 66.6778 52.0539 66.9655 52.6764C67.2577 53.2989 67.6649 53.7689 68.1873 54.0864C68.7096 54.4039 69.3138 54.5627 70 54.5627C70.3851 54.5627 70.7414 54.5146 71.069 54.4185C71.401 54.3224 71.6954 54.1825 71.9521 53.9987C72.2089 53.8107 72.4213 53.583 72.5895 53.3156C72.7622 53.0482 72.8817 52.7433 72.9481 52.4007L75.8564 52.4132C75.7811 53.0023 75.593 53.5704 75.292 54.1177C74.9954 54.6608 74.5948 55.1476 74.0902 55.5779C73.59 56.004 72.9924 56.3424 72.2974 56.5931C71.6068 56.8395 70.8255 56.9628 69.9535 56.9628C68.7406 56.9628 67.6561 56.7038 66.6999 56.1857C65.7482 55.6677 64.9957 54.9178 64.4424 53.936C63.8935 52.9542 63.619 51.7657 63.619 50.3703C63.619 48.9707 63.8979 47.7801 64.4556 46.7983C65.0134 45.8165 65.7703 45.0687 66.7265 44.5548C67.6826 44.0368 68.7583 43.7778 69.9535 43.7778C70.7414 43.7778 71.4718 43.8822 72.1447 44.0911C72.8219 44.3 73.4217 44.605 73.9441 45.006C74.4664 45.4029 74.8914 45.8896 75.2189 46.4662C75.5509 47.0427 75.7634 47.7028 75.8564 48.4464Z" fill="#222221"/>
<path d="M0.431641 49.9999V40.9399H2.34717V48.4206H6.23131V49.9999H0.431641Z" fill="#222221"/>
<path d="M9.41538 40.9399V49.9999H7.49985V40.9399H9.41538Z" fill="#222221"/>
<path d="M10.9914 40.9399H13.3537L15.8488 47.0271H15.9549L18.45 40.9399H20.8123V49.9999H18.9543V44.1029H18.8791L16.5345 49.9557H15.2692L12.9246 44.0808H12.8494V49.9999H10.9914V40.9399Z" fill="#222221"/>
<path d="M22.3905 49.9999V40.9399H25.965C26.6522 40.9399 27.2376 41.0711 27.7213 41.3336C28.2049 41.5931 28.5736 41.9544 28.8272 42.4175C29.0838 42.8775 29.2121 43.4084 29.2121 44.01C29.2121 44.6117 29.0823 45.1426 28.8228 45.6026C28.5633 46.0627 28.1873 46.421 27.6947 46.6776C27.2052 46.9342 26.6124 47.0625 25.9163 47.0625H23.6381V45.5274H25.6067C25.9753 45.5274 26.2791 45.464 26.518 45.3372C26.7598 45.2074 26.9397 45.029 27.0577 44.8019C27.1786 44.5719 27.2391 44.3079 27.2391 44.01C27.2391 43.7092 27.1786 43.4467 27.0577 43.2226C26.9397 42.9955 26.7598 42.82 26.518 42.6962C26.2761 42.5693 25.9694 42.5059 25.5978 42.5059H24.3061V49.9999H22.3905Z" fill="#222221"/>
<path d="M30.9717 49.9999H28.919L32.0467 40.9399H34.5152L37.6384 49.9999H35.5858L33.3163 43.0103H33.2456L30.9717 49.9999ZM30.8434 46.4387H35.6919V47.934H30.8434V46.4387Z" fill="#222221"/>
<path d="M38.7289 49.9999V40.9399H42.3034C42.9876 40.9399 43.5716 41.0623 44.0552 41.3071C44.5419 41.5489 44.912 41.8925 45.1656 42.3378C45.4222 42.7802 45.5505 43.3008 45.5505 43.8994C45.5505 44.5011 45.4207 45.0187 45.1612 45.4522C44.9017 45.8828 44.5256 46.2131 44.0331 46.4432C43.5435 46.6732 42.9507 46.7882 42.2547 46.7882H39.8614V45.2487H41.9451C42.3108 45.2487 42.6145 45.1986 42.8564 45.0983C43.0982 44.998 43.2781 44.8476 43.3961 44.6471C43.517 44.4465 43.5775 44.1973 43.5775 43.8994C43.5775 43.5986 43.517 43.345 43.3961 43.1385C43.2781 42.9321 43.0967 42.7758 42.8519 42.6696C42.6101 42.5605 42.3049 42.5059 41.9362 42.5059H40.6444V49.9999H38.7289ZM43.6217 45.8769L45.8734 49.9999H43.7588L41.5558 45.8769H43.6217Z" fill="#222221"/>
<path d="M16.8751 54.5192V52.9399H24.316V54.5192H21.5423V61.9999H19.6489V54.5192H16.8751Z" fill="#222221"/>
<path d="M25.5414 61.9999V52.9399H31.6463V54.5192H27.4569V56.678H31.3322V58.2574H27.4569V60.4206H31.664V61.9999H25.5414Z" fill="#222221"/>
<path d="M33.1692 61.9999V52.9399H35.0848V60.4206H38.9689V61.9999H33.1692Z" fill="#222221"/>
<path d="M42.0302 61.9999H39.9776L43.1052 52.9399H45.5737L48.697 61.9999H46.6443L44.3749 55.0103H44.3041L42.0302 61.9999ZM41.9019 58.4387H46.7505V59.934H41.9019V58.4387Z" fill="#222221"/>
<path d="M36.5677 10.9999H33.356V1.93989H36.5943C37.5056 1.93989 38.2901 2.12127 38.9477 2.48403C39.6054 2.84383 40.1112 3.36142 40.4651 4.0368C40.822 4.71217 41.0004 5.52026 41.0004 6.46107C41.0004 7.40482 40.822 8.21586 40.4651 8.89419C40.1112 9.57251 39.6025 10.093 38.9389 10.4558C38.2783 10.8186 37.4879 10.9999 36.5677 10.9999ZM35.2715 9.35869H36.4881C37.0543 9.35869 37.5306 9.25842 37.917 9.05787C38.3063 8.85437 38.5983 8.54028 38.7929 8.11559C38.9905 7.68795 39.0893 7.13644 39.0893 6.46107C39.0893 5.79159 38.9905 5.24451 38.7929 4.81982C38.5983 4.39513 38.3078 4.08251 37.9214 3.88196C37.5351 3.68141 37.0588 3.58114 36.4925 3.58114H35.2715V9.35869Z" fill="#222221"/>
<path d="M42.4194 10.9999V1.93989H48.5243V3.51921H44.3349V5.67805H48.2102V7.25736H44.3349V9.42062H48.542V10.9999H42.4194Z" fill="#222221"/>
<path d="M54.9621 4.54554C54.9267 4.18868 54.7748 3.91145 54.5064 3.71386C54.2381 3.51626 53.8738 3.41746 53.4137 3.41746C53.1011 3.41746 52.8372 3.4617 52.6219 3.55017C52.4066 3.6357 52.2414 3.75515 52.1264 3.90851C52.0143 4.06187 51.9583 4.23587 51.9583 4.43052C51.9524 4.59273 51.9863 4.73429 52.06 4.85521C52.1367 4.97613 52.2414 5.08083 52.3741 5.1693C52.5068 5.25483 52.6602 5.33004 52.8342 5.39492C53.0082 5.45685 53.194 5.50994 53.3916 5.55418L54.2056 5.74883C54.6008 5.8373 54.9636 5.95527 55.2939 6.10274C55.6242 6.2502 55.9103 6.43158 56.1521 6.64687C56.3939 6.86216 56.5812 7.1158 56.7139 7.40777C56.8496 7.69975 56.9189 8.03448 56.9219 8.41199C56.9189 8.96644 56.7773 9.44717 56.4972 9.85416C56.2199 10.2582 55.8188 10.5723 55.2939 10.7964C54.7719 11.0176 54.1422 11.1282 53.4049 11.1282C52.6735 11.1282 52.0364 11.0162 51.4938 10.792C50.9541 10.5679 50.5323 10.2361 50.2286 9.79665C49.9277 9.35427 49.77 8.80718 49.7552 8.1554H51.6088C51.6295 8.45917 51.7165 8.71281 51.8698 8.9163C52.0261 9.11685 52.234 9.26874 52.4936 9.37196C52.7561 9.47224 53.0525 9.52237 53.3828 9.52237C53.7072 9.52237 53.9888 9.47519 54.2277 9.38081C54.4696 9.28643 54.6568 9.15519 54.7896 8.98709C54.9223 8.81898 54.9886 8.62581 54.9886 8.40756C54.9886 8.20407 54.9282 8.03301 54.8073 7.8944C54.6893 7.75578 54.5153 7.63781 54.2852 7.54049C54.0581 7.44316 53.7794 7.35469 53.4491 7.27506L52.4626 7.02732C51.6988 6.84152 51.0956 6.55102 50.6533 6.15582C50.2109 5.76062 49.9912 5.22829 49.9941 4.55881C49.9912 4.01025 50.1371 3.531 50.4321 3.12106C50.7299 2.71112 51.1384 2.39112 51.6575 2.16108C52.1765 1.93104 52.7664 1.81602 53.427 1.81602C54.0994 1.81602 54.6863 1.93104 55.1877 2.16108C55.692 2.39112 56.0843 2.71112 56.3644 3.12106C56.6446 3.531 56.7891 4.00583 56.798 4.54554H54.9621Z" fill="#222221"/>
<path d="M58.2103 10.9999V1.93989H64.3152V3.51921H60.1258V5.67805H64.0011V7.25736H60.1258V9.42062H64.3329V10.9999H58.2103Z" fill="#222221"/>
<path d="M73.4162 1.93989V10.9999H71.7617L67.82 5.2976H67.7537V10.9999H65.8381V1.93989H67.5192L71.4299 7.63781H71.5095V1.93989H73.4162Z" fill="#222221"/>
<path d="M74.9988 10.9999V1.93989H76.9143V5.67805H80.8029V1.93989H82.714V10.9999H80.8029V7.25736H76.9143V10.9999H74.9988Z" fill="#222221"/>
<path d="M85.8549 10.9999H83.8023L86.9299 1.93989H89.3984L92.5217 10.9999H90.469L88.1996 4.01025H88.1288L85.8549 10.9999ZM85.7267 7.43874H90.5752V8.934H85.7267V7.43874Z" fill="#222221"/>
<path d="M93.6122 10.9999V1.93989H97.1866C97.8709 1.93989 98.4548 2.06229 98.9385 2.30707C99.4251 2.54891 99.7952 2.89249 100.049 3.33783C100.305 3.78021 100.434 4.30075 100.434 4.89945C100.434 5.50109 100.304 6.01868 100.044 6.45222C99.7849 6.88281 99.4089 7.21312 98.9164 7.44316C98.4268 7.6732 97.834 7.78822 97.138 7.78822H94.7447V6.24872H96.8283C97.194 6.24872 97.4978 6.19859 97.7396 6.09831C97.9815 5.99804 98.1614 5.84763 98.2793 5.64708C98.4002 5.44653 98.4607 5.19732 98.4607 4.89945C98.4607 4.59863 98.4002 4.34499 98.2793 4.13855C98.1614 3.9321 97.98 3.77579 97.7352 3.66962C97.4934 3.5605 97.1881 3.50594 96.8195 3.50594H95.5277V10.9999H93.6122ZM98.5049 6.87691L100.757 10.9999H98.6421L96.439 6.87691H98.5049Z" fill="#222221"/>
<path d="M18.5822 101V91.9399H22.2098C22.8763 91.9399 23.4323 92.0387 23.8776 92.2363C24.3229 92.4339 24.6577 92.7082 24.8818 93.0591C25.1059 93.4071 25.218 93.8082 25.218 94.2624C25.218 94.6163 25.1472 94.9275 25.0057 95.1958C24.8641 95.4613 24.6695 95.6795 24.4217 95.8506C24.1769 96.0187 23.8968 96.1381 23.5812 96.2089V96.2974C23.9263 96.3121 24.2492 96.4095 24.55 96.5894C24.8538 96.7693 25.1 97.0214 25.2888 97.3458C25.4776 97.6673 25.5719 98.0507 25.5719 98.496C25.5719 98.9768 25.4525 99.4059 25.2136 99.7834C24.9777 100.158 24.6282 100.454 24.1651 100.673C23.7021 100.891 23.1314 101 22.4531 101H18.5822ZM20.4978 99.4339H22.0594C22.5932 99.4339 22.9825 99.3321 23.2273 99.1286C23.4721 98.9222 23.5945 98.6479 23.5945 98.3058C23.5945 98.0551 23.534 97.8339 23.4131 97.6422C23.2922 97.4505 23.1196 97.3001 22.8955 97.191C22.6743 97.0819 22.4103 97.0273 22.1036 97.0273H20.4978V99.4339ZM20.4978 95.7311H21.9178C22.1803 95.7311 22.4133 95.6854 22.6168 95.594C22.8232 95.4996 22.9854 95.3669 23.1034 95.1958C23.2243 95.0248 23.2848 94.8198 23.2848 94.5809C23.2848 94.2536 23.1683 93.9896 22.9353 93.7891C22.7053 93.5885 22.3779 93.4882 21.9532 93.4882H20.4978V95.7311Z" fill="#222221"/>
<path d="M35.144 96.4699C35.144 97.4579 34.9568 98.2984 34.5822 98.9915C34.2106 99.6846 33.7033 100.214 33.0604 100.58C32.4204 100.942 31.7008 101.124 30.9016 101.124C30.0964 101.124 29.3739 100.941 28.7339 100.575C28.0939 100.21 27.5881 99.6802 27.2165 98.9871C26.8449 98.294 26.6591 97.455 26.6591 96.4699C26.6591 95.4819 26.8449 94.6414 27.2165 93.9483C27.5881 93.2552 28.0939 92.7273 28.7339 92.3646C29.3739 91.9989 30.0964 91.816 30.9016 91.816C31.7008 91.816 32.4204 91.9989 33.0604 92.3646C33.7033 92.7273 34.2106 93.2552 34.5822 93.9483C34.9568 94.6414 35.144 95.4819 35.144 96.4699ZM33.202 96.4699C33.202 95.8299 33.1061 95.2902 32.9144 94.8508C32.7257 94.4113 32.4588 94.0781 32.1137 93.851C31.7686 93.6239 31.3646 93.5104 30.9016 93.5104C30.4385 93.5104 30.0345 93.6239 29.6894 93.851C29.3444 94.0781 29.076 94.4113 28.8843 94.8508C28.6955 95.2902 28.6012 95.8299 28.6012 96.4699C28.6012 97.1099 28.6955 97.6496 28.8843 98.089C29.076 98.5285 29.3444 98.8617 29.6894 99.0888C30.0345 99.3159 30.4385 99.4295 30.9016 99.4295C31.3646 99.4295 31.7686 99.3159 32.1137 99.0888C32.4588 98.8617 32.7257 98.5285 32.9144 98.089C33.1061 97.6496 33.202 97.1099 33.202 96.4699Z" fill="#222221"/>
<path d="M36.563 101V91.9399H40.1375C40.8217 91.9399 41.4056 92.0623 41.8893 92.3071C42.3759 92.5489 42.7461 92.8925 42.9997 93.3378C43.2563 93.7802 43.3846 94.3007 43.3846 94.8994C43.3846 95.5011 43.2548 96.0187 42.9953 96.4522C42.7357 96.8828 42.3597 97.2131 41.8672 97.4432C41.3776 97.6732 40.7848 97.7882 40.0888 97.7882H37.6955V96.2487H39.7791C40.1448 96.2487 40.4486 96.1986 40.6904 96.0983C40.9323 95.998 41.1122 95.8476 41.2301 95.6471C41.3511 95.4465 41.4115 95.1973 41.4115 94.8994C41.4115 94.5986 41.3511 94.345 41.2301 94.1385C41.1122 93.9321 40.9308 93.7758 40.686 93.6696C40.4442 93.5605 40.1389 93.5059 39.7703 93.5059H38.4785V101H36.563ZM41.4558 96.8769L43.7075 101H41.5929L39.3898 96.8769H41.4558Z" fill="#222221"/>
<path d="M44.7383 101V91.9399H48.3127C48.997 91.9399 49.5809 92.0623 50.0646 92.3071C50.5512 92.5489 50.9213 92.8925 51.175 93.3378C51.4315 93.7802 51.5598 94.3007 51.5598 94.8994C51.5598 95.5011 51.4301 96.0187 51.1705 96.4522C50.911 96.8828 50.535 97.2131 50.0425 97.4432C49.5529 97.6732 48.9601 97.7882 48.2641 97.7882H45.8708V96.2487H47.9544C48.3201 96.2487 48.6239 96.1986 48.8657 96.0983C49.1076 95.998 49.2875 95.8476 49.4054 95.6471C49.5263 95.4465 49.5868 95.1973 49.5868 94.8994C49.5868 94.5986 49.5263 94.345 49.4054 94.1385C49.2875 93.9321 49.1061 93.7758 48.8613 93.6696C48.6195 93.5605 48.3142 93.5059 47.9456 93.5059H46.6538V101H44.7383ZM49.631 96.8769L51.8828 101H49.7682L47.5651 96.8769H49.631Z" fill="#222221"/>
<path d="M54.4752 101H52.4225L55.5502 91.9399H58.0187L61.1419 101H59.0892L56.8198 94.0103H56.749L54.4752 101ZM54.3469 97.4387H59.1954V98.934H54.3469V97.4387Z" fill="#222221"/>
<path d="M69.8005 95.1118H67.8628C67.8274 94.8611 67.7552 94.6384 67.6461 94.4438C67.5369 94.2462 67.3969 94.0781 67.2258 93.9395C67.0547 93.8009 66.8571 93.6947 66.633 93.621C66.4118 93.5472 66.1715 93.5104 65.9119 93.5104C65.443 93.5104 65.0345 93.6269 64.6865 93.8598C64.3385 94.0899 64.0686 94.4261 63.8769 94.8685C63.6852 95.3079 63.5894 95.8417 63.5894 96.4699C63.5894 97.1158 63.6852 97.6585 63.8769 98.0979C64.0716 98.5373 64.3429 98.8691 64.6909 99.0933C65.0389 99.3174 65.4415 99.4295 65.8986 99.4295C66.1552 99.4295 66.3926 99.3956 66.6109 99.3277C66.8321 99.2599 67.0282 99.1611 67.1993 99.0313C67.3703 98.8986 67.5119 98.7379 67.6239 98.5491C67.739 98.3604 67.8186 98.1451 67.8628 97.9032L69.8005 97.9121C69.7503 98.3279 69.625 98.729 69.4245 99.1154C69.2269 99.4988 68.96 99.8424 68.6237 100.146C68.2905 100.447 67.8923 100.686 67.4293 100.863C66.9692 101.037 66.4487 101.124 65.8677 101.124C65.0596 101.124 64.337 100.941 63.7 100.575C63.0659 100.21 62.5645 99.6802 62.1959 98.9871C61.8302 98.294 61.6473 97.455 61.6473 96.4699C61.6473 95.4819 61.8331 94.6414 62.2047 93.9483C62.5763 93.2552 63.0807 92.7273 63.7177 92.3646C64.3547 91.9989 65.0714 91.816 65.8677 91.816C66.3926 91.816 66.8793 91.8898 67.3276 92.0372C67.7788 92.1847 68.1784 92.4 68.5264 92.6831C68.8744 92.9633 69.1575 93.3069 69.3758 93.7139C69.597 94.1209 69.7385 94.5868 69.8005 95.1118Z" fill="#222221"/>
<path d="M71.1741 101V91.9399H73.0896V95.678H76.9782V91.9399H78.8893V101H76.9782V97.2574H73.0896V101H71.1741Z" fill="#222221"/>
<path d="M82.0302 101H79.9775L83.1052 91.9399H85.5737L88.697 101H86.6443L84.3749 94.0103H84.3041L82.0302 101ZM81.9019 97.4387H86.7505V98.934H81.9019V97.4387Z" fill="#222221"/>
</svg>
