<svg width="153" height="193" viewBox="0 0 153 193" fill="none" xmlns="http://www.w3.org/2000/svg">
<path d="M90.78 58.5678C90.8743 58.3656 90.9309 58.1101 90.9026 57.8547C90.7234 56.3114 89.8747 54.8106 89.1674 53.8421C88.5355 52.9693 87.781 52.2668 86.9794 51.905C85.7911 50.4255 83.1883 51.2131 81.8868 51.1812C78.9444 51.1173 76.002 51.0854 73.0596 51.0854C67.1748 51.0854 61.29 51.2131 55.4052 51.4686C52.5948 51.5963 48.7659 50.4149 48.1529 56.354C47.7474 60.2708 48.2567 64.773 48.4358 68.7217C48.6716 74.0116 49.0111 79.2801 49.4166 84.5487C49.4261 84.7083 49.4638 84.836 49.5015 84.9638C49.3506 85.1341 49.2846 85.4321 49.2846 85.7301C49.2846 85.8578 49.2846 85.9962 49.3223 86.1345C49.8505 88.1142 50.3692 90.2642 51.0293 92.1588C50.8878 92.5739 51.001 93.2231 51.3877 93.2551C51.416 93.2551 51.4348 93.2551 51.4631 93.2551C51.6706 93.5318 51.963 93.5212 52.1704 93.2976C60.1677 93.8405 68.1839 93.8192 76.1812 93.7234C79.4914 93.6808 83.5089 94.6174 86.7342 93.2657C88.5166 92.5207 89.7521 90.6793 89.7426 87.5501C89.7426 87.4437 89.7238 87.3585 89.7049 87.2628C90.9969 78.0667 91.2516 67.9022 90.78 58.5785V58.5678ZM52.2647 53.7144C54.1792 52.9906 56.6029 53.5121 58.5645 53.4376C62.7706 53.2886 66.9673 53.2035 71.1734 53.1822C73.484 53.1822 75.7945 53.1822 78.1051 53.2141C79.7743 53.2354 82.9336 52.203 84.4048 53.3418C88.1017 56.1943 86.8568 70.2012 86.7908 75.8529C86.7531 78.9821 86.8757 79.8229 85.4328 82.3242C83.9804 84.8467 83.9333 84.5806 82.132 84.6019C80.0572 84.6232 77.9825 84.6019 75.9171 84.6019C67.5143 84.6125 59.0832 84.3464 50.6709 84.7402C50.6709 84.6764 50.6898 84.6125 50.6709 84.538C50.1617 77.9603 49.7656 71.372 49.5298 64.7517C49.3601 60.1431 48.5113 55.1406 52.2459 53.725L52.2647 53.7144ZM88.8562 86.7519C88.7524 86.8583 88.677 87.0286 88.6581 87.284C88.0923 93.2976 80.5948 91.5627 78.1051 91.6053C75.1344 91.6585 72.1731 91.6692 69.2024 91.6905C63.5345 91.7224 57.8666 91.6585 52.1987 91.7863C51.7555 89.9981 51.1519 88.2739 50.5578 86.6029C56.518 86.8689 62.5066 86.7093 68.4668 86.6987C71.3715 86.6987 74.2667 86.6987 77.1714 86.6987C79.6517 86.6987 82.4904 87.3053 84.9329 86.5284C88.262 85.4746 88.0168 80.5254 88.064 75.8635C88.1206 70.9249 88.064 65.9863 87.9319 61.0584C87.8848 59.4725 88.0923 56.4923 87.781 54.2572C88.0357 54.5446 88.2903 54.8532 88.5261 55.2151C89.0259 55.9921 89.3371 56.9181 89.7049 57.8121C89.6861 57.9186 89.6672 58.025 89.6578 58.1634C89.5635 67.7638 89.1579 77.2046 88.8562 86.7625V86.7519Z" fill="#585858"/>
<path d="M146.561 52.0589C146.71 50.0767 147.009 48.1329 147.226 46.1599C147.359 44.9265 147.211 43.7264 146.519 42.5775C146.223 42.0901 145.749 41.7575 145.372 41.3487C144.757 40.6572 143.959 40.2982 143.008 40.1688C142.311 40.0741 141.644 40.0192 140.939 40.1198C141.124 35.9614 136.653 31.8311 131.383 34.082C131.11 32.0245 130.747 29.9906 128.421 28.9054C126.307 27.9205 124.189 27.7218 121.963 28.8314C122.148 27.9805 122.423 27.2312 122.44 26.4648C122.471 24.842 122.875 23.27 123.024 21.6634C123.193 19.9163 123.136 18.1743 123.234 16.4355C123.315 14.8197 123.052 13.1927 122.891 11.5796C122.827 11.0345 123.083 10.5508 123.036 10.008C122.888 8.68269 122.492 7.39524 122.184 6.10179C121.885 4.8633 120.907 4.17591 119.66 3.93475C118.381 3.67142 117.159 4.00585 116.291 4.92464C115.664 5.59029 115.13 6.34002 114.887 7.23666C114.391 8.97495 113.844 10.7063 113.464 12.4783C113.138 13.9894 113.049 15.5327 112.62 17.0299C112.368 17.8715 112.061 18.7238 111.91 19.5793C111.721 20.5905 111.531 21.6017 111.177 22.5547C110.767 23.6611 110.714 24.8159 110.508 25.95C110.131 27.9549 109.871 29.9934 109.242 31.9461C108.647 33.7781 108.287 35.6601 107.981 37.5314C107.729 38.999 106.89 40.2079 106.656 41.803C105.949 41.2778 105.58 40.8163 105.266 40.3266C104.492 39.1486 103.774 37.9425 102.87 36.8361C101.802 35.5288 100.715 34.2367 99.2753 33.2541C98.0561 32.4267 96.682 31.7213 95.1901 31.5005C92.5798 31.1096 90.0537 31.499 87.74 32.6146C86.943 33.0067 86.2507 33.6456 86.1191 34.4859C85.9568 35.6795 86.3399 36.8044 87.3821 37.6613C88.0502 38.217 88.8223 38.6439 89.6498 38.9174C91.601 39.5762 93.0152 40.877 94.3954 42.1733C95.3479 43.0538 95.9711 44.1934 96.6719 45.272C97.5283 46.6043 97.9632 48.1117 98.8366 49.4462C99.8074 50.955 100.221 52.6203 100.709 54.2422C101.232 55.9939 101.449 57.8292 101.759 59.6234C102.176 62.1475 102.977 64.527 104.676 66.6534C105.206 67.3334 105.603 68.1025 105.966 68.867C106.502 70.0127 106.859 71.2054 107.468 72.3252C108.405 74.0797 108.76 75.7907 108.291 77.7115C107.967 79.0798 107.994 80.5317 107.568 81.8861C106.831 84.2531 106.327 86.6875 105.791 89.0998C105.702 89.4989 105.683 89.8897 105.786 90.2792C105.901 90.706 106.21 90.9804 106.678 91.0977C107.396 91.2848 107.822 91.0747 108.107 90.3804C108.459 89.5701 108.39 88.6846 108.674 87.8651C109.228 86.2062 109.465 84.4684 109.968 82.8026C110.469 81.1544 110.735 79.4563 111.017 77.7605C111.123 77.1133 111.33 76.48 111.248 75.8074C111.091 74.5523 110.773 73.3291 110.331 72.1248C109.79 70.6387 108.996 69.2256 108.108 67.8711C107.663 67.2027 107.491 66.4285 106.971 65.8034C105.59 64.1316 105.275 62.1221 104.508 60.2656C104.43 60.0762 104.405 59.8762 104.397 59.6784C104.249 57.2089 103.429 54.8446 102.75 52.4637C102.396 51.2534 101.901 50.0598 101.387 48.8813C100.953 47.8747 100.352 46.9527 99.9521 45.9507C99.2158 44.1163 97.886 42.5766 96.687 40.9653C96.0863 40.1685 95.2824 39.5942 94.5026 38.9697C93.0791 37.8642 91.6074 36.8595 89.9082 36.1277C89.566 35.9739 89.26 35.8071 89.0194 35.5419C88.701 35.2126 88.7344 34.9668 89.1292 34.7345C89.5628 34.4716 90.0062 34.2638 90.4933 34.1155C92.6939 33.4494 94.8181 33.345 96.9282 34.6154C98.9096 35.8147 100.276 37.4666 101.543 39.2123C102.533 40.5806 103.315 42.0815 104.545 43.3394C105.06 43.8744 105.693 44.1751 106.429 44.3645C106.929 44.504 107.423 44.4283 107.774 44.1363C108.549 43.5266 109.277 42.8748 109.312 41.8603C109.33 41.2192 109.583 40.6279 109.868 40.0588C109.986 39.8246 110.139 39.595 110.158 39.3294C110.348 37.5495 110.975 35.8648 111.369 34.1126C112.126 30.8365 113.002 27.5766 113.543 24.2353C113.643 23.6232 113.782 22.9807 114.031 22.4245C114.528 21.3121 114.756 20.1453 114.812 18.9729C114.887 17.5348 115.328 16.2003 115.536 14.7983C115.789 12.9376 116.597 11.1882 116.952 9.34132C117.058 8.81932 117.13 8.29271 117.335 7.80212C117.624 7.07271 118.074 6.43662 118.968 6.2186C119.361 6.12899 119.79 6.15163 119.833 6.60434C119.939 7.60215 120.402 8.52328 120.455 9.53171C120.516 10.863 120.269 12.1703 120.366 13.4887C120.616 16.9912 120.64 20.4988 120.168 23.9744C120.089 24.5537 119.906 25.1367 119.827 25.716C119.567 27.6294 119.542 29.5926 119.162 31.4898C118.786 33.3695 118.411 35.2316 118.035 37.1112C117.977 37.4073 117.885 37.6988 117.864 37.982C117.817 38.5835 118.315 39.1161 119.038 39.2681C119.526 39.3702 120.136 39.0778 120.339 38.6047C120.494 38.2324 120.631 37.8578 120.667 37.4693C120.778 36.3939 120.924 35.3231 121.574 34.3567C121.833 33.9807 121.948 33.5137 122.078 33.0665C122.314 32.2225 122.795 31.4834 123.354 30.8085C123.685 30.4066 124.114 30.0537 124.728 30.1193C125.562 30.215 126.385 30.3984 127.125 30.8031C128.49 31.5787 128.982 32.7899 128.878 34.063C128.73 36.1704 129.03 38.2852 128.833 40.3681C128.797 40.6315 128.779 40.8971 128.813 41.1521C128.856 41.73 129.203 42.0991 129.773 42.2303C130.329 42.3416 130.988 42.0737 131.227 41.5877C131.394 41.2528 131.509 40.911 131.508 40.5354C131.497 39.4789 131.657 38.428 131.439 37.3614C131.306 36.6819 131.507 36.4768 132.251 36.2204C132.796 36.0264 133.339 35.8499 133.885 35.6559C134.357 35.4878 134.883 35.5594 135.289 35.7576C135.937 36.0782 136.585 36.3988 137.144 36.8681C137.781 37.4017 138.146 38.0235 138.142 38.8097C138.139 39.3456 138.101 39.8768 138.221 40.3937C138.669 42.1889 138.267 43.8685 137.611 45.5135C137.353 46.1399 137.626 46.8028 138.196 47.0591C138.818 47.3225 139.421 47.0827 139.803 46.4374C139.895 46.2711 139.957 46.0651 140.049 45.8988C140.428 45.1458 140.472 44.3115 140.636 43.4934C140.844 42.3418 141.159 42.188 142.481 42.3857C143.127 42.4735 143.569 42.7839 143.902 43.2584C144.264 43.7725 144.481 44.3384 144.483 44.9643C144.48 47.02 144.069 49.0202 143.998 51.0666C143.959 52.1162 143.578 53.1371 143.471 54.1774C143.3 55.8168 142.998 57.4027 142.64 59.0167C142.263 60.646 141.621 62.1856 140.901 63.6611C139.982 65.592 138.928 67.4869 137.438 69.1614C136.231 70.5347 135.308 72.1077 133.94 73.3877C133.366 73.9175 133.026 74.64 132.53 75.2341C131.321 76.7501 130.983 78.5993 130.234 80.2854C129.206 82.6307 128.608 85.1238 128.13 87.6155C127.672 89.9668 127.248 92.3227 127.027 94.7064C126.98 95.0575 127.024 95.3674 127.209 95.6608C127.452 96.0336 127.824 96.2271 128.306 96.2391C128.823 96.2558 129.147 96.0317 129.338 95.6465C129.435 95.4451 129.519 95.2062 129.55 94.978C129.9 92.0221 130.639 89.1368 131.156 86.2214C131.518 84.1967 132.13 82.2418 133.123 80.4102C133.304 80.0951 133.405 79.7334 133.553 79.4138C134.016 78.422 134.268 77.3299 134.943 76.4384C136.249 74.7209 137.633 73.0676 138.987 71.3746C140.509 69.4719 141.95 67.5225 142.974 65.3375C144.099 62.916 144.894 60.3781 145.57 57.824C145.813 56.9274 146.124 56.04 146.112 55.1087C146.099 54.5705 146.219 54.0684 146.324 53.5464C146.43 53.0244 146.553 52.5047 146.588 51.991L146.561 52.0589Z" fill="#585858"/>
<path d="M137.838 121.034C137.46 119.929 137.15 118.813 136.654 117.726C135.908 116.14 133.666 116.254 132.701 117.263C132.433 117.537 132.237 117.836 132.025 118.137C131.572 118.78 131.302 119.484 131.225 120.212C131.084 121.649 131.034 123.107 130.93 124.555C130.918 124.7 130.981 124.887 130.722 124.999C130.735 124.299 130.82 123.623 130.765 122.933C130.714 122.154 130.887 121.375 130.799 120.583C130.68 119.366 130.681 118.148 130.77 116.935C130.912 115.176 130.745 113.429 130.699 111.681C130.661 110.649 130.585 109.604 130.429 108.59C130.139 106.719 128.612 106.435 127.119 106.935C125.972 107.327 125.028 108.135 124.374 109.15C124.014 109.725 123.693 110.329 123.351 110.901C123.048 111.396 122.812 111.88 122.638 112.426C122.4 113.233 122.182 114.054 121.944 114.861C121.684 115.743 121.426 116.642 121.398 117.577C121.375 118.208 121.447 118.895 121.241 119.464C120.953 120.278 121.005 121.058 120.975 121.868C120.963 122.354 121.146 122.863 121.084 123.356C120.984 124.159 121.119 124.926 121.137 125.711C121.171 126.708 121.218 127.686 121.01 128.685C120.961 128.925 120.901 129.203 121.04 129.432C121.162 129.664 121.037 129.862 120.966 130.07C120.81 129.844 120.968 129.64 121.04 129.432C120.652 129.492 120.699 129.127 120.717 129.017C120.827 128.391 120.37 127.889 120.331 127.304C120.302 127.004 120.34 126.693 120.244 126.404C119.957 125.553 119.805 124.681 119.583 123.802C119.331 122.839 119.331 121.836 119.264 120.844C119.112 118.969 118.64 117.144 118.573 115.257C118.558 114.829 118.241 114.449 118.36 114.108C118.595 113.391 118.225 112.786 118.209 112.126C118.196 111.036 117.942 109.947 117.911 108.859C117.902 108.467 117.745 108.115 117.702 107.728C117.595 106.813 117.587 105.866 116.929 105.072C116.843 104.96 116.869 104.795 116.811 104.643C116.455 103.57 115.589 102.092 113.876 102.393C112.898 102.544 112.049 102.854 111.377 103.639C110.47 104.692 109.93 105.886 109.427 107.091C109.051 108.009 108.983 109.022 108.823 109.996C108.73 110.511 108.674 111.039 108.702 111.554C108.732 112.087 108.743 112.604 108.721 113.127C108.691 114.278 108.645 115.431 108.703 116.585C108.764 117.758 108.962 118.927 109.109 120.104C109.186 120.826 109.317 121.558 109.343 122.288C109.36 122.733 109.484 123.197 109.276 123.749C109.094 123.132 108.946 122.618 108.761 122.091C108.515 121.395 108.548 120.602 108.094 120.01C107.685 119.482 107.579 118.908 107.487 118.313C107.406 117.789 107.274 117.272 107.126 116.758C106.889 115.899 106.67 115.038 106.45 114.176C106.349 113.744 106.102 113.371 106.031 112.916C105.902 112.077 105.772 111.237 105.493 110.439C105.25 109.76 105.019 109.044 104.694 108.396C104.012 106.997 103.789 105.438 102.828 104.136C102.258 103.347 101.555 103.044 100.483 103.246C99.6765 103.388 99.2555 103.901 98.6807 104.312C97.5198 105.172 96.8793 106.274 96.342 107.485C96.0888 108.079 96.147 108.679 96.0846 109.279C95.9718 110.335 95.8253 111.396 95.7995 112.457C95.7922 112.744 95.9506 112.988 95.8928 113.284C95.7186 114.278 95.8222 115.282 95.8024 116.27C95.7852 117.275 95.7594 118.336 96.3151 119.252C96.3624 119.335 96.3395 119.41 96.3503 119.48C96.4287 119.987 96.4929 120.514 96.6333 120.976C96.7987 121.487 97.0004 122.011 97.132 122.528C97.4662 123.909 97.8988 125.257 98.264 126.615C98.5468 127.663 98.7623 128.722 99.0114 129.776C99.2443 130.724 99.2414 131.71 99.6091 132.638C99.8081 133.144 99.9479 133.713 99.9784 134.246C100.023 135.313 100.216 136.34 100.409 137.366C100.61 138.445 100.573 139.543 100.69 140.635C100.783 141.462 100.672 142.303 100.664 143.146C100.64 143.884 100.636 144.636 100.079 145.277C100.023 145.358 99.9102 145.411 99.8786 145.541C99.6215 146.333 99.0097 146.839 98.1802 147.165C97.6289 147.393 97.0501 147.554 96.4604 147.645C95.5195 147.809 94.5504 148.012 93.6142 147.87C92.2379 147.671 90.8763 147.345 89.5201 147.053C88.7355 146.888 87.9711 146.63 87.1751 146.502C85.8998 146.288 84.616 146.576 83.3773 146.821C81.7342 147.129 80.2262 147.863 78.8435 148.739C77.9622 149.287 77.298 150.124 76.6957 150.915C75.8814 152.008 75.9358 153.253 76.1756 154.469C76.3113 155.236 76.7962 155.806 77.572 156.026C78.6923 156.354 79.8638 156.567 81.089 156.235C82.3168 155.919 83.5738 155.904 84.8133 155.999C85.9126 156.08 86.9971 156.288 88.0467 156.717C89.2419 157.194 90.2902 157.838 91.2846 158.58C91.8516 159.011 92.3566 159.488 92.8024 160.028C93.1672 160.491 93.749 160.795 94.0828 161.281C94.2858 161.589 94.5481 161.835 94.8299 162.096C95.0113 162.265 95.1785 162.454 95.2837 162.688C95.8598 163.96 96.971 164.899 97.8907 165.938C98.5596 166.694 99.1524 167.516 99.9311 168.201C100.632 168.827 101.284 169.478 102.089 169.998C102.55 170.303 103.119 170.412 103.578 170.699C104.444 171.281 105.449 171.645 106.423 172.032C106.902 172.226 107.451 172.321 107.944 172.495C108.658 172.761 109.428 172.946 110.177 172.991C111.414 173.069 112.298 173.541 113.214 174.223C114.228 174.979 114.949 175.96 115.912 176.724C116.839 177.476 117.538 178.425 118.437 179.217C119.176 179.872 119.826 180.614 120.503 181.315C121.1 181.939 121.759 182.517 122.372 183.138C123.231 184.008 124.375 184.601 125.209 185.529C125.354 185.686 125.51 185.805 125.726 185.861C126.07 185.969 126.435 185.984 126.681 185.677C126.91 185.373 126.945 185.046 126.689 184.727C126.043 183.896 125.448 183.057 124.787 182.246C124.253 181.577 123.687 180.93 123.093 180.323C122.276 179.501 121.273 178.814 120.56 177.886C120.301 177.55 120.02 177.182 119.701 176.909C118.959 176.235 118.276 175.5 117.55 174.824C116.708 174.059 115.896 173.271 115.084 172.484C114.861 172.267 114.562 172.117 114.322 171.903C113.917 171.518 113.437 171.091 112.837 171.005C112.044 170.894 111.265 170.657 110.475 170.564C109.28 170.426 108.163 170.008 107.054 169.642C106.234 169.357 105.521 168.877 104.783 168.454C103.76 167.86 102.827 167.18 101.953 166.438C101.06 165.681 100.209 164.864 99.5128 163.933C99.1844 163.482 98.732 163.122 98.3922 162.709C98.0968 162.361 97.8466 161.97 97.5485 161.604C96.9578 160.908 96.2715 160.262 95.771 159.48C95.3873 158.894 94.7947 158.521 94.3038 158.023C92.7948 156.52 91.0427 155.34 88.9429 154.591C88.0834 154.276 87.2327 153.906 86.2817 153.892C85.297 153.883 84.3452 153.529 83.3229 153.723C83.1207 153.754 82.8794 153.755 82.6637 153.699C81.7618 153.445 80.885 153.688 80.0474 153.96C79.1113 154.266 78.7756 154.103 78.8117 153.22C78.8423 152.302 79.3239 151.512 80.0428 150.917C80.6687 150.391 81.4342 149.986 82.2468 149.663C83.3688 149.221 84.5428 149.004 85.7357 148.909C86.9792 148.807 88.1952 149.084 89.3775 149.367C90.2908 149.584 91.153 149.916 92.0832 150.13C93.8148 150.507 95.5631 150.434 97.3045 150.093C98.0741 149.938 98.7749 149.561 99.5061 149.269C99.9306 149.114 100.277 148.9 100.637 148.665C101.308 148.203 101.78 147.575 102.238 146.967C102.467 146.663 102.878 146.42 102.937 146.018C103.019 145.324 103.295 144.655 103.361 143.964C103.453 143.109 103.405 142.239 103.46 141.371C103.479 141.046 103.366 140.759 103.337 140.459C103.282 139.321 103.176 138.192 103.107 137.075C103.019 135.727 102.364 134.504 102.296 133.171C102.249 132.194 102.027 131.207 101.845 130.251C101.643 129.279 101.388 128.298 101.133 127.317C100.713 125.717 100.461 124.09 99.9432 122.523C99.4803 121.091 99.2195 119.627 98.8381 118.164C98.6187 117.303 98.6574 116.437 98.6402 115.545C98.6209 114.527 98.6522 113.502 98.5122 112.485C98.4041 111.785 98.6721 111.064 98.5666 110.382C98.4558 109.665 98.5971 109.016 98.8003 108.322C99.1268 107.197 99.8887 106.435 100.754 105.675C101.177 106.29 101.564 106.892 101.725 107.601C102.01 108.775 102.329 109.943 102.808 111.033C103.392 112.357 103.625 113.754 104.091 115.096C104.381 115.964 104.628 116.893 104.723 117.845C104.777 118.303 104.819 118.797 104.954 119.224C105.265 120.125 105.661 121.013 106.167 121.83C106.653 122.632 106.623 123.55 106.994 124.388C107.124 124.672 107.063 125.057 107.148 125.385C107.29 125.971 107.545 126.505 107.719 127.069C107.915 127.665 107.995 128.297 108.042 128.935C108.081 129.412 108.478 129.745 108.565 130.197C108.667 130.861 108.835 131.498 108.971 132.157C109.233 133.406 109.464 134.677 109.794 135.916C110.049 136.897 110.321 137.875 110.823 138.782C111.109 139.293 111.601 139.575 112.155 139.472C112.641 139.379 112.833 139.062 112.91 138.442C113.04 137.383 112.824 136.324 112.934 135.251C113.095 133.615 113.063 131.955 112.64 130.337C112.363 129.216 112.542 128.024 112.296 126.881C112.121 126.084 112.28 125.218 112.091 124.441C111.828 123.408 111.716 122.351 111.607 121.311C111.552 120.729 111.668 120.138 111.595 119.558C111.445 118.364 111.09 117.183 111.316 115.967C111.435 115.286 111.332 114.621 111.384 113.951C111.414 113.588 111.408 113.213 111.402 112.838C111.375 112.108 111.208 111.364 111.341 110.663C111.608 109.261 111.908 107.854 112.51 106.507C112.755 105.968 113.111 105.483 113.468 104.999C113.68 104.697 114.03 104.732 114.194 105.012C114.797 106.011 115.136 107.086 115.295 108.225C115.433 109.117 115.366 110.023 115.503 110.915C115.628 111.719 115.803 112.516 115.823 113.318C115.854 114.854 116.021 116.385 115.984 117.931C115.972 118.524 116.016 119.143 116.106 119.721C116.279 120.732 116.571 121.726 116.697 122.763C116.79 123.59 116.951 124.406 117.179 125.213C117.374 125.917 117.451 126.639 117.68 127.338C118.019 128.413 118.225 129.527 118.499 130.631C118.68 131.355 118.864 132.096 118.975 132.813C119.18 134.142 119.453 135.461 119.894 136.753C120.087 137.332 120.41 137.856 121.031 138.189C121.559 138.484 122.084 138.42 122.37 137.928C122.696 137.359 123.084 136.744 122.967 136.099C122.846 135.312 123.021 134.551 123.144 133.78C123.351 132.441 123.715 131.114 123.625 129.749C123.545 128.562 123.619 127.368 123.78 126.18C123.927 125.119 123.638 124.035 123.695 122.952C123.736 122.212 123.547 121.435 123.759 120.686C124.1 119.541 123.921 118.387 124.192 117.235C124.514 115.86 124.889 114.495 125.338 113.155C125.435 112.889 125.358 112.614 125.536 112.318C125.766 111.907 126.091 111.552 126.284 111.128C126.551 110.514 126.841 109.932 127.469 109.531C127.579 109.46 127.577 109.227 127.812 109.299C128.048 109.37 128.024 109.552 128.034 109.73C128.139 110.627 127.985 111.528 128.103 112.405C128.275 113.632 128.153 114.85 128.188 116.08C128.204 116.633 127.929 117.195 127.959 117.727C128.031 118.862 127.949 120.003 128.125 121.139C128.214 121.716 128.036 122.353 128.168 122.869C128.371 123.626 128.319 124.404 128.292 125.124C128.247 126.062 128.203 127 128.192 127.933C128.187 128.686 128.303 129.437 128.212 130.186C128.071 131.282 128.154 132.379 128.167 133.469C128.213 135.217 128.563 136.918 128.965 138.628C129.097 139.145 129.4 139.545 129.986 139.652C130.574 139.776 131.147 139.687 131.593 139.224C131.858 138.933 131.734 138.576 131.862 138.288C132.362 137.279 132.231 136.207 132.363 135.166C132.52 133.835 132.502 132.495 132.639 131.149C132.708 130.476 132.841 129.775 132.859 129.109C132.899 127.474 133.36 125.881 133.451 124.237C133.517 122.991 134.091 121.793 133.981 120.521C133.952 120.221 134.074 119.897 134.168 119.614C134.232 119.354 134.228 118.996 134.572 118.764C134.622 118.864 134.669 118.946 134.696 119.013C134.995 119.719 135.078 120.476 135.295 121.213C135.441 121.709 135.575 122.244 135.673 122.766C135.782 123.358 135.759 123.988 135.848 124.565C136.026 125.719 136.07 126.894 135.988 128.035C135.929 128.993 136.019 129.91 136.044 130.855C136.046 131.875 136.136 132.9 136.105 133.925C136.068 134.808 135.878 135.697 135.873 136.557C135.866 138.188 135.041 139.658 134.875 141.26C134.88 141.295 134.869 141.332 134.855 141.352C134.061 142.8 133.628 144.353 133.282 145.91C132.844 147.876 131.972 149.712 131.192 151.587C130.754 152.658 130.131 153.649 129.875 154.781C129.8 155.079 129.68 155.42 129.393 155.679C129.167 155.893 129.005 156.187 128.953 156.517C128.9 156.847 128.764 157.191 128.563 157.455C128.306 157.799 128.11 158.205 127.993 158.563C127.626 159.766 127.577 161.009 128.171 162.171C128.789 163.382 129.425 164.591 130.175 165.764C130.767 166.693 131.622 167.42 132.211 168.332C132.825 169.293 133.586 170.196 134.299 171.125C134.883 171.894 135.516 172.638 136.225 173.316C136.732 173.81 137.212 174.345 137.719 174.84C138.537 175.662 139.137 176.644 139.985 177.444C140.591 178.013 141.277 178.103 141.855 177.71C142.37 177.361 142.391 176.714 141.982 176.079C141.476 175.261 140.709 174.646 140.158 173.872C139.915 173.533 139.749 173.129 139.462 172.833C138.648 172.028 138.022 171.104 137.222 170.279C136.569 169.628 135.992 168.911 135.416 168.195C134.923 167.573 134.348 166.981 133.92 166.331C133.339 165.472 132.633 164.704 132.159 163.756C131.685 162.809 130.997 161.931 130.619 160.933C130.326 160.154 130.061 159.336 130.644 158.53C131.269 157.663 131.527 156.656 132.043 155.753C132.613 154.752 133.054 153.699 133.459 152.633C133.655 152.12 134.031 151.65 134.175 151.126C134.556 149.796 135.135 148.525 135.64 147.211C136.01 146.259 136.361 145.291 136.658 144.314C137.102 142.831 137.492 141.338 137.899 139.843C138.129 138.984 138.339 138.11 138.358 137.23C138.379 136.474 138.577 135.746 138.668 134.997C138.76 134.249 138.798 133.491 138.785 132.741C138.758 131.564 138.678 130.376 138.601 129.206C138.564 128.747 138.615 128.291 138.595 127.829C138.573 127.349 138.41 126.855 138.491 126.376C138.61 125.696 138.584 124.966 138.436 124.344C138.184 123.273 138.252 122.152 137.897 121.079L137.838 121.034Z" fill="#585858"/>
<path d="M76 66.0195H72.4352C72.37 65.5616 72.2371 65.1549 72.0364 64.7994C71.8356 64.4385 71.5779 64.1315 71.2632 63.8783C70.9485 63.6252 70.5849 63.4312 70.1725 63.2966C69.7656 63.1619 69.3234 63.0946 68.8459 63.0946C67.9832 63.0946 67.2317 63.3074 66.5914 63.7329C65.9512 64.153 65.4547 64.7671 65.102 65.5751C64.7493 66.3777 64.573 67.3527 64.573 68.5C64.573 69.6797 64.7493 70.6708 65.102 71.4734C65.4601 72.276 65.9593 72.882 66.5996 73.2914C67.2398 73.7007 67.9805 73.9054 68.8215 73.9054C69.2935 73.9054 69.7303 73.8435 70.1319 73.7196C70.5388 73.5957 70.8996 73.4152 71.2143 73.1782C71.529 72.9358 71.7895 72.6423 71.9957 72.2975C72.2073 71.9528 72.3538 71.5596 72.4352 71.1179L76 71.134C75.9078 71.8935 75.6772 72.6261 75.3082 73.3317C74.9447 74.032 74.4536 74.6595 73.8351 75.2144C73.2219 75.7638 72.4894 76.2001 71.6375 76.5233C70.7911 76.8411 69.8334 77 68.7645 77C67.2778 77 65.9485 76.666 64.7765 75.9981C63.6099 75.3302 62.6875 74.3633 62.0092 73.0974C61.3364 71.8316 61 70.2991 61 68.5C61 66.6955 61.3418 65.1603 62.0255 63.8945C62.7092 62.6286 63.637 61.6644 64.809 61.0019C65.981 60.334 67.2995 60 68.7645 60C69.7303 60 70.6256 60.1347 71.4504 60.404C72.2805 60.6733 73.0157 61.0665 73.656 61.5836C74.2963 62.0954 74.8171 62.7229 75.2187 63.4663C75.6256 64.2096 75.8861 65.0607 76 66.0195Z" fill="#585858"/>
<path d="M54.9817 119V109.94H58.5562C59.2433 109.94 59.8288 110.071 60.3124 110.334C60.7961 110.593 61.1648 110.954 61.4184 111.418C61.675 111.878 61.8033 112.408 61.8033 113.01C61.8033 113.612 61.6735 114.143 61.414 114.603C61.1544 115.063 60.7784 115.421 60.2859 115.678C59.7963 115.934 59.2035 116.063 58.5075 116.063H56.2292V114.527H58.1978C58.5665 114.527 58.8703 114.464 59.1091 114.337C59.351 114.207 59.5309 114.029 59.6489 113.802C59.7698 113.572 59.8302 113.308 59.8302 113.01C59.8302 112.709 59.7698 112.447 59.6489 112.223C59.5309 111.996 59.351 111.82 59.1091 111.696C58.8673 111.569 58.5606 111.506 58.189 111.506H56.8972V119H54.9817ZM63.5629 119H61.5102L64.6379 109.94H67.1064L70.2296 119H68.1769L65.9075 112.01H65.8367L63.5629 119ZM63.4346 115.439H68.2831V116.934H63.4346V115.439ZM71.3201 119V109.94H73.2356V117.421H77.1197V119H71.3201ZM78.3883 109.94H80.7506L83.2457 116.027H83.3518L85.8469 109.94H88.2092V119H86.3512V113.103H86.276L83.9314 118.956H82.6661L80.3215 113.081H80.2463V119H78.3883V109.94ZM49.0814 131V121.94H55.1863V123.519H50.9969V125.678H54.8722V127.257H50.9969V129.421H55.204V131H49.0814ZM56.7092 131V121.94H60.2837C60.9679 121.94 61.5518 122.062 62.0355 122.307C62.5221 122.549 62.8923 122.893 63.1459 123.338C63.4025 123.78 63.5308 124.301 63.5308 124.9C63.5308 125.501 63.401 126.019 63.1415 126.452C62.882 126.883 62.5059 127.213 62.0134 127.443C61.5238 127.673 60.931 127.788 60.235 127.788H57.8417V126.249H59.9253C60.291 126.249 60.5948 126.199 60.8367 126.098C61.0785 125.998 61.2584 125.848 61.3764 125.647C61.4973 125.447 61.5577 125.197 61.5577 124.9C61.5577 124.599 61.4973 124.345 61.3764 124.139C61.2584 123.932 61.077 123.776 60.8322 123.67C60.5904 123.561 60.2852 123.506 59.9165 123.506H58.6247V131H56.7092ZM61.602 126.877L63.8537 131H61.7391L59.536 126.877H61.602ZM66.4461 131H64.3934L67.5211 121.94H69.9896L73.1128 131H71.0602L68.7907 124.01H68.72L66.4461 131ZM66.3178 127.439H71.1664V128.934H66.3178V127.439ZM78.9114 124.546C78.876 124.189 78.7241 123.912 78.4557 123.714C78.1874 123.516 77.8231 123.418 77.3631 123.418C77.0504 123.418 76.7865 123.462 76.5712 123.55C76.3559 123.636 76.1907 123.755 76.0757 123.909C75.9636 124.062 75.9076 124.236 75.9076 124.431C75.9017 124.593 75.9356 124.734 76.0094 124.855C76.086 124.976 76.1907 125.081 76.3235 125.169C76.4562 125.255 76.6095 125.33 76.7835 125.395C76.9575 125.457 77.1433 125.51 77.3409 125.554L78.1549 125.749C78.5501 125.837 78.9129 125.955 79.2432 126.103C79.5735 126.25 79.8596 126.432 80.1014 126.647C80.3433 126.862 80.5305 127.116 80.6633 127.408C80.7989 127.7 80.8682 128.035 80.8712 128.412C80.8682 128.967 80.7267 129.447 80.4465 129.854C80.1693 130.258 79.7682 130.572 79.2432 130.797C78.7212 131.018 78.0915 131.128 77.3542 131.128C76.6228 131.128 75.9858 131.016 75.4431 130.792C74.9034 130.568 74.4817 130.236 74.1779 129.797C73.8771 129.354 73.7193 128.807 73.7045 128.155H75.5581C75.5788 128.459 75.6658 128.713 75.8191 128.916C75.9754 129.117 76.1834 129.269 76.4429 129.372C76.7054 129.472 77.0018 129.522 77.3321 129.522C77.6565 129.522 77.9382 129.475 78.177 129.381C78.4189 129.286 78.6062 129.155 78.7389 128.987C78.8716 128.819 78.9379 128.626 78.9379 128.408C78.9379 128.204 78.8775 128.033 78.7566 127.894C78.6386 127.756 78.4646 127.638 78.2346 127.541C78.0075 127.443 77.7288 127.355 77.3984 127.275L76.4119 127.027C75.6481 126.842 75.045 126.551 74.6026 126.156C74.1602 125.761 73.9405 125.228 73.9434 124.559C73.9405 124.01 74.0865 123.531 74.3814 123.121C74.6793 122.711 75.0877 122.391 75.6068 122.161C76.1259 121.931 76.7157 121.816 77.3763 121.816C78.0488 121.816 78.6357 121.931 79.137 122.161C79.6413 122.391 80.0336 122.711 80.3138 123.121C80.5939 123.531 80.7385 124.006 80.7473 124.546H78.9114ZM82.1596 131V121.94H88.2645V123.519H84.0751V125.678H87.9504V127.257H84.0751V129.421H88.2822V131H82.1596Z" fill="#585858"/>
<path d="M6.98169 62V52.94H10.5562C11.2433 52.94 11.8288 53.0712 12.3124 53.3337C12.7961 53.5932 13.1648 53.9545 13.4184 54.4175C13.675 54.8776 13.8033 55.4085 13.8033 56.0101C13.8033 56.6117 13.6735 57.1426 13.414 57.6027C13.1544 58.0628 12.7784 58.4211 12.2859 58.6777C11.7963 58.9343 11.2035 59.0626 10.5075 59.0626H8.22922V57.5275H10.1978C10.5665 57.5275 10.8703 57.4641 11.1091 57.3373C11.351 57.2075 11.5309 57.0291 11.6489 56.802C11.7698 56.5719 11.8302 56.308 11.8302 56.0101C11.8302 55.7093 11.7698 55.4468 11.6489 55.2227C11.5309 54.9956 11.351 54.8201 11.1091 54.6962C10.8673 54.5694 10.5606 54.506 10.189 54.506H8.89722V62H6.98169ZM15.5629 62H13.5102L16.6379 52.94H19.1064L22.2296 62H20.1769L17.9075 55.0103H17.8367L15.5629 62ZM15.4346 58.4388H20.2831V59.9341H15.4346V58.4388ZM23.3201 62V52.94H25.2356V60.4207H29.1197V62H23.3201ZM30.3883 52.94H32.7506L35.2457 59.0272H35.3518L37.8469 52.94H40.2092V62H38.3512V56.103H38.276L35.9314 61.9558H34.6661L32.3215 56.0809H32.2463V62H30.3883V52.94ZM1.08138 74V64.94H7.18629V66.5193H2.99691V68.6781H6.8722V70.2574H2.99691V72.4207H7.20399V74H1.08138ZM8.7092 74V64.94H12.2837C12.9679 64.94 13.5518 65.0623 14.0355 65.3071C14.5221 65.549 14.8923 65.8926 15.1459 66.3379C15.4025 66.7803 15.5308 67.3008 15.5308 67.8995C15.5308 68.5012 15.401 69.0187 15.1415 69.4523C14.882 69.8829 14.5059 70.2132 14.0134 70.4432C13.5238 70.6733 12.931 70.7883 12.235 70.7883H9.84171V69.2488H11.9253C12.291 69.2488 12.5948 69.1986 12.8367 69.0984C13.0785 68.9981 13.2584 68.8477 13.3764 68.6471C13.4973 68.4466 13.5577 68.1974 13.5577 67.8995C13.5577 67.5987 13.4973 67.3451 13.3764 67.1386C13.2584 66.9322 13.077 66.7759 12.8322 66.6697C12.5904 66.5606 12.2852 66.506 11.9165 66.506H10.6247V74H8.7092ZM13.602 69.877L15.8537 74H13.7391L11.536 69.877H13.602ZM18.4461 74H16.3934L19.5211 64.94H21.9896L25.1128 74H23.0602L20.7907 67.0103H20.72L18.4461 74ZM18.3178 70.4388H23.1664V71.9341H18.3178V70.4388ZM30.9114 67.5456C30.876 67.1887 30.7241 66.9115 30.4557 66.7139C30.1874 66.5163 29.8231 66.4175 29.3631 66.4175C29.0504 66.4175 28.7865 66.4618 28.5712 66.5502C28.3559 66.6358 28.1907 66.7552 28.0757 66.9086C27.9636 67.0619 27.9076 67.2359 27.9076 67.4306C27.9017 67.5928 27.9356 67.7344 28.0094 67.8553C28.086 67.9762 28.1907 68.0809 28.3235 68.1694C28.4562 68.2549 28.6095 68.3301 28.7835 68.395C28.9575 68.4569 29.1433 68.51 29.3409 68.5542L30.1549 68.7489C30.5501 68.8374 30.9129 68.9553 31.2432 69.1028C31.5735 69.2503 31.8596 69.4316 32.1014 69.6469C32.3433 69.8622 32.5305 70.1159 32.6633 70.4078C32.7989 70.6998 32.8682 71.0345 32.8712 71.412C32.8682 71.9665 32.7267 72.4472 32.4465 72.8542C32.1693 73.2583 31.7682 73.5724 31.2432 73.7965C30.7212 74.0177 30.0915 74.1283 29.3542 74.1283C28.6228 74.1283 27.9858 74.0162 27.4431 73.7921C26.9034 73.5679 26.4817 73.2361 26.1779 72.7967C25.8771 72.3543 25.7193 71.8072 25.7045 71.1555H27.5581C27.5788 71.4592 27.6658 71.7129 27.8191 71.9164C27.9754 72.1169 28.1834 72.2688 28.4429 72.372C28.7054 72.4723 29.0018 72.5224 29.3321 72.5224C29.6565 72.5224 29.9382 72.4752 30.177 72.3809C30.4189 72.2865 30.6062 72.1553 30.7389 71.9871C30.8716 71.819 30.9379 71.6259 30.9379 71.4076C30.9379 71.2041 30.8775 71.0331 30.7566 70.8945C30.6386 70.7558 30.4646 70.6379 30.2346 70.5405C30.0075 70.4432 29.7288 70.3547 29.3984 70.2751L28.4119 70.0274C27.6481 69.8416 27.045 69.5511 26.6026 69.1559C26.1602 68.7607 25.9405 68.2283 25.9434 67.5589C25.9405 67.0103 26.0865 66.5311 26.3814 66.1211C26.6793 65.7112 27.0877 65.3912 27.6068 65.1611C28.1259 64.9311 28.7157 64.8161 29.3763 64.8161C30.0488 64.8161 30.6357 64.9311 31.137 65.1611C31.6413 65.3912 32.0336 65.7112 32.3138 66.1211C32.5939 66.5311 32.7385 67.0059 32.7473 67.5456H30.9114ZM34.1596 74V64.94H40.2645V66.5193H36.0751V68.6781H39.9504V70.2574H36.0751V72.4207H40.2822V74H34.1596Z" fill="#585858"/>
<path d="M60.5679 11.45V2.3899H66.5667V3.96922H62.4835V6.12806H66.1685V7.70737H62.4835V11.45H60.5679ZM69.7707 2.3899V11.45H67.8551V2.3899H69.7707ZM78.9247 2.3899V11.45H77.2702L73.3285 5.74761H73.2622V11.45H71.3467V2.3899H73.0277L76.9384 8.08782H77.018V2.3899H78.9247ZM86.5149 5.31849C86.453 5.1032 86.366 4.91297 86.2539 4.74782C86.1419 4.57971 86.0047 4.43815 85.8425 4.32313C85.6833 4.20516 85.5004 4.11521 85.294 4.05327C85.0905 3.99134 84.8648 3.96037 84.6171 3.96037C84.1541 3.96037 83.7471 4.07539 83.3961 4.30543C83.0481 4.53547 82.7768 4.87021 82.5821 5.30965C82.3875 5.74613 82.2902 6.27994 82.2902 6.91108C82.2902 7.54222 82.386 8.07898 82.5777 8.52136C82.7694 8.96375 83.0407 9.30143 83.3917 9.53442C83.7427 9.76446 84.157 9.87948 84.6348 9.87948C85.0683 9.87948 85.4385 9.8028 85.7452 9.64944C86.0549 9.49313 86.2908 9.27342 86.453 8.99029C86.6182 8.70716 86.7007 8.37243 86.7007 7.98608L87.09 8.04359H84.7542V6.60141H88.5455V7.74276C88.5455 8.53906 88.3774 9.22328 88.0412 9.79543C87.705 10.3646 87.2419 10.8041 86.6521 11.1137C86.0622 11.4205 85.3869 11.5738 84.626 11.5738C83.7766 11.5738 83.0304 11.3865 82.3875 11.012C81.7446 10.6345 81.2432 10.0992 80.8834 9.40613C80.5265 8.71011 80.3481 7.88433 80.3481 6.92878C80.3481 6.19442 80.4543 5.53969 80.6666 4.96459C80.8819 4.38654 81.1827 3.89696 81.5691 3.49587C81.9554 3.09477 82.4052 2.78953 82.9183 2.58013C83.4315 2.37073 83.9874 2.26604 84.5861 2.26604C85.0993 2.26604 85.5771 2.34124 86.0195 2.49165C86.4619 2.63911 86.8541 2.84851 87.1962 3.11984C87.5413 3.39117 87.8229 3.71411 88.0412 4.08866C88.2594 4.46027 88.3995 4.87021 88.4614 5.31849H86.5149ZM89.9843 11.45V2.3899H96.0893V3.96922H91.8999V6.12806H95.7752V7.70737H91.8999V9.87064H96.107V11.45H89.9843ZM97.6122 11.45V2.3899H101.187C101.871 2.3899 102.455 2.5123 102.938 2.75708C103.425 2.99892 103.795 3.34251 104.049 3.78784C104.305 4.23023 104.434 4.75077 104.434 5.34946C104.434 5.9511 104.304 6.46869 104.044 6.90223C103.785 7.33282 103.409 7.66313 102.916 7.89317C102.427 8.12322 101.834 8.23824 101.138 8.23824H98.7447V6.69874H100.828C101.194 6.69874 101.498 6.6486 101.74 6.54832C101.981 6.44805 102.161 6.29764 102.279 6.09709C102.4 5.89654 102.461 5.64733 102.461 5.34946C102.461 5.04864 102.4 4.795 102.279 4.58856C102.161 4.38211 101.98 4.2258 101.735 4.11963C101.493 4.01051 101.188 3.95595 100.819 3.95595H99.5277V11.45H97.6122ZM102.505 7.32692L104.757 11.45H102.642L100.439 7.32692H102.505ZM70.4464 23.45H67.2347V14.3899H70.4729C71.3843 14.3899 72.1688 14.5713 72.8264 14.934C73.4841 15.2938 73.9899 15.8114 74.3438 16.4868C74.7007 17.1622 74.8791 17.9703 74.8791 18.9111C74.8791 19.8548 74.7007 20.6659 74.3438 21.3442C73.9899 22.0225 73.4812 22.5431 72.8176 22.9058C72.157 23.2686 71.3666 23.45 70.4464 23.45ZM69.1502 21.8087H70.3668C70.933 21.8087 71.4093 21.7084 71.7957 21.5079C72.185 21.3044 72.477 20.9903 72.6716 20.5656C72.8692 20.138 72.968 19.5865 72.968 18.9111C72.968 18.2416 72.8692 17.6945 72.6716 17.2698C72.477 16.8451 72.1865 16.5325 71.8001 16.332C71.4138 16.1314 70.9375 16.0312 70.3712 16.0312H69.1502V21.8087ZM76.2981 23.45V14.3899H79.8725C80.5567 14.3899 81.1407 14.5123 81.6244 14.7571C82.111 14.9989 82.4811 15.3425 82.7348 15.7878C82.9913 16.2302 83.1196 16.7508 83.1196 17.3495C83.1196 17.9511 82.9899 18.4687 82.7303 18.9022C82.4708 19.3328 82.0948 19.6631 81.6023 19.8932C81.1127 20.1232 80.5199 20.2382 79.8239 20.2382H77.4306V18.6987H79.5142C79.8799 18.6987 80.1837 18.6486 80.4255 18.5483C80.6673 18.4481 80.8472 18.2976 80.9652 18.0971C81.0861 17.8965 81.1466 17.6473 81.1466 17.3495C81.1466 17.0486 81.0861 16.795 80.9652 16.5886C80.8472 16.3821 80.6659 16.2258 80.4211 16.1196C80.1792 16.0105 79.874 15.9559 79.5053 15.9559H78.2136V23.45H76.2981ZM81.1908 19.3269L83.4426 23.45H81.328L79.1249 19.3269H81.1908ZM86.0349 23.45H83.9823L87.1099 14.3899H89.5785L92.7017 23.45H90.649L88.3796 16.4603H88.3088L86.0349 23.45ZM85.9067 19.8888H90.7552V21.384H85.9067V19.8888ZM94.9191 23.45L92.3268 14.3899H94.4193L95.9189 20.685H95.9941L97.6487 14.3899H99.4403L101.09 20.6983H101.17L102.67 14.3899H104.762L102.17 23.45H100.303L98.5777 17.5264H98.5069L96.786 23.45H94.9191Z" fill="#585858"/>
</svg>
