<svg width="128" height="144" viewBox="0 0 128 144" fill="none" xmlns="http://www.w3.org/2000/svg">
<path d="M81.9143 43.6671C81.9912 43.5102 82.0374 43.3121 82.0143 43.114C81.8681 41.917 81.1757 40.753 80.5986 40.0018C80.0831 39.3249 79.4676 38.7801 78.8136 38.4994C77.8442 37.352 75.7207 37.9629 74.659 37.9381C72.2585 37.8886 69.858 37.8638 67.4575 37.8638C62.6566 37.8638 57.8556 37.9628 53.0546 38.161C50.7619 38.26 47.6382 37.3437 47.1381 41.95C46.8072 44.9879 47.2227 48.4797 47.3689 51.5423C47.5612 55.6451 47.8382 59.7313 48.169 63.8175C48.1767 63.9414 48.2075 64.0404 48.2383 64.1395C48.1152 64.2716 48.0613 64.5027 48.0613 64.7338C48.0613 64.8329 48.0613 64.9402 48.0921 65.0475C48.5229 66.583 48.9461 68.2505 49.4847 69.7199C49.3693 70.0418 49.4616 70.5454 49.777 70.5701C49.8001 70.5701 49.8155 70.5701 49.8386 70.5701C50.0079 70.7848 50.2464 70.7765 50.4156 70.6032C56.94 71.0242 63.4798 71.0076 70.0042 70.9334C72.7047 70.9003 75.9823 71.6268 78.6136 70.5784C80.0677 70.0005 81.0756 68.5724 81.0679 66.1454C81.0679 66.0629 81.0526 65.9969 81.0372 65.9226C82.0912 58.7902 82.299 50.9067 81.9143 43.6753V43.6671ZM50.4926 39.9028C52.0544 39.3414 54.0317 39.7459 55.6321 39.6881C59.0635 39.5726 62.4873 39.5065 65.9187 39.49C67.8037 39.49 69.6887 39.49 71.5737 39.5148C72.9355 39.5313 75.513 38.7306 76.7132 39.6139C79.7292 41.8262 78.7136 52.6898 78.6598 57.0732C78.629 59.5002 78.729 60.1523 77.5519 62.0922C76.367 64.0487 76.3285 63.8423 74.859 63.8588C73.1664 63.8753 71.4737 63.8588 69.7888 63.8588C62.9335 63.8671 56.0552 63.6607 49.1923 63.9661C49.1923 63.9166 49.2077 63.8671 49.1923 63.8093C48.7768 58.7077 48.4537 53.5978 48.2614 48.4632C48.1229 44.8888 47.4304 41.0089 50.4772 39.911L50.4926 39.9028ZM80.3447 65.5263C80.2601 65.6089 80.1985 65.7409 80.1831 65.9391C79.7215 70.6031 73.6049 69.2576 71.5737 69.2906C69.1502 69.3319 66.7343 69.3401 64.3107 69.3566C59.6867 69.3814 55.0627 69.3319 50.4387 69.4309C50.0771 68.0441 49.5847 66.7068 49.1 65.4108C53.9625 65.6171 58.8481 65.4933 63.7106 65.485C66.0803 65.485 68.4423 65.485 70.812 65.485C72.8355 65.485 75.1514 65.9556 77.1441 65.353C79.86 64.5357 79.66 60.6971 79.6984 57.0814C79.7446 53.2511 79.6984 49.4208 79.5907 45.5987C79.5523 44.3687 79.7215 42.0573 79.4676 40.3238C79.6754 40.5467 79.8831 40.7861 80.0754 41.0667C80.4832 41.6694 80.7371 42.3875 81.0372 43.081C81.0218 43.1635 81.0064 43.2461 80.9987 43.3534C80.9218 50.7994 80.5909 58.1216 80.3447 65.5346V65.5263Z" fill="#222221"/>
<path d="M127.422 38.6189C127.543 37.0815 127.787 35.5738 127.964 34.0436C128.073 33.087 127.952 32.1562 127.388 31.2651C127.146 30.8872 126.759 30.6292 126.452 30.3121C125.95 29.7757 125.299 29.4973 124.523 29.397C123.955 29.3236 123.411 29.2809 122.835 29.359C122.986 26.1338 119.339 22.9303 115.039 24.6762C114.816 23.0804 114.52 21.5028 112.623 20.6612C110.898 19.8973 109.17 19.7432 107.354 20.6038C107.505 19.9439 107.729 19.3627 107.743 18.7683C107.768 17.5097 108.098 16.2905 108.22 15.0444C108.357 13.6894 108.311 12.3383 108.391 10.9897C108.457 9.73645 108.243 8.47459 108.112 7.22347C108.059 6.8007 108.268 6.42558 108.229 6.0046C108.108 4.97669 107.786 3.97816 107.534 2.97497C107.291 2.01441 106.492 1.48128 105.475 1.29424C104.432 1.09 103.435 1.34938 102.726 2.06199C102.215 2.57826 101.779 3.15974 101.581 3.85516C101.176 5.20336 100.73 6.54619 100.421 7.92055C100.154 9.09248 100.082 10.2895 99.7322 11.4507C99.5259 12.1035 99.2761 12.7645 99.1529 13.428C98.9984 14.2123 98.8438 14.9966 98.5546 15.7357C98.2202 16.5938 98.1767 17.4895 98.0085 18.369C97.7013 19.924 97.4892 21.5051 96.9762 23.0195C96.4906 24.4404 96.1971 25.9001 95.9471 27.3515C95.7419 28.4897 95.0574 29.4273 94.8663 30.6645C94.2897 30.2571 93.9881 29.8992 93.7321 29.5194C93.1009 28.6058 92.5151 27.6703 91.7772 26.8122C90.9064 25.7982 90.0198 24.7961 88.8449 24.034C87.8503 23.3923 86.7292 22.8452 85.5121 22.6739C83.3826 22.3708 81.3217 22.6728 79.4342 23.538C78.7839 23.8422 78.2192 24.3377 78.1118 24.9894C77.9793 25.9152 78.2919 26.7876 79.1421 27.4522C79.6872 27.8832 80.3171 28.2143 80.9922 28.4264C82.584 28.9373 83.7378 29.9463 84.8638 30.9516C85.6409 31.6345 86.1493 32.5184 86.721 33.355C87.4197 34.3883 87.7745 35.5574 88.487 36.5925C89.279 37.7626 89.6163 39.0542 90.0148 40.3122C90.4412 41.6708 90.6185 43.0942 90.8708 44.4858C91.2115 46.4434 91.8646 48.2889 93.2512 49.9381C93.6837 50.4655 94.0075 51.0621 94.3036 51.655C94.7409 52.5436 95.0318 53.4687 95.5283 54.3371C96.2931 55.6979 96.5829 57.025 96.2004 58.5147C95.9357 59.5759 95.958 60.702 95.6101 61.7525C95.0088 63.5883 94.5975 65.4764 94.1605 67.3474C94.088 67.6569 94.0728 67.96 94.1566 68.2621C94.2503 68.5931 94.502 68.8059 94.8841 68.8969C95.47 69.042 95.8179 68.879 96.0501 68.3405C96.3376 67.7121 96.2807 67.0253 96.5127 66.3897C96.9649 65.1031 97.1578 63.7553 97.5684 62.4633C97.9771 61.185 98.1938 59.868 98.4243 58.5527C98.5102 58.0508 98.6793 57.5596 98.6129 57.0379C98.4841 56.0645 98.2248 55.1157 97.8646 54.1817C97.4228 53.0291 96.7754 51.9331 96.0509 50.8826C95.6877 50.3642 95.5478 49.7637 95.1234 49.2789C93.9967 47.9823 93.74 46.4238 93.1136 44.9838C93.0499 44.8369 93.0298 44.6818 93.0235 44.5285C92.9025 42.6131 92.2337 40.7794 91.6796 38.9328C91.3906 37.9941 90.9869 37.0683 90.5674 36.1543C90.2135 35.3736 89.7232 34.6585 89.397 33.8814C88.7964 32.4586 87.7115 31.2645 86.7333 30.0148C86.2433 29.3967 85.5874 28.9514 84.9512 28.467C83.7899 27.6096 82.5892 26.8303 81.203 26.2628C80.9238 26.1434 80.6742 26.0141 80.4779 25.8084C80.2182 25.553 80.2454 25.3624 80.5675 25.1822C80.9212 24.9783 81.2829 24.8171 81.6803 24.7021C83.4757 24.1855 85.2086 24.1045 86.9301 25.0898C88.5466 26.02 89.6614 27.3012 90.6952 28.6552C91.5028 29.7164 92.1404 30.8805 93.1437 31.8561C93.5641 32.271 94.081 32.5042 94.6808 32.6511C95.0886 32.7593 95.4921 32.7006 95.7785 32.4742C96.4105 32.0012 97.0049 31.4957 97.0328 30.7089C97.0476 30.2116 97.2543 29.753 97.4868 29.3116C97.5833 29.13 97.7075 28.9519 97.7229 28.7459C97.8781 27.3655 98.3896 26.0588 98.7111 24.6999C99.3286 22.159 100.043 19.6306 100.485 17.0391C100.567 16.5644 100.68 16.0661 100.883 15.6347C101.289 14.772 101.475 13.867 101.52 12.9576C101.581 11.8423 101.941 10.8072 102.11 9.71987C102.317 8.27671 102.977 6.91992 103.266 5.48752C103.352 5.08266 103.411 4.67422 103.578 4.29373C103.814 3.72801 104.181 3.23466 104.911 3.06557C105.231 2.99607 105.582 3.01363 105.616 3.36474C105.703 4.13863 106.08 4.85305 106.124 5.63518C106.173 6.66774 105.972 7.68167 106.051 8.70421C106.255 11.4207 106.275 14.1411 105.889 16.8368C105.825 17.2861 105.676 17.7382 105.611 18.1875C105.399 19.6715 105.379 21.1942 105.069 22.6657C104.762 24.1235 104.457 25.5677 104.149 27.0256C104.102 27.2552 104.027 27.4813 104.01 27.7009C103.972 28.1674 104.378 28.5805 104.968 28.6984C105.366 28.7776 105.864 28.5508 106.029 28.1839C106.155 27.8951 106.267 27.6046 106.296 27.3033C106.388 26.4692 106.506 25.6387 107.037 24.8892C107.248 24.5976 107.342 24.2353 107.448 23.8885C107.641 23.2339 108.033 22.6607 108.489 22.1373C108.759 21.8256 109.109 21.5518 109.61 21.6027C110.29 21.6769 110.961 21.8192 111.565 22.133C112.679 22.7346 113.08 23.674 112.996 24.6614C112.875 26.2959 113.12 27.9361 112.959 29.5516C112.93 29.7558 112.914 29.9618 112.943 30.1596C112.977 30.6078 113.261 30.8941 113.726 30.9958C114.179 31.0822 114.717 30.8744 114.912 30.4975C115.048 30.2377 115.142 29.9726 115.142 29.6813C115.132 28.8619 115.263 28.0469 115.085 27.2196C114.977 26.6926 115.14 26.5335 115.747 26.3346C116.192 26.1842 116.635 26.0473 117.08 25.8968C117.465 25.7664 117.895 25.822 118.226 25.9757C118.754 26.2243 119.283 26.473 119.739 26.837C120.258 27.2508 120.556 27.7331 120.554 28.3429C120.551 28.7585 120.52 29.1705 120.618 29.5714C120.983 30.9637 120.655 32.2664 120.12 33.5422C119.909 34.0281 120.132 34.5422 120.598 34.7411C121.104 34.9453 121.597 34.7594 121.908 34.2588C121.983 34.1299 122.034 33.9701 122.109 33.8411C122.418 33.2571 122.455 32.61 122.588 31.9755C122.758 31.0823 123.015 30.963 124.093 31.1164C124.62 31.1845 124.98 31.4253 125.252 31.7932C125.548 32.192 125.725 32.6309 125.726 33.1163C125.724 34.7107 125.389 36.262 125.331 37.8492C125.299 38.6632 124.988 39.455 124.901 40.2619C124.762 41.5334 124.515 42.7634 124.223 44.0152C123.915 45.2789 123.392 46.473 122.804 47.6173C122.054 49.1149 121.195 50.5846 119.979 51.8833C118.994 52.9485 118.241 54.1684 117.125 55.1612C116.657 55.5721 116.38 56.1325 115.975 56.5932C114.988 57.7691 114.713 59.2033 114.102 60.511C113.263 62.33 112.775 64.2636 112.386 66.1962C112.012 68.0198 111.666 69.847 111.486 71.6958C111.447 71.968 111.483 72.2085 111.634 72.436C111.832 72.7251 112.135 72.8752 112.529 72.8845C112.951 72.8975 113.215 72.7237 113.371 72.4249C113.45 72.2687 113.519 72.0834 113.544 71.9065C113.83 69.6138 114.432 67.376 114.854 65.1149C115.15 63.5446 115.649 62.0283 116.459 60.6078C116.607 60.3634 116.689 60.0829 116.809 59.835C117.187 59.0657 117.393 58.2188 117.944 57.5273C119.009 56.1952 120.138 54.913 121.243 53.5999C122.484 52.1242 123.66 50.6122 124.495 48.9176C125.413 47.0395 126.061 45.0711 126.613 43.0902C126.811 42.3948 127.065 41.7065 127.055 40.9842C127.045 40.5668 127.143 40.1774 127.229 39.7725C127.315 39.3677 127.415 38.9646 127.444 38.5662L127.422 38.6189Z" fill="#222221"/>
<path d="M119.364 93.6666C119.056 92.8093 118.803 91.9438 118.398 91.1006C117.79 89.8707 115.961 89.959 115.173 90.7414C114.954 90.954 114.795 91.1858 114.622 91.4195C114.253 91.9182 114.032 92.4644 113.969 93.0292C113.854 94.143 113.813 95.274 113.728 96.3974C113.719 96.5099 113.77 96.6551 113.559 96.7416C113.569 96.1985 113.639 95.6745 113.594 95.1395C113.552 94.5346 113.693 93.9307 113.622 93.3163C113.524 92.3724 113.526 91.4279 113.598 90.4868C113.714 89.1228 113.578 87.7679 113.54 86.4125C113.509 85.6117 113.447 84.8014 113.319 84.0147C113.084 82.5635 111.837 82.3439 110.62 82.7312C109.684 83.0353 108.913 83.6624 108.38 84.449C108.086 84.8949 107.825 85.3638 107.545 85.8076C107.298 86.1911 107.106 86.5666 106.963 86.9902C106.77 87.6158 106.592 88.253 106.398 88.8786C106.185 89.5625 105.975 90.26 105.952 90.9855C105.933 91.4743 105.992 92.0073 105.824 92.4485C105.589 93.0802 105.631 93.6851 105.607 94.3136C105.598 94.6899 105.746 95.0846 105.696 95.467C105.614 96.09 105.725 96.6848 105.739 97.2937C105.767 98.0673 105.806 98.8254 105.636 99.6002C105.596 99.7866 105.547 100.002 105.66 100.18C105.76 100.36 105.658 100.514 105.6 100.675C105.473 100.499 105.602 100.341 105.66 100.18C105.344 100.226 105.382 99.943 105.396 99.8576C105.486 99.3723 105.113 98.9827 105.082 98.529C105.058 98.2965 105.089 98.0558 105.011 97.8313C104.777 97.1713 104.653 96.4952 104.471 95.8136C104.265 95.0662 104.266 94.2885 104.211 93.5189C104.087 92.065 103.702 90.6496 103.647 89.1856C103.635 88.8541 103.376 88.5589 103.474 88.2945C103.665 87.7387 103.364 87.2692 103.351 86.7573C103.34 85.9118 103.132 85.0674 103.108 84.2239C103.1 83.9195 102.972 83.6468 102.937 83.3464C102.85 82.6371 102.843 81.9021 102.306 81.2866C102.236 81.1997 102.257 81.0716 102.21 80.9535C101.92 80.1213 101.213 78.9754 99.8152 79.2085C99.0179 79.3257 98.3252 79.5664 97.7767 80.1747C97.037 80.9916 96.5964 81.9174 96.1855 82.8526C95.879 83.5642 95.8238 84.35 95.6933 85.1052C95.6176 85.5052 95.5716 85.9147 95.5943 86.3141C95.6192 86.727 95.6282 87.1284 95.6097 87.5338C95.5859 88.4261 95.5483 89.3204 95.5955 90.2161C95.6448 91.1254 95.8063 92.0321 95.9266 92.9449C95.9895 93.505 96.0959 94.0726 96.1175 94.6388C96.1314 94.9839 96.2322 95.3441 96.0625 95.7717C95.9144 95.2936 95.7932 94.8947 95.6424 94.4864C95.442 93.9465 95.4687 93.3315 95.0984 92.8721C94.7645 92.4629 94.678 92.0174 94.603 91.5563C94.5369 91.1494 94.4294 90.7485 94.3083 90.3497C94.1156 89.6837 93.9366 89.0157 93.7576 88.3476C93.6749 88.0126 93.473 87.7229 93.4157 87.3702C93.3098 86.7192 93.204 86.0682 92.9766 85.4489C92.7784 84.9226 92.5896 84.367 92.3249 83.8644C91.7685 82.7796 91.586 81.5705 90.8026 80.5608C90.3371 79.9487 89.7641 79.7135 88.8888 79.8699C88.2312 79.9805 87.8877 80.3781 87.4188 80.697C86.4717 81.3639 85.9492 82.2183 85.5108 83.1576C85.3043 83.6185 85.3518 84.0837 85.3008 84.5494C85.2088 85.3684 85.0893 86.1914 85.0682 87.0138C85.0623 87.2369 85.1916 87.4262 85.1444 87.6553C85.0023 88.4261 85.0868 89.2052 85.0706 89.9714C85.0566 90.7511 85.0356 91.5736 85.4889 92.2846C85.5275 92.3484 85.5088 92.4067 85.5176 92.4609C85.5816 92.8542 85.634 93.2631 85.7485 93.6213C85.8834 94.018 86.048 94.4244 86.1554 94.8252C86.428 95.8961 86.7809 96.9413 87.0789 97.9946C87.3096 98.8078 87.4854 99.629 87.6886 100.446C87.8786 101.182 87.8762 101.946 88.1762 102.666C88.3386 103.059 88.4526 103.5 88.4775 103.913C88.5136 104.741 88.6712 105.537 88.8288 106.333C88.993 107.17 88.9626 108.022 89.0581 108.869C89.1343 109.51 89.0433 110.163 89.037 110.816C89.0174 111.388 89.0138 111.972 88.5599 112.469C88.5137 112.532 88.4219 112.573 88.3961 112.674C88.1863 113.288 87.6872 113.681 87.0105 113.933C86.5608 114.11 86.0885 114.235 85.6074 114.306C84.8399 114.433 84.0492 114.59 83.2855 114.48C82.1626 114.326 81.0518 114.073 79.9454 113.846C79.3053 113.718 78.6817 113.518 78.0323 113.419C76.9919 113.253 75.9445 113.476 74.9339 113.666C73.5935 113.905 72.3632 114.475 71.2352 115.154C70.5161 115.579 69.9743 116.228 69.483 116.842C68.8186 117.69 68.863 118.655 69.0586 119.599C69.1694 120.193 69.5649 120.635 70.1979 120.806C71.1118 121.06 72.0675 121.225 73.0671 120.968C74.0688 120.723 75.0943 120.711 76.1055 120.785C77.0023 120.847 77.8871 121.009 78.7434 121.342C79.7184 121.712 80.5736 122.211 81.3849 122.786C81.8475 123.121 82.2595 123.491 82.6231 123.91C82.9208 124.269 83.3954 124.505 83.6677 124.881C83.8333 125.121 84.0473 125.311 84.2772 125.514C84.4252 125.645 84.5616 125.791 84.6475 125.973C85.1175 126.959 86.024 127.687 86.7743 128.493C87.32 129.08 87.8036 129.717 88.4389 130.249C89.0104 130.734 89.5429 131.239 90.1996 131.642C90.5758 131.879 91.0399 131.963 91.4139 132.186C92.1207 132.638 92.9406 132.92 93.7353 133.22C94.1258 133.371 94.5739 133.444 94.9759 133.579C95.5583 133.785 96.1869 133.929 96.7978 133.964C97.8068 134.024 98.5278 134.39 99.2753 134.919C100.103 135.506 100.691 136.266 101.477 136.859C102.233 137.442 102.803 138.178 103.536 138.792C104.14 139.301 104.669 139.876 105.222 140.419C105.709 140.903 106.246 141.352 106.747 141.834C107.448 142.509 108.381 142.969 109.061 143.688C109.179 143.809 109.307 143.902 109.483 143.945C109.764 144.029 110.061 144.041 110.262 143.803C110.449 143.567 110.478 143.313 110.269 143.066C109.742 142.421 109.256 141.771 108.717 141.142C108.281 140.623 107.819 140.121 107.335 139.651C106.668 139.013 105.85 138.48 105.268 137.76C105.057 137.5 104.828 137.214 104.568 137.002C103.962 136.48 103.405 135.909 102.813 135.385C102.126 134.792 101.463 134.181 100.801 133.57C100.619 133.402 100.375 133.286 100.179 133.12C99.849 132.821 99.4573 132.49 98.9679 132.423C98.3207 132.338 97.6855 132.153 97.0405 132.081C96.0661 131.975 95.1549 131.65 94.2503 131.367C93.581 131.145 92.9996 130.773 92.3974 130.445C91.5625 129.984 90.8013 129.457 90.0885 128.881C89.3596 128.294 88.6654 127.66 88.0977 126.938C87.8298 126.589 87.4607 126.31 87.1834 125.989C86.9425 125.719 86.7383 125.416 86.4952 125.132C86.0133 124.592 85.4533 124.091 85.0451 123.484C84.732 123.031 84.2485 122.741 83.8481 122.355C82.617 121.189 81.1875 120.274 79.4745 119.693C78.7733 119.448 78.0793 119.162 77.3034 119.151C76.5001 119.144 75.7236 118.869 74.8895 119.019C74.7246 119.044 74.5277 119.045 74.3518 119.001C73.616 118.804 72.9007 118.992 72.2173 119.204C71.4537 119.441 71.1798 119.315 71.2092 118.63C71.2342 117.918 71.6271 117.305 72.2135 116.844C72.7242 116.435 73.3487 116.121 74.0117 115.871C74.927 115.528 75.8848 115.36 76.858 115.286C77.8725 115.206 78.8645 115.422 79.829 115.641C80.5742 115.809 81.2775 116.067 82.0364 116.233C83.4491 116.526 84.8754 116.469 86.2961 116.204C86.924 116.084 87.4957 115.792 88.0922 115.565C88.4385 115.445 88.7211 115.279 89.0152 115.097C89.5621 114.738 89.9474 114.251 90.3211 113.78C90.5079 113.544 90.8432 113.356 90.8909 113.043C90.9583 112.506 91.1836 111.987 91.2372 111.451C91.3123 110.787 91.2729 110.113 91.3183 109.439C91.3335 109.187 91.2411 108.965 91.2173 108.732C91.1724 107.85 91.0863 106.974 91.0298 106.107C90.9584 105.062 90.4241 104.113 90.3686 103.08C90.3298 102.322 90.1491 101.557 90.0004 100.815C89.8356 100.061 89.6274 99.3004 89.4193 98.5394C89.0767 97.2983 88.8716 96.0369 88.4488 94.8214C88.0711 93.7104 87.8584 92.5752 87.5472 91.4405C87.3683 90.7725 87.3998 90.1013 87.3858 89.409C87.3701 88.6197 87.3955 87.8244 87.2814 87.0358C87.1932 86.4932 87.4118 85.9334 87.3258 85.4045C87.2353 84.8484 87.3506 84.3454 87.5164 83.8072C87.7827 82.9349 88.4043 82.3436 89.1107 81.7537C89.4556 82.2307 89.7709 82.6982 89.9025 83.2482C90.135 84.1584 90.3949 85.0645 90.7857 85.9098C91.2623 86.9368 91.4524 88.0198 91.8328 89.061C92.069 89.7345 92.2706 90.4548 92.3484 91.1932C92.392 91.5479 92.4263 91.9317 92.5364 92.2627C92.7907 92.9613 93.1138 93.6498 93.5265 94.2835C93.9232 94.9057 93.8982 95.6176 94.2009 96.2675C94.3071 96.4879 94.2572 96.7869 94.3266 97.0406C94.4428 97.4956 94.6508 97.9095 94.7924 98.3469C94.952 98.8095 95.0177 99.2998 95.0558 99.7941C95.0879 100.164 95.4113 100.422 95.4824 100.773C95.5662 101.288 95.7028 101.782 95.814 102.293C96.0278 103.262 96.2163 104.248 96.485 105.208C96.6932 105.969 96.9151 106.728 97.3251 107.432C97.5584 107.828 97.9599 108.047 98.4113 107.967C98.8077 107.894 98.9648 107.649 99.0273 107.168C99.1331 106.347 98.9573 105.525 99.0471 104.693C99.1786 103.424 99.1521 102.136 98.8074 100.881C98.5816 100.012 98.7269 99.088 98.5263 98.2009C98.3837 97.5831 98.5137 96.9113 98.3595 96.309C98.1447 95.5074 98.0536 94.6876 97.9647 93.8813C97.9194 93.4297 98.0138 92.9714 97.9548 92.5218C97.8323 91.5955 97.5427 90.6799 97.727 89.7362C97.8241 89.2081 97.7403 88.6928 97.7824 88.1728C97.807 87.8914 97.802 87.6005 97.7969 87.3096C97.7752 86.7434 97.6391 86.1663 97.7478 85.6226C97.9651 84.5353 98.2098 83.4439 98.7015 82.3996C98.9009 81.9814 99.1916 81.6054 99.4823 81.2294C99.6554 80.9957 99.9414 81.0231 100.075 81.2395C100.567 82.0143 100.843 82.8486 100.973 83.7322C101.085 84.4239 101.031 85.1263 101.143 85.818C101.245 86.4419 101.387 87.0597 101.404 87.6822C101.429 88.8728 101.566 90.0609 101.535 91.2596C101.526 91.7193 101.562 92.2001 101.634 92.6476C101.776 93.4323 102.014 94.2028 102.117 95.007C102.193 95.6485 102.324 96.2819 102.51 96.9073C102.669 97.4532 102.732 98.0134 102.919 98.5553C103.195 99.3896 103.364 100.254 103.587 101.109C103.735 101.671 103.885 102.246 103.975 102.802C104.143 103.833 104.365 104.856 104.725 105.858C104.883 106.307 105.146 106.713 105.652 106.972C106.084 107.2 106.512 107.151 106.745 106.77C107.011 106.328 107.328 105.851 107.233 105.351C107.133 104.741 107.277 104.15 107.376 103.552C107.545 102.514 107.842 101.484 107.769 100.426C107.703 99.5047 107.764 98.5793 107.896 97.6573C108.015 96.8343 107.78 95.9939 107.826 95.1539C107.86 94.5796 107.705 93.9774 107.878 93.3965C108.156 92.5086 108.011 91.6134 108.231 90.72C108.494 89.6537 108.801 88.5949 109.166 87.5552C109.245 87.3492 109.183 87.1362 109.328 86.9065C109.516 86.5874 109.781 86.3123 109.938 85.9837C110.156 85.5072 110.393 85.0559 110.905 84.7445C110.994 84.6897 110.993 84.5093 111.185 84.5645C111.377 84.6196 111.358 84.7613 111.366 84.8989C111.451 85.5947 111.326 86.2936 111.422 86.9738C111.563 87.9252 111.463 88.8702 111.492 89.8243C111.505 90.2528 111.28 90.6885 111.305 91.1015C111.364 91.9816 111.297 92.8664 111.44 93.748C111.513 94.1956 111.368 94.689 111.475 95.0898C111.641 95.6765 111.598 96.2799 111.577 96.8386C111.54 97.5661 111.503 98.2936 111.494 99.017C111.491 99.6008 111.586 100.184 111.511 100.764C111.396 101.614 111.464 102.465 111.475 103.311C111.512 104.666 111.797 105.985 112.125 107.312C112.233 107.713 112.48 108.024 112.958 108.106C113.438 108.202 113.906 108.134 114.27 107.775C114.486 107.548 114.385 107.272 114.489 107.048C114.897 106.266 114.79 105.435 114.898 104.627C115.025 103.595 115.011 102.555 115.123 101.511C115.179 100.989 115.287 100.445 115.302 99.9295C115.335 98.6609 115.711 97.4253 115.785 96.1506C115.839 95.1845 116.307 94.2547 116.217 93.2681C116.194 93.0355 116.294 92.7847 116.37 92.5651C116.422 92.3631 116.419 92.0858 116.7 91.9058C116.74 91.9831 116.779 92.0469 116.801 92.0991C117.045 92.6465 117.113 93.2338 117.29 93.8048C117.409 94.1901 117.518 94.6045 117.598 95.0093C117.687 95.4685 117.668 95.9573 117.741 96.4049C117.886 97.3 117.922 98.2113 117.855 99.0961C117.807 99.8392 117.88 100.551 117.901 101.283C117.903 102.075 117.976 102.869 117.95 103.665C117.921 104.35 117.765 105.039 117.761 105.706C117.756 106.971 117.083 108.111 116.947 109.353C116.951 109.38 116.942 109.409 116.93 109.425C116.283 110.548 115.93 111.752 115.648 112.96C115.29 114.485 114.579 115.909 113.943 117.363C113.585 118.193 113.077 118.962 112.868 119.84C112.807 120.071 112.709 120.336 112.474 120.537C112.29 120.703 112.158 120.93 112.116 121.187C112.073 121.443 111.961 121.709 111.797 121.914C111.588 122.181 111.428 122.496 111.332 122.774C111.033 123.706 110.993 124.671 111.477 125.571C111.982 126.511 112.5 127.449 113.113 128.358C113.596 129.079 114.293 129.643 114.774 130.35C115.275 131.096 115.895 131.796 116.477 132.516C116.954 133.113 117.47 133.69 118.048 134.216C118.462 134.599 118.853 135.014 119.268 135.397C119.934 136.035 120.424 136.797 121.116 137.417C121.61 137.858 122.17 137.929 122.641 137.623C123.062 137.353 123.079 136.851 122.745 136.358C122.333 135.725 121.706 135.247 121.257 134.647C121.059 134.384 120.924 134.071 120.689 133.841C120.025 133.217 119.514 132.5 118.861 131.86C118.329 131.355 117.859 130.8 117.388 130.244C116.986 129.761 116.517 129.302 116.168 128.798C115.694 128.132 115.118 127.536 114.731 126.801C114.345 126.067 113.783 125.385 113.475 124.611C113.236 124.008 113.02 123.373 113.495 122.747C114.005 122.075 114.216 121.295 114.637 120.594C115.102 119.817 115.462 119.001 115.792 118.174C115.952 117.776 116.259 117.411 116.376 117.005C116.686 115.974 117.159 114.988 117.571 113.969C117.873 113.23 118.159 112.48 118.402 111.722C118.764 110.572 119.082 109.414 119.414 108.255C119.601 107.588 119.773 106.91 119.788 106.228C119.806 105.642 119.967 105.076 120.042 104.496C120.116 103.916 120.147 103.328 120.137 102.746C120.115 101.833 120.05 100.912 119.987 100.005C119.957 99.6482 119.998 99.2949 119.982 98.9362C119.964 98.564 119.831 98.1808 119.897 97.8099C119.994 97.2819 119.973 96.7157 119.852 96.2335C119.647 95.4027 119.702 94.5335 119.412 93.7013L119.364 93.6666Z" fill="#222221"/>
<path d="M69.8564 49.4465H66.9481C66.895 49.0914 66.7865 48.776 66.6227 48.5002C66.4589 48.2203 66.2487 47.9822 65.9919 47.7858C65.7352 47.5895 65.4386 47.4391 65.1022 47.3346C64.7702 47.2302 64.4094 47.178 64.0199 47.178C63.3161 47.178 62.703 47.343 62.1806 47.673C61.6583 47.9989 61.2533 48.4752 60.9655 49.1018C60.6778 49.7243 60.5339 50.4805 60.5339 51.3704C60.5339 52.2853 60.6778 53.054 60.9655 53.6765C61.2577 54.299 61.6649 54.769 62.1873 55.0865C62.7096 55.404 63.3138 55.5627 64 55.5627C64.3851 55.5627 64.7414 55.5147 65.069 55.4186C65.401 55.3225 65.6954 55.1826 65.9521 54.9988C66.2088 54.8108 66.4213 54.5831 66.5895 54.3157C66.7622 54.0483 66.8817 53.7433 66.9481 53.4008L69.8564 53.4133C69.7811 54.0024 69.593 54.5705 69.292 55.1178C68.9954 55.6609 68.5948 56.1476 68.0902 56.5779C67.5899 57.0041 66.9924 57.3425 66.2974 57.5931C65.6068 57.8396 64.8255 57.9629 63.9535 57.9629C62.7406 57.9629 61.6561 57.7039 60.6999 57.1858C59.7482 56.6678 58.9957 55.9179 58.4424 54.9361C57.8935 53.9543 57.619 52.7657 57.619 51.3704C57.619 49.9708 57.8979 48.7802 58.4556 47.7984C59.0134 46.8166 59.7703 46.0688 60.7265 45.5549C61.6826 45.0369 62.7583 44.7779 63.9535 44.7779C64.7414 44.7779 65.4718 44.8823 66.1447 45.0912C66.8219 45.3001 67.4217 45.605 67.9441 46.0061C68.4664 46.403 68.8914 46.8897 69.2189 47.4662C69.5509 48.0428 69.7634 48.7029 69.8564 49.4465Z" fill="#222221"/>
<path d="M11.3948 44.089H9.814C9.78513 43.8946 9.72618 43.7219 9.63715 43.5709C9.54813 43.4177 9.43384 43.2873 9.29429 43.1798C9.15474 43.0723 8.99353 42.9899 8.81067 42.9327C8.63022 42.8756 8.43413 42.847 8.22239 42.847C7.83983 42.847 7.50659 42.9373 7.22268 43.118C6.93876 43.2964 6.71861 43.5572 6.56221 43.9003C6.40582 44.2411 6.32762 44.6551 6.32762 45.1424C6.32762 45.6433 6.40582 46.0642 6.56221 46.405C6.72101 46.7458 6.94237 47.0032 7.22629 47.177C7.5102 47.3508 7.83863 47.4378 8.21157 47.4378C8.42089 47.4378 8.61458 47.4115 8.79263 47.3588C8.97308 47.3062 9.13309 47.2296 9.27264 47.129C9.41219 47.026 9.52768 46.9014 9.61911 46.755C9.71295 46.6086 9.77791 46.4416 9.814 46.254L11.3948 46.2609C11.3539 46.5834 11.2516 46.8945 11.088 47.1942C10.9268 47.4915 10.7091 47.758 10.4348 47.9936C10.1629 48.2269 9.83806 48.4122 9.46031 48.5494C9.08496 48.6844 8.6603 48.7519 8.1863 48.7519C7.52704 48.7519 6.93756 48.6101 6.41785 48.3264C5.90055 48.0428 5.49152 47.6322 5.19076 47.0947C4.89241 46.5571 4.74324 45.9064 4.74324 45.1424C4.74324 44.3761 4.89482 43.7242 5.19798 43.1866C5.50114 42.6491 5.91258 42.2397 6.43229 41.9583C6.952 41.6747 7.53667 41.5329 8.1863 41.5329C8.61458 41.5329 9.01158 41.59 9.3773 41.7044C9.74543 41.8188 10.0714 41.9858 10.3554 42.2053C10.6393 42.4226 10.8703 42.6891 11.0483 43.0048C11.2288 43.3205 11.3443 43.6819 11.3948 44.089Z" fill="#222221"/>
<path d="M12.5154 48.6558V41.6289H14.0781V47.4309H17.2469V48.6558H12.5154Z" fill="#222221"/>
<path d="M18.2818 48.6558V41.6289H23.2623V42.8538H19.8445V44.5282H23.0061V45.7531H19.8445V47.4309H23.2768V48.6558H18.2818Z" fill="#222221"/>
<path d="M25.7788 48.6558H24.1042L26.6558 41.6289H28.6697L31.2177 48.6558H29.5431L27.6916 43.2347H27.6339L25.7788 48.6558ZM25.6741 45.8938H29.6297V47.0535H25.6741V45.8938Z" fill="#222221"/>
<path d="M32.1073 48.6558V41.6289H35.0235C35.5817 41.6289 36.0581 41.7239 36.4526 41.9137C36.8496 42.1013 37.1516 42.3678 37.3585 42.7131C37.5679 43.0563 37.6725 43.46 37.6725 43.9243C37.6725 44.391 37.5667 44.7924 37.3549 45.1286C37.1432 45.4626 36.8364 45.7188 36.4346 45.8972C36.0352 46.0756 35.5516 46.1648 34.9837 46.1648H33.0312V44.9708H34.7311C35.0295 44.9708 35.2773 44.9319 35.4746 44.8542C35.6719 44.7764 35.8187 44.6597 35.9149 44.5042C36.0135 44.3486 36.0629 44.1554 36.0629 43.9243C36.0629 43.691 36.0135 43.4943 35.9149 43.3342C35.8187 43.1741 35.6707 43.0528 35.471 42.9705C35.2737 42.8858 35.0247 42.8435 34.7239 42.8435H33.67V48.6558H32.1073ZM36.099 45.458L37.936 48.6558H36.2108L34.4135 45.458H36.099Z" fill="#222221"/>
<path d="M4.24789 52.9569C4.21902 52.6801 4.09511 52.4651 3.87616 52.3119C3.65721 52.1586 3.36006 52.082 2.98471 52.082C2.72967 52.082 2.51433 52.1163 2.33869 52.1849C2.16304 52.2512 2.02831 52.3439 1.93447 52.4628C1.84304 52.5818 1.79732 52.7167 1.79732 52.8677C1.79251 52.9935 1.82018 53.1033 1.88033 53.1971C1.94289 53.2909 2.02831 53.3721 2.13658 53.4407C2.24485 53.507 2.36997 53.5654 2.51192 53.6157C2.65388 53.6637 2.80546 53.7049 2.96667 53.7392L3.63074 53.8902C3.95315 53.9588 4.24909 54.0503 4.51857 54.1647C4.78805 54.279 5.02144 54.4197 5.21874 54.5867C5.41603 54.7537 5.56882 54.9504 5.67709 55.1768C5.78777 55.4033 5.84431 55.6629 5.84672 55.9557C5.84431 56.3857 5.72882 56.7586 5.50024 57.0742C5.27407 57.3876 4.94685 57.6312 4.51857 57.805C4.0927 57.9766 3.57901 58.0624 2.97749 58.0624C2.38079 58.0624 1.86108 57.9755 1.41837 57.8016C0.978062 57.6278 0.633996 57.3704 0.386172 57.0296C0.140754 56.6865 0.0120303 56.2622 0 55.7567H1.51221C1.52905 55.9923 1.60003 56.189 1.72514 56.3468C1.85266 56.5024 2.02229 56.6202 2.23402 56.7002C2.44816 56.778 2.68997 56.8169 2.95945 56.8169C3.22411 56.8169 3.45389 56.7803 3.64878 56.7071C3.84608 56.6339 3.99887 56.5321 4.10714 56.4017C4.21541 56.2713 4.26955 56.1215 4.26955 55.9523C4.26955 55.7944 4.22022 55.6618 4.12157 55.5542C4.02533 55.4467 3.88337 55.3552 3.6957 55.2798C3.51044 55.2043 3.28306 55.1357 3.01359 55.0739L2.20876 54.8818C1.58559 54.7376 1.09355 54.5123 0.732644 54.2058C0.371736 53.8993 0.192485 53.4864 0.194891 52.9672C0.192485 52.5418 0.311584 52.17 0.55219 51.8521C0.795202 51.5342 1.12844 51.286 1.55191 51.1076C1.97537 50.9291 2.45658 50.8399 2.99554 50.8399C3.54412 50.8399 4.02293 50.9291 4.43196 51.1076C4.84339 51.286 5.1634 51.5342 5.39197 51.8521C5.62055 52.17 5.73844 52.5383 5.74566 52.9569H4.24789Z" fill="#222221"/>
<path d="M13.4195 53.3961H11.8387C11.8098 53.2017 11.7509 53.029 11.6619 52.878C11.5728 52.7247 11.4585 52.5944 11.319 52.4869C11.1794 52.3793 11.0182 52.297 10.8354 52.2398C10.6549 52.1826 10.4588 52.154 10.2471 52.154C9.86453 52.154 9.53129 52.2444 9.24738 52.4251C8.96346 52.6035 8.74331 52.8643 8.58691 53.2074C8.43052 53.5482 8.35232 53.9622 8.35232 54.4494C8.35232 54.9504 8.43052 55.3713 8.58691 55.7121C8.74571 56.0529 8.96707 56.3102 9.25098 56.4841C9.5349 56.6579 9.86333 56.7448 10.2363 56.7448C10.4456 56.7448 10.6393 56.7185 10.8173 56.6659C10.9978 56.6133 11.1578 56.5367 11.2973 56.436C11.4369 56.3331 11.5524 56.2084 11.6438 56.062C11.7376 55.9157 11.8026 55.7487 11.8387 55.5611L13.4195 55.568C13.3786 55.8905 13.2763 56.2016 13.1127 56.5012C12.9515 56.7986 12.7338 57.0651 12.4595 57.3007C12.1876 57.534 11.8628 57.7193 11.485 57.8565C11.1097 57.9915 10.685 58.0589 10.211 58.0589C9.55174 58.0589 8.96226 57.9171 8.44255 57.6335C7.92525 57.3499 7.51622 56.9393 7.21546 56.4017C6.91711 55.8642 6.76793 55.2134 6.76793 54.4494C6.76793 53.6832 6.91952 53.0312 7.22268 52.4937C7.52584 51.9562 7.93728 51.5467 8.45699 51.2654C8.97669 50.9817 9.56137 50.8399 10.211 50.8399C10.6393 50.8399 11.0363 50.8971 11.402 51.0115C11.7701 51.1259 12.0961 51.2928 12.3801 51.5124C12.664 51.7297 12.895 51.9962 13.073 52.3119C13.2535 52.6275 13.3689 52.9889 13.4195 53.3961Z" fill="#222221"/>
<path d="M14.5401 57.9629V50.936H17.4562C18.0144 50.936 18.4908 51.0309 18.8854 51.2208C19.2824 51.4083 19.5844 51.6748 19.7913 52.0202C20.0006 52.3633 20.1053 52.7671 20.1053 53.2314C20.1053 53.698 19.9994 54.0995 19.7877 54.4357C19.576 54.7697 19.2692 55.0259 18.8674 55.2043C18.468 55.3827 17.9844 55.4719 17.4165 55.4719H15.464V54.2779H17.1639C17.4623 54.2779 17.7101 54.239 17.9074 54.1612C18.1047 54.0835 18.2514 53.9668 18.3477 53.8113C18.4463 53.6557 18.4957 53.4624 18.4957 53.2314C18.4957 52.9981 18.4463 52.8014 18.3477 52.6413C18.2514 52.4811 18.1035 52.3599 17.9038 52.2776C17.7065 52.1929 17.4574 52.1506 17.1567 52.1506H16.1028V57.9629H14.5401ZM18.5317 54.7651L20.3688 57.9629H18.6436L16.8463 54.7651H18.5317Z" fill="#222221"/>
<path d="M21.2097 57.9629V50.936H26.1902V52.1609H22.7724V53.8353H25.934V55.0602H22.7724V56.738H26.2047V57.9629H21.2097Z" fill="#222221"/>
<path d="M27.4326 57.9629V50.936H32.4132V52.1609H28.9954V53.8353H32.1569V55.0602H28.9954V56.738H32.4276V57.9629H27.4326Z" fill="#222221"/>
<path d="M39.838 50.936V57.9629H38.4882L35.2725 53.5402H35.2183V57.9629H33.6556V50.936H35.0271L38.2175 55.3552H38.2825V50.936H39.838Z" fill="#222221"/>
<path d="M52.7091 89.762V82.7352H55.6253C56.1859 82.7352 56.6635 82.837 57.0581 83.0405C57.4527 83.2418 57.7534 83.522 57.9603 83.8811C58.1697 84.238 58.2743 84.6497 58.2743 85.1163C58.2743 85.583 58.1685 85.9947 57.9567 86.3515C57.745 86.7084 57.4382 86.9863 57.0364 87.1853C56.637 87.3843 56.1534 87.4838 55.5856 87.4838H53.7269V86.2932H55.3329C55.6337 86.2932 55.8815 86.244 56.0764 86.1457C56.2737 86.045 56.4205 85.9066 56.5167 85.7305C56.6154 85.5521 56.6647 85.3474 56.6647 85.1163C56.6647 84.883 56.6154 84.6795 56.5167 84.5056C56.4205 84.3295 56.2737 84.1934 56.0764 84.0973C55.8791 83.999 55.6289 83.9498 55.3257 83.9498H54.2719V89.762H52.7091Z" fill="#222221"/>
<path d="M59.7098 89.762H58.0352L60.5869 82.7352H62.6007L65.1487 89.762H63.4741L61.6227 84.3409H61.5649L59.7098 89.762ZM59.6052 87H63.5607V88.1597H59.6052V87Z" fill="#222221"/>
<path d="M66.0384 89.762V82.7352H67.6011V88.5371H70.7699V89.762H66.0384Z" fill="#222221"/>
<path d="M71.8048 82.7352H73.732L75.7676 87.4564H75.8542L77.8897 82.7352H79.817V89.762H78.3011V85.1884H78.2398L76.327 89.7277H75.2948L73.382 85.1712H73.3206V89.762H71.8048V82.7352Z" fill="#222221"/>
<path d="M47.8955 99.0691V92.0422H52.876V93.2671H49.4582V94.9415H52.6198V96.1664H49.4582V97.8442H52.8905V99.0691H47.8955Z" fill="#222221"/>
<path d="M54.1185 99.0691V92.0422H57.0346C57.5928 92.0422 58.0692 92.1372 58.4638 92.327C58.8608 92.5146 59.1628 92.7811 59.3697 93.1265C59.579 93.4696 59.6837 93.8733 59.6837 94.3376C59.6837 94.8043 59.5778 95.2057 59.3661 95.542C59.1543 95.8759 58.8476 96.1321 58.4458 96.3105C58.0464 96.4889 57.5627 96.5781 56.9949 96.5781H55.0424V95.3841H56.7423C57.0406 95.3841 57.2885 95.3452 57.4857 95.2675C57.683 95.1897 57.8298 95.073 57.9261 94.9175C58.0247 94.762 58.074 94.5687 58.074 94.3376C58.074 94.1043 58.0247 93.9076 57.9261 93.7475C57.8298 93.5874 57.6818 93.4661 57.4821 93.3838C57.2848 93.2992 57.0358 93.2568 56.7351 93.2568H55.6812V99.0691H54.1185ZM58.1101 95.8713L59.9471 99.0691H58.222L56.4247 95.8713H58.1101Z" fill="#222221"/>
<path d="M62.0621 99.0691H60.3875L62.9391 92.0422H64.9529L67.501 99.0691H65.8263L63.9749 93.648H63.9171L62.0621 99.0691ZM61.9574 96.3071H65.913V97.4668H61.9574V96.3071Z" fill="#222221"/>
<path d="M72.2316 94.0632C72.2027 93.7864 72.0788 93.5714 71.8598 93.4181C71.6409 93.2649 71.3437 93.1882 70.9684 93.1882C70.7133 93.1882 70.498 93.2225 70.3224 93.2912C70.1467 93.3575 70.012 93.4501 69.9181 93.5691C69.8267 93.688 69.781 93.823 69.781 93.9739C69.7762 94.0998 69.8039 94.2095 69.864 94.3033C69.9266 94.3971 70.012 94.4783 70.1202 94.5469C70.2285 94.6133 70.3536 94.6716 70.4956 94.7219C70.6376 94.77 70.7891 94.8111 70.9503 94.8454L71.6144 94.9964C71.9368 95.065 72.2328 95.1565 72.5022 95.2709C72.7717 95.3853 73.0051 95.5259 73.2024 95.6929C73.3997 95.8599 73.5525 96.0566 73.6608 96.2831C73.7714 96.5095 73.828 96.7691 73.8304 97.0619C73.828 97.492 73.7125 97.8648 73.4839 98.1805C73.2577 98.4938 72.9305 98.7374 72.5022 98.9113C72.0764 99.0828 71.5627 99.1686 70.9612 99.1686C70.3645 99.1686 69.8448 99.0817 69.402 98.9079C68.9617 98.734 68.6177 98.4767 68.3698 98.1359C68.1244 97.7928 67.9957 97.3684 67.9837 96.8629H69.4959C69.5127 97.0985 69.5837 97.2952 69.7088 97.4531C69.8363 97.6086 70.006 97.7264 70.2177 97.8065C70.4318 97.8842 70.6736 97.9231 70.9431 97.9231C71.2078 97.9231 71.4376 97.8865 71.6325 97.8133C71.8298 97.7401 71.9825 97.6384 72.0908 97.508C72.1991 97.3776 72.2532 97.2278 72.2532 97.0585C72.2532 96.9007 72.2039 96.768 72.1052 96.6605C72.009 96.553 71.867 96.4615 71.6794 96.386C71.4941 96.3105 71.2667 96.2419 70.9973 96.1801L70.1924 95.988C69.5693 95.8439 69.0772 95.6186 68.7163 95.3121C68.3554 95.0056 68.1762 94.5927 68.1786 94.0734C68.1762 93.648 68.2953 93.2763 68.5359 92.9583C68.7789 92.6404 69.1121 92.3922 69.5356 92.2138C69.959 92.0354 70.4403 91.9462 70.9792 91.9462C71.5278 91.9462 72.0066 92.0354 72.4156 92.2138C72.8271 92.3922 73.1471 92.6404 73.3756 92.9583C73.6042 93.2763 73.7221 93.6446 73.7293 94.0632H72.2316Z" fill="#222221"/>
<path d="M74.8815 99.0691V92.0422H79.8621V93.2671H76.4443V94.9415H79.6058V96.1664H76.4443V97.8442H79.8765V99.0691H74.8815Z" fill="#222221"/>
<path d="M57.2665 7.12295V0.0960706H62.1604V1.32097H58.8293V2.99534H61.8356V4.22024H58.8293V7.12295H57.2665Z" fill="#222221"/>
<path d="M64.7743 0.0960706V7.12295H63.2116V0.0960706H64.7743Z" fill="#222221"/>
<path d="M72.2424 0.0960706V7.12295H70.8926L67.6769 2.70027H67.6228V7.12295H66.0601V0.0960706H67.4315L70.6219 4.51532H70.6869V0.0960706H72.2424Z" fill="#222221"/>
<path d="M78.4347 2.36745C78.3842 2.20047 78.3132 2.05294 78.2218 1.92484C78.1303 1.79446 78.0185 1.68467 77.8861 1.59546C77.7562 1.50396 77.607 1.4342 77.4386 1.38616C77.2726 1.33813 77.0885 1.31411 76.8864 1.31411C76.5087 1.31411 76.1766 1.40332 75.8903 1.58173C75.6064 1.76015 75.385 2.01977 75.2262 2.36059C75.0674 2.69913 74.988 3.11314 74.988 3.60265C74.988 4.09215 75.0662 4.50846 75.2226 4.85156C75.379 5.19467 75.6004 5.45658 75.8867 5.63728C76.173 5.8157 76.5111 5.90491 76.9008 5.90491C77.2545 5.90491 77.5565 5.84544 77.8067 5.72649C78.0594 5.60526 78.2518 5.43485 78.3842 5.21526C78.5189 4.99567 78.5863 4.73605 78.5863 4.4364L78.9039 4.48101H76.9983V3.36247H80.0913V4.24769C80.0913 4.86529 79.9541 5.39596 79.6798 5.83972C79.4056 6.28119 79.0278 6.62201 78.5466 6.86218C78.0654 7.10007 77.5144 7.21902 76.8936 7.21902C76.2007 7.21902 75.592 7.07377 75.0674 6.78327C74.5429 6.49048 74.1339 6.07532 73.8403 5.53778C73.5492 4.99796 73.4036 4.35749 73.4036 3.61637C73.4036 3.04681 73.4903 2.53901 73.6635 2.09297C73.8391 1.64464 74.0846 1.26493 74.3998 0.953844C74.7149 0.642758 75.0819 0.406012 75.5005 0.243607C75.9192 0.0812025 76.3727 0 76.8611 0C77.2798 0 77.6696 0.0583286 78.0305 0.174986C78.3914 0.289356 78.7114 0.451761 78.9905 0.662201C79.272 0.872641 79.5018 1.12311 79.6798 1.41361C79.8579 1.70182 79.9722 2.01977 80.0227 2.36745H78.4347Z" fill="#222221"/>
<path d="M81.2651 7.12295V0.0960706H86.2457V1.32097H82.8279V2.99534H85.9894V4.22024H82.8279V5.89805H86.2601V7.12295H81.2651Z" fill="#222221"/>
<path d="M87.4881 7.12295V0.0960706H90.4042C90.9624 0.0960706 91.4388 0.190998 91.8334 0.380851C92.2304 0.568418 92.5324 0.834899 92.7393 1.1803C92.9486 1.52341 93.0533 1.92713 93.0533 2.39147C93.0533 2.8581 92.9474 3.25954 92.7357 3.59578C92.524 3.92974 92.2172 4.18593 91.8154 4.36435C91.416 4.54277 90.9324 4.63197 90.3645 4.63197H88.412V3.43795H90.1119C90.4103 3.43795 90.6581 3.39907 90.8554 3.3213C91.0527 3.24353 91.1994 3.12687 91.2957 2.97133C91.3943 2.81578 91.4437 2.6225 91.4437 2.39147C91.4437 2.15816 91.3943 1.96144 91.2957 1.80132C91.1994 1.64121 91.0515 1.51997 90.8518 1.43763C90.6545 1.35299 90.4054 1.31068 90.1047 1.31068H89.0508V7.12295H87.4881ZM91.4797 3.92517L93.3168 7.12295H91.5916L89.7943 3.92517H91.4797Z" fill="#222221"/>
<path d="M65.3256 16.43H62.7054V9.40314H65.3473C66.0907 9.40314 66.7307 9.54382 67.2673 9.82517C67.8038 10.1042 68.2165 10.5057 68.5052 11.0295C68.7963 11.5533 68.9419 12.18 68.9419 12.9097C68.9419 13.6417 68.7963 14.2707 68.5052 14.7968C68.2165 15.3229 67.8014 15.7266 67.2601 16.008C66.7211 16.2893 66.0763 16.43 65.3256 16.43ZM64.2682 15.1571H65.2606C65.7226 15.1571 66.1112 15.0793 66.4264 14.9238C66.744 14.7659 66.9822 14.5223 67.141 14.1929C67.3022 13.8613 67.3828 13.4335 67.3828 12.9097C67.3828 12.3905 67.3022 11.9662 67.141 11.6368C66.9822 11.3074 66.7452 11.0649 66.43 10.9094C66.1148 10.7539 65.7262 10.6761 65.2643 10.6761H64.2682V15.1571Z" fill="#222221"/>
<path d="M70.0995 16.43V9.40314H73.0157C73.5739 9.40314 74.0503 9.49807 74.4449 9.68793C74.8419 9.87549 75.1438 10.142 75.3507 10.4874C75.5601 10.8305 75.6647 11.2342 75.6647 11.6985C75.6647 12.1652 75.5589 12.5666 75.3471 12.9029C75.1354 13.2368 74.8286 13.493 74.4268 13.6714C74.0274 13.8498 73.5438 13.939 72.976 13.939H71.0235V12.745H72.7233C73.0217 12.745 73.2695 12.7061 73.4668 12.6284C73.6641 12.5506 73.8109 12.4339 73.9071 12.2784C74.0058 12.1229 74.0551 11.9296 74.0551 11.6985C74.0551 11.4652 74.0058 11.2685 73.9071 11.1084C73.8109 10.9483 73.6629 10.827 73.4632 10.7447C73.2659 10.6601 73.0169 10.6178 72.7161 10.6178H71.6623V16.43H70.0995ZM74.0912 13.2322L75.9282 16.43H74.2031L72.4057 13.2322H74.0912Z" fill="#222221"/>
<path d="M78.0431 16.43H76.3685L78.9201 9.40314H80.934L83.482 16.43H81.8074L79.9559 11.0089H79.8982L78.0431 16.43ZM77.9385 13.668H81.894V14.8277H77.9385V13.668Z" fill="#222221"/>
<path d="M85.2911 16.43L83.1761 9.40314H84.8832L86.1067 14.2856H86.1681L87.5179 9.40314H88.9795L90.3257 14.2959H90.3907L91.6142 9.40314H93.3213L91.2064 16.43H89.6833L88.2758 11.8358H88.218L86.8141 16.43H85.2911Z" fill="#222221"/>
</svg>
