<svg width="205" height="193" viewBox="0 0 205 193" fill="none" xmlns="http://www.w3.org/2000/svg">
<path d="M100.78 62.5678C100.874 62.3656 100.931 62.1101 100.903 61.8547C100.723 60.3114 99.8747 58.8106 99.1674 57.8421C98.5355 56.9693 97.781 56.2668 96.9794 55.905C95.7911 54.4255 93.1883 55.2131 91.8868 55.1812C88.9444 55.1173 86.002 55.0854 83.0596 55.0854C77.1748 55.0854 71.29 55.2131 65.4052 55.4686C62.5948 55.5963 58.7659 54.4149 58.1529 60.354C57.7474 64.2708 58.2567 68.773 58.4358 72.7217C58.6716 78.0116 59.0111 83.2801 59.4166 88.5487C59.4261 88.7083 59.4638 88.836 59.5015 88.9638C59.3506 89.1341 59.2846 89.4321 59.2846 89.7301C59.2846 89.8578 59.2846 89.9962 59.3223 90.1345C59.8505 92.1142 60.3692 94.2642 61.0293 96.1588C60.8878 96.5739 61.001 97.2231 61.3877 97.2551C61.416 97.2551 61.4348 97.2551 61.4631 97.2551C61.6706 97.5318 61.963 97.5212 62.1704 97.2976C70.1677 97.8405 78.1839 97.8192 86.1812 97.7234C89.4914 97.6808 93.5089 98.6174 96.7342 97.2657C98.5166 96.5207 99.7521 94.6793 99.7426 91.5501C99.7426 91.4437 99.7238 91.3585 99.7049 91.2628C100.997 82.0667 101.252 71.9022 100.78 62.5785V62.5678ZM62.2647 57.7144C64.1792 56.9906 66.6029 57.5121 68.5645 57.4376C72.7706 57.2886 76.9673 57.2035 81.1734 57.1822C83.484 57.1822 85.7945 57.1822 88.1051 57.2141C89.7743 57.2354 92.9336 56.203 94.4048 57.3418C98.1017 60.1943 96.8568 74.2012 96.7908 79.8529C96.7531 82.9821 96.8757 83.8229 95.4328 86.3242C93.9804 88.8467 93.9333 88.5806 92.132 88.6019C90.0572 88.6232 87.9825 88.6019 85.9171 88.6019C77.5143 88.6125 69.0832 88.3464 60.6709 88.7402C60.6709 88.6764 60.6898 88.6125 60.6709 88.538C60.1617 81.9603 59.7656 75.372 59.5298 68.7517C59.3601 64.1431 58.5113 59.1406 62.2459 57.725L62.2647 57.7144ZM98.8562 90.7519C98.7524 90.8583 98.677 91.0286 98.6581 91.284C98.0923 97.2976 90.5948 95.5627 88.1051 95.6053C85.1344 95.6585 82.1731 95.6692 79.2024 95.6905C73.5345 95.7224 67.8666 95.6585 62.1987 95.7863C61.7555 93.9981 61.1519 92.2739 60.5578 90.6029C66.518 90.8689 72.5066 90.7093 78.4668 90.6987C81.3715 90.6987 84.2667 90.6987 87.1714 90.6987C89.6517 90.6987 92.4904 91.3053 94.9329 90.5284C98.262 89.4746 98.0168 84.5254 98.064 79.8635C98.1206 74.9249 98.064 69.9863 97.9319 65.0584C97.8848 63.4725 98.0923 60.4923 97.781 58.2572C98.0357 58.5446 98.2903 58.8532 98.5261 59.2151C99.0259 59.9921 99.3371 60.9181 99.7049 61.8121C99.6861 61.9186 99.6672 62.025 99.6578 62.1634C99.5635 71.7638 99.1579 81.2046 98.8562 90.7625V90.7519Z" fill="#949494"/>
<path d="M165.561 52.0589C165.71 50.0767 166.009 48.1329 166.226 46.1599C166.359 44.9265 166.211 43.7264 165.519 42.5775C165.223 42.0901 164.749 41.7575 164.372 41.3487C163.757 40.6572 162.959 40.2982 162.008 40.1688C161.311 40.0741 160.644 40.0192 159.939 40.1198C160.124 35.9614 155.653 31.8311 150.383 34.082C150.11 32.0245 149.747 29.9906 147.421 28.9054C145.307 27.9205 143.189 27.7218 140.963 28.8314C141.148 27.9805 141.423 27.2312 141.44 26.4648C141.471 24.842 141.875 23.27 142.024 21.6634C142.193 19.9163 142.136 18.1743 142.234 16.4355C142.315 14.8197 142.052 13.1927 141.891 11.5796C141.827 11.0345 142.083 10.5508 142.036 10.008C141.888 8.68269 141.492 7.39524 141.184 6.10179C140.885 4.8633 139.907 4.17591 138.66 3.93475C137.381 3.67142 136.159 4.00585 135.291 4.92464C134.664 5.59029 134.13 6.34002 133.887 7.23666C133.391 8.97495 132.844 10.7063 132.464 12.4783C132.138 13.9894 132.049 15.5327 131.62 17.0299C131.368 17.8715 131.061 18.7238 130.91 19.5793C130.721 20.5905 130.531 21.6017 130.177 22.5547C129.767 23.6611 129.714 24.8159 129.508 25.95C129.131 27.9549 128.871 29.9934 128.242 31.9461C127.647 33.7781 127.287 35.6601 126.981 37.5314C126.729 38.999 125.89 40.2079 125.656 41.803C124.949 41.2778 124.58 40.8163 124.266 40.3266C123.492 39.1486 122.774 37.9425 121.87 36.8361C120.802 35.5288 119.715 34.2367 118.275 33.2541C117.056 32.4267 115.682 31.7213 114.19 31.5005C111.58 31.1096 109.054 31.499 106.74 32.6146C105.943 33.0067 105.251 33.6456 105.119 34.4859C104.957 35.6795 105.34 36.8044 106.382 37.6613C107.05 38.217 107.822 38.6439 108.65 38.9174C110.601 39.5762 112.015 40.877 113.395 42.1733C114.348 43.0538 114.971 44.1934 115.672 45.272C116.528 46.6043 116.963 48.1117 117.837 49.4462C118.807 50.955 119.221 52.6203 119.709 54.2422C120.232 55.9939 120.449 57.8292 120.759 59.6234C121.176 62.1475 121.977 64.527 123.676 66.6534C124.206 67.3334 124.603 68.1025 124.966 68.867C125.502 70.0127 125.859 71.2054 126.468 72.3252C127.405 74.0797 127.76 75.7907 127.291 77.7115C126.967 79.0798 126.994 80.5317 126.568 81.8861C125.831 84.2531 125.327 86.6875 124.791 89.0998C124.702 89.4989 124.683 89.8897 124.786 90.2792C124.901 90.706 125.21 90.9804 125.678 91.0977C126.396 91.2848 126.822 91.0747 127.107 90.3804C127.459 89.5701 127.39 88.6846 127.674 87.8651C128.228 86.2062 128.465 84.4684 128.968 82.8026C129.469 81.1544 129.735 79.4563 130.017 77.7605C130.123 77.1133 130.33 76.48 130.248 75.8074C130.091 74.5523 129.773 73.3291 129.331 72.1248C128.79 70.6387 127.996 69.2256 127.108 67.8711C126.663 67.2027 126.491 66.4285 125.971 65.8034C124.59 64.1316 124.275 62.1221 123.508 60.2656C123.43 60.0762 123.405 59.8762 123.397 59.6784C123.249 57.2089 122.429 54.8446 121.75 52.4637C121.396 51.2534 120.901 50.0598 120.387 48.8813C119.953 47.8747 119.352 46.9527 118.952 45.9507C118.216 44.1163 116.886 42.5766 115.687 40.9653C115.086 40.1685 114.282 39.5942 113.503 38.9697C112.079 37.8642 110.607 36.8595 108.908 36.1277C108.566 35.9739 108.26 35.8071 108.019 35.5419C107.701 35.2126 107.734 34.9668 108.129 34.7345C108.563 34.4716 109.006 34.2638 109.493 34.1155C111.694 33.4494 113.818 33.345 115.928 34.6154C117.91 35.8147 119.276 37.4666 120.543 39.2123C121.533 40.5806 122.315 42.0815 123.545 43.3394C124.06 43.8744 124.693 44.1751 125.429 44.3645C125.929 44.504 126.423 44.4283 126.774 44.1363C127.549 43.5266 128.277 42.8748 128.312 41.8603C128.33 41.2192 128.583 40.6279 128.868 40.0588C128.986 39.8246 129.139 39.595 129.158 39.3294C129.348 37.5495 129.975 35.8648 130.369 34.1126C131.126 30.8365 132.002 27.5766 132.543 24.2353C132.643 23.6232 132.782 22.9807 133.031 22.4245C133.528 21.3121 133.756 20.1453 133.812 18.9729C133.887 17.5348 134.328 16.2003 134.536 14.7983C134.789 12.9376 135.597 11.1882 135.952 9.34132C136.058 8.81932 136.13 8.29271 136.335 7.80212C136.624 7.07271 137.074 6.43662 137.968 6.2186C138.361 6.12899 138.79 6.15163 138.833 6.60434C138.939 7.60215 139.402 8.52328 139.455 9.53171C139.516 10.863 139.269 12.1703 139.366 13.4887C139.616 16.9912 139.64 20.4988 139.168 23.9744C139.089 24.5537 138.906 25.1367 138.827 25.716C138.567 27.6294 138.542 29.5926 138.162 31.4898C137.786 33.3695 137.411 35.2316 137.035 37.1112C136.977 37.4073 136.885 37.6988 136.864 37.982C136.817 38.5835 137.315 39.1161 138.038 39.2681C138.526 39.3702 139.136 39.0778 139.339 38.6047C139.494 38.2324 139.631 37.8578 139.667 37.4693C139.778 36.3939 139.924 35.3231 140.574 34.3567C140.833 33.9807 140.948 33.5137 141.078 33.0665C141.314 32.2225 141.795 31.4834 142.354 30.8085C142.685 30.4066 143.114 30.0537 143.728 30.1193C144.562 30.215 145.385 30.3984 146.125 30.8031C147.49 31.5787 147.982 32.7899 147.878 34.063C147.73 36.1704 148.03 38.2852 147.833 40.3681C147.797 40.6315 147.779 40.8971 147.813 41.1521C147.856 41.73 148.203 42.0991 148.773 42.2303C149.329 42.3416 149.988 42.0737 150.227 41.5877C150.394 41.2528 150.509 40.911 150.508 40.5354C150.497 39.4789 150.657 38.428 150.439 37.3614C150.306 36.6819 150.507 36.4768 151.251 36.2204C151.796 36.0264 152.339 35.8499 152.885 35.6559C153.357 35.4878 153.883 35.5594 154.289 35.7576C154.937 36.0782 155.585 36.3988 156.144 36.8681C156.781 37.4017 157.146 38.0235 157.142 38.8097C157.139 39.3456 157.101 39.8768 157.221 40.3937C157.669 42.1889 157.267 43.8685 156.611 45.5135C156.353 46.1399 156.626 46.8028 157.196 47.0591C157.818 47.3225 158.421 47.0827 158.803 46.4374C158.895 46.2711 158.957 46.0651 159.049 45.8988C159.428 45.1458 159.472 44.3115 159.636 43.4934C159.844 42.3418 160.159 42.188 161.481 42.3857C162.127 42.4735 162.569 42.7839 162.902 43.2584C163.264 43.7725 163.481 44.3384 163.483 44.9643C163.48 47.02 163.069 49.0202 162.998 51.0666C162.959 52.1162 162.578 53.1371 162.471 54.1774C162.3 55.8168 161.998 57.4027 161.64 59.0167C161.263 60.646 160.621 62.1856 159.901 63.6611C158.982 65.592 157.928 67.4869 156.438 69.1614C155.231 70.5347 154.308 72.1077 152.94 73.3877C152.366 73.9175 152.026 74.64 151.53 75.2341C150.321 76.7501 149.983 78.5993 149.234 80.2854C148.206 82.6307 147.608 85.1238 147.13 87.6155C146.672 89.9668 146.248 92.3227 146.027 94.7064C145.98 95.0575 146.024 95.3674 146.209 95.6608C146.452 96.0336 146.824 96.2271 147.306 96.2391C147.823 96.2558 148.147 96.0317 148.338 95.6465C148.435 95.4451 148.519 95.2062 148.55 94.978C148.9 92.0221 149.639 89.1368 150.156 86.2214C150.518 84.1967 151.13 82.2418 152.123 80.4102C152.304 80.0951 152.405 79.7334 152.553 79.4138C153.016 78.422 153.268 77.3299 153.943 76.4384C155.249 74.7209 156.633 73.0676 157.987 71.3746C159.509 69.4719 160.95 67.5225 161.974 65.3375C163.099 62.916 163.894 60.3781 164.57 57.824C164.813 56.9274 165.124 56.04 165.112 55.1087C165.099 54.5705 165.219 54.0684 165.324 53.5464C165.43 53.0244 165.553 52.5047 165.588 51.991L165.561 52.0589Z" fill="#949494"/>
<path d="M194.838 121.034C194.46 119.929 194.15 118.813 193.654 117.726C192.908 116.14 190.666 116.254 189.701 117.263C189.433 117.537 189.237 117.836 189.025 118.137C188.572 118.78 188.302 119.484 188.225 120.212C188.084 121.649 188.034 123.107 187.93 124.555C187.918 124.7 187.981 124.887 187.722 124.999C187.735 124.299 187.82 123.623 187.765 122.933C187.714 122.154 187.887 121.375 187.799 120.583C187.68 119.366 187.681 118.148 187.77 116.935C187.912 115.176 187.745 113.429 187.699 111.681C187.661 110.649 187.585 109.604 187.429 108.59C187.139 106.719 185.612 106.435 184.119 106.935C182.972 107.327 182.028 108.135 181.374 109.15C181.014 109.725 180.693 110.329 180.351 110.901C180.048 111.396 179.812 111.88 179.638 112.426C179.4 113.233 179.182 114.054 178.944 114.861C178.684 115.743 178.426 116.642 178.398 117.577C178.375 118.208 178.447 118.895 178.241 119.464C177.953 120.278 178.005 121.058 177.975 121.868C177.963 122.354 178.146 122.863 178.084 123.356C177.984 124.159 178.119 124.926 178.137 125.711C178.171 126.708 178.218 127.686 178.01 128.685C177.961 128.925 177.901 129.203 178.04 129.432C178.162 129.664 178.037 129.862 177.966 130.07C177.81 129.844 177.968 129.64 178.04 129.432C177.652 129.492 177.699 129.127 177.717 129.017C177.827 128.391 177.37 127.889 177.331 127.304C177.302 127.004 177.34 126.693 177.244 126.404C176.957 125.553 176.805 124.681 176.583 123.802C176.331 122.839 176.331 121.836 176.264 120.844C176.112 118.969 175.64 117.144 175.573 115.257C175.558 114.829 175.241 114.449 175.36 114.108C175.595 113.391 175.225 112.786 175.209 112.126C175.196 111.036 174.942 109.947 174.911 108.859C174.902 108.467 174.745 108.115 174.702 107.728C174.595 106.813 174.587 105.866 173.929 105.072C173.843 104.96 173.869 104.795 173.811 104.643C173.455 103.57 172.589 102.092 170.876 102.393C169.898 102.544 169.049 102.854 168.377 103.639C167.47 104.692 166.93 105.886 166.427 107.091C166.051 108.009 165.983 109.022 165.823 109.996C165.73 110.511 165.674 111.039 165.702 111.554C165.732 112.087 165.743 112.604 165.721 113.127C165.691 114.278 165.645 115.431 165.703 116.585C165.764 117.758 165.962 118.927 166.109 120.104C166.186 120.826 166.317 121.558 166.343 122.288C166.36 122.733 166.484 123.197 166.276 123.749C166.094 123.132 165.946 122.618 165.761 122.091C165.515 121.395 165.548 120.602 165.094 120.01C164.685 119.482 164.579 118.908 164.487 118.313C164.406 117.789 164.274 117.272 164.126 116.758C163.889 115.899 163.67 115.038 163.45 114.176C163.349 113.744 163.102 113.371 163.031 112.916C162.902 112.077 162.772 111.237 162.493 110.439C162.25 109.76 162.019 109.044 161.694 108.396C161.012 106.997 160.789 105.438 159.828 104.136C159.258 103.347 158.555 103.044 157.483 103.246C156.676 103.388 156.255 103.901 155.681 104.312C154.52 105.172 153.879 106.274 153.342 107.485C153.089 108.079 153.147 108.679 153.085 109.279C152.972 110.335 152.825 111.396 152.799 112.457C152.792 112.744 152.951 112.988 152.893 113.284C152.719 114.278 152.822 115.282 152.802 116.27C152.785 117.275 152.759 118.336 153.315 119.252C153.362 119.335 153.339 119.41 153.35 119.48C153.429 119.987 153.493 120.514 153.633 120.976C153.799 121.487 154 122.011 154.132 122.528C154.466 123.909 154.899 125.257 155.264 126.615C155.547 127.663 155.762 128.722 156.011 129.776C156.244 130.724 156.241 131.71 156.609 132.638C156.808 133.144 156.948 133.713 156.978 134.246C157.023 135.313 157.216 136.34 157.409 137.366C157.61 138.445 157.573 139.543 157.69 140.635C157.783 141.462 157.672 142.303 157.664 143.146C157.64 143.884 157.636 144.636 157.079 145.277C157.023 145.358 156.91 145.411 156.879 145.541C156.621 146.333 156.01 146.839 155.18 147.165C154.629 147.393 154.05 147.554 153.46 147.645C152.52 147.809 151.55 148.012 150.614 147.87C149.238 147.671 147.876 147.345 146.52 147.053C145.735 146.888 144.971 146.63 144.175 146.502C142.9 146.288 141.616 146.576 140.377 146.821C138.734 147.129 137.226 147.863 135.844 148.739C134.962 149.287 134.298 150.124 133.696 150.915C132.881 152.008 132.936 153.253 133.176 154.469C133.311 155.236 133.796 155.806 134.572 156.026C135.692 156.354 136.864 156.567 138.089 156.235C139.317 155.919 140.574 155.904 141.813 155.999C142.913 156.08 143.997 156.288 145.047 156.717C146.242 157.194 147.29 157.838 148.285 158.58C148.852 159.011 149.357 159.488 149.802 160.028C150.167 160.491 150.749 160.795 151.083 161.281C151.286 161.589 151.548 161.835 151.83 162.096C152.011 162.265 152.178 162.454 152.284 162.688C152.86 163.96 153.971 164.899 154.891 165.938C155.56 166.694 156.152 167.516 156.931 168.201C157.632 168.827 158.284 169.478 159.089 169.998C159.55 170.303 160.119 170.412 160.578 170.699C161.444 171.281 162.449 171.645 163.423 172.032C163.902 172.226 164.451 172.321 164.944 172.495C165.658 172.761 166.428 172.946 167.177 172.991C168.414 173.069 169.298 173.541 170.214 174.223C171.228 174.979 171.949 175.96 172.912 176.724C173.839 177.476 174.538 178.425 175.437 179.217C176.176 179.872 176.826 180.614 177.503 181.315C178.1 181.939 178.759 182.517 179.372 183.138C180.231 184.008 181.375 184.601 182.209 185.529C182.354 185.686 182.51 185.805 182.726 185.861C183.07 185.969 183.435 185.984 183.681 185.677C183.91 185.373 183.945 185.046 183.689 184.727C183.043 183.896 182.448 183.057 181.787 182.246C181.253 181.577 180.687 180.93 180.093 180.323C179.276 179.501 178.273 178.814 177.56 177.886C177.301 177.55 177.02 177.182 176.701 176.909C175.959 176.235 175.276 175.5 174.55 174.824C173.708 174.059 172.896 173.271 172.084 172.484C171.861 172.267 171.562 172.117 171.322 171.903C170.917 171.518 170.437 171.091 169.837 171.005C169.044 170.894 168.265 170.657 167.475 170.564C166.28 170.426 165.163 170.008 164.054 169.642C163.234 169.357 162.521 168.877 161.783 168.454C160.76 167.86 159.827 167.18 158.953 166.438C158.06 165.681 157.209 164.864 156.513 163.933C156.184 163.482 155.732 163.122 155.392 162.709C155.097 162.361 154.847 161.97 154.549 161.604C153.958 160.908 153.271 160.262 152.771 159.48C152.387 158.894 151.795 158.521 151.304 158.023C149.795 156.52 148.043 155.34 145.943 154.591C145.083 154.276 144.233 153.906 143.282 153.892C142.297 153.883 141.345 153.529 140.323 153.723C140.121 153.754 139.879 153.755 139.664 153.699C138.762 153.445 137.885 153.688 137.047 153.96C136.111 154.266 135.776 154.103 135.812 153.22C135.842 152.302 136.324 151.512 137.043 150.917C137.669 150.391 138.434 149.986 139.247 149.663C140.369 149.221 141.543 149.004 142.736 148.909C143.979 148.807 145.195 149.084 146.377 149.367C147.291 149.584 148.153 149.916 149.083 150.13C150.815 150.507 152.563 150.434 154.305 150.093C155.074 149.938 155.775 149.561 156.506 149.269C156.931 149.114 157.277 148.9 157.637 148.665C158.308 148.203 158.78 147.575 159.238 146.967C159.467 146.663 159.878 146.42 159.937 146.018C160.019 145.324 160.295 144.655 160.361 143.964C160.453 143.109 160.405 142.239 160.46 141.371C160.479 141.046 160.366 140.759 160.337 140.459C160.282 139.321 160.176 138.192 160.107 137.075C160.019 135.727 159.364 134.504 159.296 133.171C159.249 132.194 159.027 131.207 158.845 130.251C158.643 129.279 158.388 128.298 158.133 127.317C157.713 125.717 157.461 124.09 156.943 122.523C156.48 121.091 156.22 119.627 155.838 118.164C155.619 117.303 155.657 116.437 155.64 115.545C155.621 114.527 155.652 113.502 155.512 112.485C155.404 111.785 155.672 111.064 155.567 110.382C155.456 109.665 155.597 109.016 155.8 108.322C156.127 107.197 156.889 106.435 157.754 105.675C158.177 106.29 158.564 106.892 158.725 107.601C159.01 108.775 159.329 109.943 159.808 111.033C160.392 112.357 160.625 113.754 161.091 115.096C161.381 115.964 161.628 116.893 161.723 117.845C161.777 118.303 161.819 118.797 161.954 119.224C162.265 120.125 162.661 121.013 163.167 121.83C163.653 122.632 163.623 123.55 163.994 124.388C164.124 124.672 164.063 125.057 164.148 125.385C164.29 125.971 164.545 126.505 164.719 127.069C164.915 127.665 164.995 128.297 165.042 128.935C165.081 129.412 165.478 129.745 165.565 130.197C165.667 130.861 165.835 131.498 165.971 132.157C166.233 133.406 166.464 134.677 166.794 135.916C167.049 136.897 167.321 137.875 167.823 138.782C168.109 139.293 168.601 139.575 169.155 139.472C169.641 139.379 169.833 139.062 169.91 138.442C170.04 137.383 169.824 136.324 169.934 135.251C170.095 133.615 170.063 131.955 169.64 130.337C169.363 129.216 169.542 128.024 169.296 126.881C169.121 126.084 169.28 125.218 169.091 124.441C168.828 123.408 168.716 122.351 168.607 121.311C168.552 120.729 168.668 120.138 168.595 119.558C168.445 118.364 168.09 117.183 168.316 115.967C168.435 115.286 168.332 114.621 168.384 113.951C168.414 113.588 168.408 113.213 168.402 112.838C168.375 112.108 168.208 111.364 168.341 110.663C168.608 109.261 168.908 107.854 169.51 106.507C169.755 105.968 170.111 105.483 170.468 104.999C170.68 104.697 171.03 104.732 171.194 105.012C171.797 106.011 172.136 107.086 172.295 108.225C172.433 109.117 172.366 110.023 172.503 110.915C172.628 111.719 172.803 112.516 172.823 113.318C172.854 114.854 173.021 116.385 172.984 117.931C172.972 118.524 173.016 119.143 173.106 119.721C173.279 120.732 173.571 121.726 173.697 122.763C173.79 123.59 173.951 124.406 174.179 125.213C174.374 125.917 174.451 126.639 174.68 127.338C175.019 128.413 175.225 129.527 175.499 130.631C175.68 131.355 175.864 132.096 175.975 132.813C176.18 134.142 176.453 135.461 176.894 136.753C177.087 137.332 177.41 137.856 178.031 138.189C178.559 138.484 179.084 138.42 179.37 137.928C179.696 137.359 180.084 136.744 179.967 136.099C179.846 135.312 180.021 134.551 180.144 133.78C180.351 132.441 180.715 131.114 180.625 129.749C180.545 128.562 180.619 127.368 180.78 126.18C180.927 125.119 180.638 124.035 180.695 122.952C180.736 122.212 180.547 121.435 180.759 120.686C181.1 119.541 180.921 118.387 181.192 117.235C181.514 115.86 181.889 114.495 182.338 113.155C182.435 112.889 182.358 112.614 182.536 112.318C182.766 111.907 183.091 111.552 183.284 111.128C183.551 110.514 183.841 109.932 184.469 109.531C184.579 109.46 184.577 109.227 184.812 109.299C185.048 109.37 185.024 109.552 185.034 109.73C185.139 110.627 184.985 111.528 185.103 112.405C185.275 113.632 185.153 114.85 185.188 116.08C185.204 116.633 184.929 117.195 184.959 117.727C185.031 118.862 184.949 120.003 185.125 121.139C185.214 121.716 185.036 122.353 185.168 122.869C185.371 123.626 185.319 124.404 185.292 125.124C185.247 126.062 185.203 127 185.192 127.933C185.187 128.686 185.303 129.437 185.212 130.186C185.071 131.282 185.154 132.379 185.167 133.469C185.213 135.217 185.563 136.918 185.965 138.628C186.097 139.145 186.4 139.545 186.986 139.652C187.574 139.776 188.147 139.687 188.593 139.224C188.858 138.933 188.734 138.576 188.862 138.288C189.362 137.279 189.231 136.207 189.363 135.166C189.52 133.835 189.502 132.495 189.639 131.149C189.708 130.476 189.841 129.775 189.859 129.109C189.899 127.474 190.36 125.881 190.451 124.237C190.517 122.991 191.091 121.793 190.981 120.521C190.952 120.221 191.074 119.897 191.168 119.614C191.232 119.354 191.228 118.996 191.572 118.764C191.622 118.864 191.669 118.946 191.696 119.013C191.995 119.719 192.078 120.476 192.295 121.213C192.441 121.709 192.575 122.244 192.673 122.766C192.782 123.358 192.759 123.988 192.848 124.565C193.026 125.719 193.07 126.894 192.988 128.035C192.929 128.993 193.019 129.91 193.044 130.855C193.046 131.875 193.136 132.9 193.105 133.925C193.068 134.808 192.878 135.697 192.873 136.557C192.866 138.188 192.041 139.658 191.875 141.26C191.88 141.295 191.869 141.332 191.855 141.352C191.061 142.8 190.628 144.353 190.282 145.91C189.844 147.876 188.972 149.712 188.192 151.587C187.754 152.658 187.131 153.649 186.875 154.781C186.8 155.079 186.68 155.42 186.393 155.679C186.167 155.893 186.005 156.187 185.953 156.517C185.9 156.847 185.764 157.191 185.563 157.455C185.306 157.799 185.11 158.205 184.993 158.563C184.626 159.766 184.577 161.009 185.171 162.171C185.789 163.382 186.425 164.591 187.175 165.764C187.767 166.693 188.622 167.42 189.211 168.332C189.825 169.293 190.586 170.196 191.299 171.125C191.883 171.894 192.516 172.638 193.225 173.316C193.732 173.81 194.212 174.345 194.719 174.84C195.537 175.662 196.137 176.644 196.985 177.444C197.591 178.013 198.277 178.103 198.855 177.71C199.37 177.361 199.391 176.714 198.982 176.079C198.476 175.261 197.709 174.646 197.158 173.872C196.915 173.533 196.749 173.129 196.462 172.833C195.648 172.028 195.022 171.104 194.222 170.279C193.569 169.628 192.992 168.911 192.416 168.195C191.923 167.573 191.348 166.981 190.92 166.331C190.339 165.472 189.633 164.704 189.159 163.756C188.685 162.809 187.997 161.931 187.619 160.933C187.326 160.154 187.061 159.336 187.644 158.53C188.269 157.663 188.527 156.656 189.043 155.753C189.613 154.752 190.054 153.699 190.459 152.633C190.655 152.12 191.031 151.65 191.175 151.126C191.556 149.796 192.135 148.525 192.64 147.211C193.01 146.259 193.361 145.291 193.658 144.314C194.102 142.831 194.492 141.338 194.899 139.843C195.129 138.984 195.339 138.11 195.358 137.23C195.379 136.474 195.577 135.746 195.668 134.997C195.76 134.249 195.798 133.491 195.785 132.741C195.758 131.564 195.678 130.376 195.601 129.206C195.564 128.747 195.615 128.291 195.595 127.829C195.573 127.349 195.41 126.855 195.491 126.376C195.61 125.696 195.584 124.966 195.436 124.344C195.184 123.273 195.252 122.152 194.897 121.079L194.838 121.034Z" fill="#949494"/>
<path d="M86 70.0195H82.4352C82.37 69.5616 82.2371 69.1549 82.0364 68.7994C81.8356 68.4385 81.5779 68.1315 81.2632 67.8783C80.9485 67.6252 80.5849 67.4312 80.1725 67.2966C79.7656 67.1619 79.3234 67.0946 78.8459 67.0946C77.9832 67.0946 77.2317 67.3074 76.5914 67.7329C75.9512 68.153 75.4547 68.7671 75.102 69.5751C74.7493 70.3777 74.573 71.3527 74.573 72.5C74.573 73.6797 74.7493 74.6708 75.102 75.4734C75.4601 76.276 75.9593 76.882 76.5996 77.2914C77.2398 77.7007 77.9805 77.9054 78.8215 77.9054C79.2935 77.9054 79.7303 77.8435 80.1319 77.7196C80.5388 77.5957 80.8996 77.4152 81.2143 77.1782C81.529 76.9358 81.7895 76.6423 81.9957 76.2975C82.2073 75.9528 82.3538 75.5596 82.4352 75.1179L86 75.134C85.9078 75.8935 85.6772 76.6261 85.3082 77.3317C84.9447 78.032 84.4536 78.6595 83.8351 79.2144C83.2219 79.7638 82.4894 80.2001 81.6375 80.5233C80.7911 80.8411 79.8334 81 78.7645 81C77.2778 81 75.9485 80.666 74.7765 79.9981C73.6099 79.3302 72.6875 78.3633 72.0092 77.0974C71.3364 75.8316 71 74.2991 71 72.5C71 70.6955 71.3418 69.1603 72.0255 67.8945C72.7092 66.6286 73.637 65.6644 74.809 65.0019C75.981 64.334 77.2995 64 78.7645 64C79.7303 64 80.6256 64.1347 81.4504 64.404C82.2805 64.6733 83.0157 65.0665 83.656 65.5836C84.2963 66.0954 84.8171 66.7229 85.2187 67.4663C85.6256 68.2096 85.8861 69.0607 86 70.0195Z" fill="#949494"/>
<path d="M111.982 119V109.94H115.556C116.243 109.94 116.829 110.071 117.312 110.334C117.796 110.593 118.165 110.954 118.418 111.418C118.675 111.878 118.803 112.408 118.803 113.01C118.803 113.612 118.674 114.143 118.414 114.603C118.154 115.063 117.778 115.421 117.286 115.678C116.796 115.934 116.204 116.063 115.507 116.063H113.229V114.527H115.198C115.566 114.527 115.87 114.464 116.109 114.337C116.351 114.207 116.531 114.029 116.649 113.802C116.77 113.572 116.83 113.308 116.83 113.01C116.83 112.709 116.77 112.447 116.649 112.223C116.531 111.996 116.351 111.82 116.109 111.696C115.867 111.569 115.561 111.506 115.189 111.506H113.897V119H111.982ZM120.563 119H118.51L121.638 109.94H124.106L127.23 119H125.177L122.907 112.01H122.837L120.563 119ZM120.435 115.439H125.283V116.934H120.435V115.439ZM128.32 119V109.94H130.236V117.421H134.12V119H128.32ZM135.388 109.94H137.751L140.246 116.027H140.352L142.847 109.94H145.209V119H143.351V113.103H143.276L140.931 118.956H139.666L137.322 113.081H137.246V119H135.388V109.94ZM106.081 131V121.94H112.186V123.519H107.997V125.678H111.872V127.257H107.997V129.421H112.204V131H106.081ZM113.709 131V121.94H117.284C117.968 121.94 118.552 122.062 119.036 122.307C119.522 122.549 119.892 122.893 120.146 123.338C120.402 123.78 120.531 124.301 120.531 124.9C120.531 125.501 120.401 126.019 120.141 126.452C119.882 126.883 119.506 127.213 119.013 127.443C118.524 127.673 117.931 127.788 117.235 127.788H114.842V126.249H116.925C117.291 126.249 117.595 126.199 117.837 126.098C118.078 125.998 118.258 125.848 118.376 125.647C118.497 125.447 118.558 125.197 118.558 124.9C118.558 124.599 118.497 124.345 118.376 124.139C118.258 123.932 118.077 123.776 117.832 123.67C117.59 123.561 117.285 123.506 116.916 123.506H115.625V131H113.709ZM118.602 126.877L120.854 131H118.739L116.536 126.877H118.602ZM123.446 131H121.393L124.521 121.94H126.99L130.113 131H128.06L125.791 124.01H125.72L123.446 131ZM123.318 127.439H128.166V128.934H123.318V127.439ZM135.911 124.546C135.876 124.189 135.724 123.912 135.456 123.714C135.187 123.516 134.823 123.418 134.363 123.418C134.05 123.418 133.786 123.462 133.571 123.55C133.356 123.636 133.191 123.755 133.076 123.909C132.964 124.062 132.908 124.236 132.908 124.431C132.902 124.593 132.936 124.734 133.009 124.855C133.086 124.976 133.191 125.081 133.323 125.169C133.456 125.255 133.61 125.33 133.784 125.395C133.958 125.457 134.143 125.51 134.341 125.554L135.155 125.749C135.55 125.837 135.913 125.955 136.243 126.103C136.574 126.25 136.86 126.432 137.101 126.647C137.343 126.862 137.531 127.116 137.663 127.408C137.799 127.7 137.868 128.035 137.871 128.412C137.868 128.967 137.727 129.447 137.446 129.854C137.169 130.258 136.768 130.572 136.243 130.797C135.721 131.018 135.092 131.128 134.354 131.128C133.623 131.128 132.986 131.016 132.443 130.792C131.903 130.568 131.482 130.236 131.178 129.797C130.877 129.354 130.719 128.807 130.705 128.155H132.558C132.579 128.459 132.666 128.713 132.819 128.916C132.975 129.117 133.183 129.269 133.443 129.372C133.705 129.472 134.002 129.522 134.332 129.522C134.657 129.522 134.938 129.475 135.177 129.381C135.419 129.286 135.606 129.155 135.739 128.987C135.872 128.819 135.938 128.626 135.938 128.408C135.938 128.204 135.877 128.033 135.757 127.894C135.639 127.756 135.465 127.638 135.235 127.541C135.007 127.443 134.729 127.355 134.398 127.275L133.412 127.027C132.648 126.842 132.045 126.551 131.603 126.156C131.16 125.761 130.94 125.228 130.943 124.559C130.94 124.01 131.086 123.531 131.381 123.121C131.679 122.711 132.088 122.391 132.607 122.161C133.126 121.931 133.716 121.816 134.376 121.816C135.049 121.816 135.636 121.931 136.137 122.161C136.641 122.391 137.034 122.711 137.314 123.121C137.594 123.531 137.738 124.006 137.747 124.546H135.911ZM139.16 131V121.94H145.265V123.519H141.075V125.678H144.95V127.257H141.075V129.421H145.282V131H139.16Z" fill="#949494"/>
<path d="M15.3404 63.1119H13.4028C13.3674 62.8612 13.2951 62.6385 13.186 62.4439C13.0769 62.2463 12.9368 62.0781 12.7658 61.9395C12.5947 61.8009 12.3971 61.6947 12.173 61.621C11.9518 61.5473 11.7114 61.5104 11.4519 61.5104C10.9829 61.5104 10.5745 61.6269 10.2265 61.8599C9.87846 62.0899 9.60861 62.4262 9.41691 62.8685C9.2252 63.308 9.12935 63.8418 9.12935 64.47C9.12935 65.1159 9.2252 65.6585 9.41691 66.098C9.61155 66.5374 9.88288 66.8692 10.2309 67.0933C10.5789 67.3175 10.9815 67.4295 11.4386 67.4295C11.6952 67.4295 11.9326 67.3956 12.1508 67.3278C12.372 67.26 12.5682 67.1612 12.7392 67.0314C12.9103 66.8987 13.0518 66.7379 13.1639 66.5492C13.2789 66.3604 13.3586 66.1451 13.4028 65.9033L15.3404 65.9122C15.2903 66.328 15.165 66.7291 14.9644 67.1154C14.7668 67.4988 14.4999 67.8424 14.1637 68.1462C13.8304 68.447 13.4323 68.6859 12.9693 68.8629C12.5092 69.0369 11.9886 69.1239 11.4076 69.1239C10.5995 69.1239 9.87699 68.941 9.23995 68.5753C8.60587 68.2096 8.1045 67.6802 7.73584 66.9871C7.37014 66.2941 7.18728 65.455 7.18728 64.47C7.18728 63.482 7.37309 62.6415 7.74469 61.9484C8.11629 61.2553 8.62061 60.7274 9.25765 60.3646C9.89468 59.9989 10.6113 59.8161 11.4076 59.8161C11.9326 59.8161 12.4192 59.8898 12.8675 60.0373C13.3187 60.1847 13.7184 60.4 14.0664 60.6832C14.4144 60.9633 14.6975 61.3069 14.9158 61.7139C15.1369 62.1209 15.2785 62.5869 15.3404 63.1119ZM16.714 69V59.94H18.6296V67.4207H22.5137V69H16.714ZM23.7823 69V59.94H29.8872V61.5193H25.6978V63.6781H29.5731V65.2574H25.6978V67.4207H29.9049V69H23.7823ZM32.9717 69H30.919L34.0467 59.94H36.5152L39.6384 69H37.5858L35.3163 62.0103H35.2456L32.9717 69ZM32.8434 65.4388H37.6919V66.9341H32.8434V65.4388ZM40.7289 69V59.94H44.3034C44.9876 59.94 45.5716 60.0623 46.0552 60.3071C46.5419 60.549 46.912 60.8926 47.1656 61.3379C47.4222 61.7803 47.5505 62.3008 47.5505 62.8995C47.5505 63.5012 47.4207 64.0187 47.1612 64.4523C46.9017 64.8829 46.5256 65.2132 46.0331 65.4432C45.5435 65.6733 44.9507 65.7883 44.2547 65.7883H41.8614V64.2488H43.9451C44.3108 64.2488 44.6145 64.1986 44.8564 64.0984C45.0982 63.9981 45.2781 63.8477 45.3961 63.6471C45.517 63.4466 45.5775 63.1974 45.5775 62.8995C45.5775 62.5987 45.517 62.3451 45.3961 62.1386C45.2781 61.9322 45.0967 61.7759 44.8519 61.6697C44.6101 61.5606 44.3049 61.506 43.9362 61.506H42.6444V69H40.7289ZM45.6217 64.877L47.8734 69H45.7588L43.5558 64.877H45.6217ZM6.58011 74.5456C6.54472 74.1887 6.39284 73.9115 6.12446 73.7139C5.85608 73.5163 5.49185 73.4175 5.03177 73.4175C4.71915 73.4175 4.45519 73.4618 4.2399 73.5502C4.0246 73.6358 3.85945 73.7552 3.74442 73.9086C3.63235 74.0619 3.57632 74.2359 3.57632 74.4306C3.57042 74.5928 3.60434 74.7344 3.67807 74.8553C3.75475 74.9762 3.85945 75.0809 3.99216 75.1694C4.12488 75.2549 4.27824 75.3301 4.45224 75.395C4.62625 75.4569 4.81205 75.51 5.00965 75.5542L5.82364 75.7489C6.21883 75.8374 6.58159 75.9553 6.9119 76.1028C7.24222 76.2503 7.52829 76.4316 7.77013 76.6469C8.01197 76.8622 8.19924 77.1159 8.33196 77.4078C8.46762 77.6998 8.53693 78.0345 8.53988 78.412C8.53693 78.9665 8.39537 79.4472 8.11519 79.8542C7.83796 80.2583 7.43687 80.5724 6.9119 80.7965C6.38989 81.0177 5.76023 81.1283 5.02292 81.1283C4.29151 81.1283 3.65447 81.0162 3.11181 80.7921C2.5721 80.5679 2.15036 80.2361 1.84659 79.7967C1.54577 79.3543 1.38799 78.8072 1.37324 78.1555H3.22683C3.24748 78.4592 3.33448 78.7129 3.48784 78.9164C3.64415 79.1169 3.85207 79.2688 4.1116 79.372C4.37409 79.4723 4.67048 79.5224 5.0008 79.5224C5.32521 79.5224 5.60687 79.4752 5.84575 79.3809C6.08759 79.2865 6.27487 79.1553 6.40758 78.9871C6.5403 78.819 6.60666 78.6259 6.60666 78.4076C6.60666 78.2041 6.5462 78.0331 6.42528 77.8945C6.30731 77.7558 6.1333 77.6379 5.90326 77.5405C5.67617 77.4432 5.39747 77.3547 5.06716 77.2751L4.08064 77.0274C3.31679 76.8416 2.71367 76.5511 2.27128 76.1559C1.8289 75.7607 1.60918 75.2283 1.61213 74.5589C1.60918 74.0103 1.75517 73.5311 2.05009 73.1211C2.34796 72.7112 2.75643 72.3912 3.2755 72.1611C3.79456 71.9311 4.38441 71.8161 5.04504 71.8161C5.71746 71.8161 6.30436 71.9311 6.80573 72.1611C7.31005 72.3912 7.7023 72.7112 7.98247 73.1211C8.26265 73.5311 8.40716 74.0059 8.41601 74.5456H6.58011ZM17.8222 75.1119H15.8846C15.8492 74.8612 15.7769 74.6385 15.6678 74.4439C15.5587 74.2463 15.4186 74.0781 15.2475 73.9395C15.0765 73.8009 14.8789 73.6947 14.6547 73.621C14.4336 73.5473 14.1932 73.5104 13.9337 73.5104C13.4647 73.5104 13.0563 73.6269 12.7083 73.8599C12.3602 74.0899 12.0904 74.4262 11.8987 74.8685C11.707 75.308 11.6111 75.8418 11.6111 76.47C11.6111 77.1159 11.707 77.6585 11.8987 78.098C12.0933 78.5374 12.3647 78.8692 12.7127 79.0933C13.0607 79.3175 13.4633 79.4295 13.9204 79.4295C14.177 79.4295 14.4144 79.3956 14.6326 79.3278C14.8538 79.26 15.0499 79.1612 15.221 79.0314C15.3921 78.8987 15.5336 78.7379 15.6457 78.5492C15.7607 78.3604 15.8403 78.1451 15.8846 77.9033L17.8222 77.9122C17.7721 78.328 17.6467 78.7291 17.4462 79.1154C17.2486 79.4988 16.9817 79.8424 16.6455 80.1462C16.3122 80.447 15.9141 80.6859 15.451 80.8629C14.991 81.0369 14.4704 81.1239 13.8894 81.1239C13.0813 81.1239 12.3588 80.941 11.7217 80.5753C11.0876 80.2096 10.5863 79.6802 10.2176 78.9871C9.85192 78.2941 9.66907 77.455 9.66907 76.47C9.66907 75.482 9.85487 74.6415 10.2265 73.9484C10.5981 73.2553 11.1024 72.7274 11.7394 72.3646C12.3765 71.9989 13.0931 71.8161 13.8894 71.8161C14.4144 71.8161 14.901 71.8898 15.3493 72.0373C15.8005 72.1847 16.2001 72.4 16.5482 72.6832C16.8962 72.9633 17.1793 73.3069 17.3975 73.7139C17.6187 74.1209 17.7603 74.5869 17.8222 75.1119ZM19.1958 81V71.94H22.7703C23.4545 71.94 24.0385 72.0623 24.5221 72.3071C25.0088 72.549 25.3789 72.8926 25.6325 73.3379C25.8891 73.7803 26.0174 74.3008 26.0174 74.8995C26.0174 75.5012 25.8876 76.0187 25.6281 76.4523C25.3686 76.8829 24.9925 77.2132 24.5 77.4432C24.0105 77.6733 23.4177 77.7883 22.7216 77.7883H20.3283V76.2488H22.412C22.7777 76.2488 23.0814 76.1986 23.3233 76.0984C23.5651 75.9981 23.745 75.8477 23.863 75.6471C23.9839 75.4466 24.0444 75.1974 24.0444 74.8995C24.0444 74.5987 23.9839 74.3451 23.863 74.1386C23.745 73.9322 23.5636 73.7759 23.3189 73.6697C23.077 73.5606 22.7718 73.506 22.4031 73.506H21.1114V81H19.1958ZM24.0886 76.877L26.3403 81H24.2257L22.0227 76.877H24.0886ZM27.3711 81V71.94H33.476V73.5193H29.2866V75.6781H33.1619V77.2574H29.2866V79.4207H33.4937V81H27.3711ZM34.9989 81V71.94H41.1038V73.5193H36.9145V75.6781H40.7898V77.2574H36.9145V79.4207H41.1215V81H34.9989ZM50.2048 71.94V81H48.5503L44.6086 75.2977H44.5423V81H42.6268V71.94H44.3078L48.2185 77.6379H48.2981V71.94H50.2048Z" fill="#949494"/>
<path d="M79.5679 11.45V2.3899H85.5667V3.96922H81.4835V6.12806H85.1685V7.70737H81.4835V11.45H79.5679ZM88.7707 2.3899V11.45H86.8551V2.3899H88.7707ZM97.9247 2.3899V11.45H96.2702L92.3285 5.74761H92.2622V11.45H90.3467V2.3899H92.0277L95.9384 8.08782H96.018V2.3899H97.9247ZM105.515 5.31849C105.453 5.1032 105.366 4.91297 105.254 4.74782C105.142 4.57971 105.005 4.43815 104.843 4.32313C104.683 4.20516 104.5 4.11521 104.294 4.05327C104.09 3.99134 103.865 3.96037 103.617 3.96037C103.154 3.96037 102.747 4.07539 102.396 4.30543C102.048 4.53547 101.777 4.87021 101.582 5.30965C101.387 5.74613 101.29 6.27994 101.29 6.91108C101.29 7.54222 101.386 8.07898 101.578 8.52136C101.769 8.96375 102.041 9.30143 102.392 9.53442C102.743 9.76446 103.157 9.87948 103.635 9.87948C104.068 9.87948 104.438 9.8028 104.745 9.64944C105.055 9.49313 105.291 9.27342 105.453 8.99029C105.618 8.70716 105.701 8.37243 105.701 7.98608L106.09 8.04359H103.754V6.60141H107.545V7.74276C107.545 8.53906 107.377 9.22328 107.041 9.79543C106.705 10.3646 106.242 10.8041 105.652 11.1137C105.062 11.4205 104.387 11.5738 103.626 11.5738C102.777 11.5738 102.03 11.3865 101.387 11.012C100.745 10.6345 100.243 10.0992 99.8834 9.40613C99.5265 8.71011 99.3481 7.88433 99.3481 6.92878C99.3481 6.19442 99.4543 5.53969 99.6666 4.96459C99.8819 4.38654 100.183 3.89696 100.569 3.49587C100.955 3.09477 101.405 2.78953 101.918 2.58013C102.432 2.37073 102.987 2.26604 103.586 2.26604C104.099 2.26604 104.577 2.34124 105.019 2.49165C105.462 2.63911 105.854 2.84851 106.196 3.11984C106.541 3.39117 106.823 3.71411 107.041 4.08866C107.259 4.46027 107.399 4.87021 107.461 5.31849H105.515ZM108.984 11.45V2.3899H115.089V3.96922H110.9V6.12806H114.775V7.70737H110.9V9.87064H115.107V11.45H108.984ZM116.612 11.45V2.3899H120.187C120.871 2.3899 121.455 2.5123 121.938 2.75708C122.425 2.99892 122.795 3.34251 123.049 3.78784C123.305 4.23023 123.434 4.75077 123.434 5.34946C123.434 5.9511 123.304 6.46869 123.044 6.90223C122.785 7.33282 122.409 7.66313 121.916 7.89317C121.427 8.12322 120.834 8.23824 120.138 8.23824H117.745V6.69874H119.828C120.194 6.69874 120.498 6.6486 120.74 6.54832C120.981 6.44805 121.161 6.29764 121.279 6.09709C121.4 5.89654 121.461 5.64733 121.461 5.34946C121.461 5.04864 121.4 4.795 121.279 4.58856C121.161 4.38211 120.98 4.2258 120.735 4.11963C120.493 4.01051 120.188 3.95595 119.819 3.95595H118.528V11.45H116.612ZM121.505 7.32692L123.757 11.45H121.642L119.439 7.32692H121.505ZM89.4464 23.45H86.2347V14.3899H89.4729C90.3843 14.3899 91.1688 14.5713 91.8264 14.934C92.4841 15.2938 92.9899 15.8114 93.3438 16.4868C93.7007 17.1622 93.8791 17.9703 93.8791 18.9111C93.8791 19.8548 93.7007 20.6659 93.3438 21.3442C92.9899 22.0225 92.4812 22.5431 91.8176 22.9058C91.157 23.2686 90.3666 23.45 89.4464 23.45ZM88.1502 21.8087H89.3668C89.933 21.8087 90.4093 21.7084 90.7957 21.5079C91.185 21.3044 91.477 20.9903 91.6716 20.5656C91.8692 20.138 91.968 19.5865 91.968 18.9111C91.968 18.2416 91.8692 17.6945 91.6716 17.2698C91.477 16.8451 91.1865 16.5325 90.8001 16.332C90.4138 16.1314 89.9375 16.0312 89.3712 16.0312H88.1502V21.8087ZM95.2981 23.45V14.3899H98.8725C99.5567 14.3899 100.141 14.5123 100.624 14.7571C101.111 14.9989 101.481 15.3425 101.735 15.7878C101.991 16.2302 102.12 16.7508 102.12 17.3495C102.12 17.9511 101.99 18.4687 101.73 18.9022C101.471 19.3328 101.095 19.6631 100.602 19.8932C100.113 20.1232 99.5199 20.2382 98.8239 20.2382H96.4306V18.6987H98.5142C98.8799 18.6987 99.1837 18.6486 99.4255 18.5483C99.6673 18.4481 99.8472 18.2976 99.9652 18.0971C100.086 17.8965 100.147 17.6473 100.147 17.3495C100.147 17.0486 100.086 16.795 99.9652 16.5886C99.8472 16.3821 99.6659 16.2258 99.4211 16.1196C99.1792 16.0105 98.874 15.9559 98.5053 15.9559H97.2136V23.45H95.2981ZM100.191 19.3269L102.443 23.45H100.328L98.1249 19.3269H100.191ZM105.035 23.45H102.982L106.11 14.3899H108.578L111.702 23.45H109.649L107.38 16.4603H107.309L105.035 23.45ZM104.907 19.8888H109.755V21.384H104.907V19.8888ZM113.919 23.45L111.327 14.3899H113.419L114.919 20.685H114.994L116.649 14.3899H118.44L120.09 20.6983H120.17L121.67 14.3899H123.762L121.17 23.45H119.303L117.578 17.5264H117.507L115.786 23.45H113.919Z" fill="#949494"/>
</svg>
